<svg width="53" height="53" viewBox="0 0 53 53" version="1.1" xmlns="http://www.w3.org/2000/svg" xmlns:xlink="http://www.w3.org/1999/xlink">
<title>Youtube</title>
<desc>Created using Figma</desc>
<g id="Canvas" transform="translate(469 -1172)">
<g id="Youtube">
<g id="Combined Shape">
<use xlink:href="#path0_fill" transform="translate(-469 1172)" fill="#FEFEFE"/>
</g>
<g id="Fill 2">
<use xlink:href="#path1_fill" transform="translate(-445.162 1194.97)" fill="#FEFEFE"/>
</g>
</g>
</g>
<defs>
<path id="path0_fill" fill-rule="evenodd" d="M 26.4865 0C 11.8584 0 0 11.8645 0 26.5C 0 41.1355 11.8584 53 26.4865 53C 41.1146 53 52.973 41.1355 52.973 26.5C 52.973 11.8645 41.1146 0 26.4865 0ZM 37.5239 17.3899C 38.7396 17.7237 39.697 18.707 40.0219 19.9559C 40.6122 22.2192 40.6122 26.9417 40.6122 26.9417C 40.6122 26.9417 40.6122 31.664 40.0219 33.9275C 39.697 35.1763 38.7396 36.1597 37.5239 36.4936C 35.3209 37.1 26.4861 37.1 26.4861 37.1C 26.4861 37.1 17.6514 37.1 15.4481 36.4936C 14.2325 36.1597 13.2751 35.1763 12.9503 33.9275C 12.36 31.664 12.36 26.9417 12.36 26.9417C 12.36 26.9417 12.36 22.2192 12.9503 19.9559C 13.2751 18.707 14.2325 17.7237 15.4481 17.3899C 17.6514 16.7834 26.4861 16.7834 26.4861 16.7834C 26.4861 16.7834 35.3209 16.7834 37.5239 17.3899Z"/>
<path id="path1_fill" fill-rule="evenodd" d="M 0 8.83333L 0 0L 7.06306 4.41684L 0 8.83333Z"/>
</defs>
</svg>
