<svg xmlns="http://www.w3.org/2000/svg" viewBox="0 0 234.08 76.68"><defs><style>.a{fill:#55565a;}.b{fill:#00aeef;}</style></defs><title>3_EKOL Logo</title><polygon class="a" points="100.05 3.81 100.05 73.06 108.57 76.68 108.57 0 100.05 3.81"/><path class="a" d="M75.19,25.56l-8.52,3.81V72.88l8.52,3.81H83.7l8.52-3.81V29.37L83.7,25.56ZM83.7,75.82H75.19V26.42H83.7Z"/><polygon class="a" points="50.28 76.68 58.8 72.88 58.8 52.47 50.28 48.7 50.28 76.68"/><polygon class="a" points="50.28 44.26 41.76 48.03 41.76 0 33.24 3.81 33.24 72.96 41.76 76.68 41.76 48.97 55.51 42.87 55.51 42.85 58.8 41.38 58.8 29.34 50.28 25.56 50.28 44.26"/><path class="a" d="M8.52,25.56,0,29.37V72.88l8.52,3.81H17l8.52-3.81v-17L17,59.64V75.82H8.52V54.89L17,51.12h0l2-.88,2.32-1h0l4.23-1.89v-18L17,25.56ZM8.52,54V26.42H17V50.18Z"/><rect class="b" x="118.02" y="39.18" width="0.96" height="22.54"/><path class="b" d="M128.67,45.23v9.3h3.18v1.54H127V45.23Z"/><path class="b" d="M133.43,50.6a5.3,5.3,0,0,1,1.67-3.93,5.51,5.51,0,0,1,4-1.64,5.67,5.67,0,0,1,5.64,5.63,5.34,5.34,0,0,1-1.67,4,5.73,5.73,0,0,1-7.81.18A5.32,5.32,0,0,1,133.43,50.6Zm1.65,0a3.92,3.92,0,0,0,1.21,3,4,4,0,0,0,5.65,0,4.2,4.2,0,0,0,0-5.8,4,4,0,0,0-5.7,0A3.9,3.9,0,0,0,135.08,50.61Z"/><path class="b" d="M153.38,50.42h4.48v.36a7.53,7.53,0,0,1-.29,2.16,4.58,4.58,0,0,1-.95,1.63,4.9,4.9,0,0,1-3.84,1.7,5.28,5.28,0,0,1-3.9-1.64,5.64,5.64,0,0,1,4-9.6,5.58,5.58,0,0,1,2.37.51,7,7,0,0,1,2.07,1.68l-1.16,1.12A4,4,0,0,0,153,46.56a3.87,3.87,0,0,0-2.88,1.18,4,4,0,0,0-1.16,2.92,4.07,4.07,0,0,0,3.93,4.07,3.27,3.27,0,0,0,2.17-.81,2.88,2.88,0,0,0,1.07-2h-2.7Z"/><path class="b" d="M162.55,45.23V56.06h-1.63V45.23Z"/><path class="b" d="M172.29,46.84l-1.33.79a2.27,2.27,0,0,0-.71-.84,1.89,1.89,0,0,0-2,.16,1.2,1.2,0,0,0-.45,1c0,.53.39,1,1.18,1.28l1.08.44a4.64,4.64,0,0,1,1.93,1.3,3,3,0,0,1,.61,1.89,3.29,3.29,0,0,1-1,2.47,3.41,3.41,0,0,1-2.49,1,3.31,3.31,0,0,1-2.33-.84,3.85,3.85,0,0,1-1.13-2.35l1.66-.36a2.8,2.8,0,0,0,.39,1.32,1.7,1.7,0,0,0,1.47.7,1.72,1.72,0,0,0,1.27-.51,1.78,1.78,0,0,0,.5-1.3,1.82,1.82,0,0,0-.09-.58,1.44,1.44,0,0,0-.27-.48,2.06,2.06,0,0,0-.48-.41,4.82,4.82,0,0,0-.7-.37l-1-.44q-2.22-.94-2.22-2.75a2.6,2.6,0,0,1,.93-2,3.36,3.36,0,0,1,2.32-.83A3.25,3.25,0,0,1,172.29,46.84Z"/><path class="b" d="M178.73,46.77v9.29H177.1V46.77h-2.49V45.23h6.61v1.54Z"/><path class="b" d="M185.32,45.23V56.06h-1.63V45.23Z"/><path class="b" d="M196.93,45.81v1.93A4.53,4.53,0,0,0,194,46.56a3.74,3.74,0,0,0-2.81,1.2A4.05,4.05,0,0,0,190,50.67a4,4,0,0,0,1.15,2.88A3.81,3.81,0,0,0,194,54.72a3.52,3.52,0,0,0,1.47-.28,4.2,4.2,0,0,0,.7-.38,8.17,8.17,0,0,0,.76-.58v2a5.93,5.93,0,0,1-2.95.79,5.43,5.43,0,0,1-4-1.62,5.37,5.37,0,0,1-1.63-3.94A5.55,5.55,0,0,1,189.75,47a5.44,5.44,0,0,1,4.36-2A5.57,5.57,0,0,1,196.93,45.81Z"/><path class="b" d="M206.12,46.84l-1.33.79a2.25,2.25,0,0,0-.7-.84,1.89,1.89,0,0,0-2,.16,1.2,1.2,0,0,0-.45,1c0,.53.39,1,1.18,1.28l1.08.44a4.65,4.65,0,0,1,1.93,1.3,2.93,2.93,0,0,1,.61,1.89,3.31,3.31,0,0,1-1,2.47,3.41,3.41,0,0,1-2.49,1,3.32,3.32,0,0,1-2.33-.84,3.86,3.86,0,0,1-1.13-2.35l1.66-.36a2.8,2.8,0,0,0,.39,1.32,1.69,1.69,0,0,0,1.47.7,1.71,1.71,0,0,0,1.27-.51,1.92,1.92,0,0,0,.42-1.88,1.38,1.38,0,0,0-.27-.48,2.15,2.15,0,0,0-.48-.41,4.77,4.77,0,0,0-.7-.37l-1-.44q-2.23-.94-2.23-2.75a2.6,2.6,0,0,1,.93-2,3.35,3.35,0,0,1,2.32-.83A3.25,3.25,0,0,1,206.12,46.84Z"/><path class="b" d="M220.6,53h1.15v1.49H220.6v1.54H219V54.53h-5.32l6.95-10.1ZM219,53V49.41L216.47,53Z"/><path class="b" d="M223.2,55.28a.92.92,0,0,1,.29-.68A1,1,0,1,1,224.86,56a.93.93,0,0,1-.69.28,1,1,0,0,1-1-1Z"/><path class="b" d="M226,50.61a6.89,6.89,0,0,1,1.27-4.34,3.32,3.32,0,0,1,5.5,0,7,7,0,0,1,1.27,4.42,7,7,0,0,1-1.27,4.41,3.31,3.31,0,0,1-5.5,0A7.12,7.12,0,0,1,226,50.61Zm1.69,0a6.76,6.76,0,0,0,.66,3.15,1.75,1.75,0,0,0,3.34,0,6.4,6.4,0,0,0,.67-3.09,6.47,6.47,0,0,0-.67-3.1,1.75,1.75,0,0,0-3.33,0A6.3,6.3,0,0,0,227.74,50.62Z"/></svg>