<svg width="164" height="78" viewBox="0 0 164 78" version="1.1" xmlns="http://www.w3.org/2000/svg" xmlns:xlink="http://www.w3.org/1999/xlink" xmlns:figma="http://www.figma.com/figma/ns">
<title>logo</title>
<desc>Created using Figma</desc>
<g id="Canvas" transform="translate(1108 3129)" figma:type="canvas">
<g id="logo" figma:type="symbol">
<g id="Vector" figma:type="vector">
<use xlink:href="#econblack0_fill" transform="translate(-1100.6 -3106.9)"/>
</g>
<g id="Vector" figma:type="vector">
<use xlink:href="#econblack1_fill" transform="translate(-1071.7 -3113.7)"/>
</g>
<g id="Vector" figma:type="vector">
<use xlink:href="#econblack2_fill" transform="translate(-1047 -3106.9)"/>
</g>
<g id="Vector" figma:type="vector">
<use xlink:href="#econblack3_fill" transform="translate(-1019.2 -3106.9)"/>
</g>
<g id="Vector" figma:type="vector">
<use xlink:href="#econblack4_fill" transform="translate(-1071.8 -3078.8)"/>
</g>
<g id="Vector" figma:type="vector">
<use xlink:href="#econblack5_fill" transform="translate(-1061.3 -3078.8)"/>
</g>
<g id="Vector" figma:type="vector">
<use xlink:href="#econblack6_fill" transform="translate(-1047.7 -3079)"/>
</g>
<g id="Vector" figma:type="vector">
<use xlink:href="#econblack7_fill" transform="translate(-1034 -3078.8)"/>
</g>
<g id="Vector" figma:type="vector">
<use xlink:href="#econblack8_fill" transform="translate(-1026.4 -3078.8)"/>
</g>
<g id="Vector" figma:type="vector">
<use xlink:href="#econblack9_fill" transform="translate(-1012.5 -3078.8)"/>
</g>
<g id="Vector" figma:type="vector">
<use xlink:href="#econblack10_fill" transform="translate(-1001.8 -3078.8)"/>
</g>
<g id="Vector" figma:type="vector">
<use xlink:href="#econblack11_fill" transform="translate(-991.3 -3079)"/>
</g>
<g id="Vector" figma:type="vector">
<use xlink:href="#econblack7_fill" transform="translate(-979.5 -3078.8)"/>
</g>
<g id="Vector" figma:type="vector">
<use xlink:href="#econblack12_fill" transform="translate(-972 -3078.8)"/>
</g>
<g id="Vector" figma:type="vector">
<use xlink:href="#econblack13_fill" transform="translate(-958.4 -3079)"/>
</g>
<g id="Vector" figma:type="vector">
<use xlink:href="#econblack14_fill" transform="translate(-1069.3 -3065.3)" fill="#6B95BE"/>
</g>
<g id="Vector" figma:type="vector">
<use xlink:href="#econblack15_fill" transform="translate(-1108 -3129)" fill="#6B95BE"/>
</g>
<g id="Vector" figma:type="vector">
<use xlink:href="#econblack16_fill" transform="translate(-985.4 -3100.1)" fill="#6B95BE"/>
</g>
<g id="Vector" figma:type="vector">
<use xlink:href="#econblack17_fill" transform="translate(-1081.5 -3083.3)" fill="#6B95BE"/>
</g>
</g>
</g>
<defs>
<path id="econblack0_fill" d="M 9.6 11.5L 9.6 13.3C 9.6 14.7 10.2 15.2 11.8 15.2L 20.9 15.2C 22.7 15.2 23.7 15.1 25.2 14.4L 24.4 18.9L 5.5 18.9C 1.2 18.9 9.53674e-08 17.1 9.53674e-08 13.2L 9.53674e-08 5.7C 9.53674e-08 1.8 1.2 3.8147e-07 5.5 3.8147e-07L 19.9 3.8147e-07C 24.2 3.8147e-07 25.4 1.8 25.4 5.7L 25.4 11.5L 9.6 11.5ZM 16.2 7.8L 16.2 5.2C 16.2 4.1 15.9 3.7 14.8 3.7L 10.9 3.7C 9.9 3.7 9.5 4.1 9.5 5.2L 9.5 7.8L 16.2 7.8Z"/>
<path id="econblack1_fill" d="M 22.6 5C 21.5 4.6 20.6 4.3 18.7 4.3L 11.7 4.3C 10.4 4.3 9.8 4.7 9.8 5.9L 9.8 19.8C 9.8 21 10.4 21.4 11.7 21.4L 17.2 21.4C 21.1 21.4 21.8 21.1 23.1 20.4L 22.3 25.7L 6.5 25.7C 2.3 25.7 -7.62939e-07 23.7 -7.62939e-07 18.1L -7.62939e-07 7.6C -7.62939e-07 2.1 2.3 1.90735e-07 6.5 1.90735e-07L 21.9 1.90735e-07L 22.6 5Z"/>
<path id="econblack2_fill" d="M 25.8 13.2C 25.8 17.1 24.6 18.9 20.3 18.9L 5.5 18.9C 1.2 18.9 0 17.1 0 13.2L 0 5.7C 0 1.8 1.2 3.8147e-07 5.5 3.8147e-07L 20.3 3.8147e-07C 24.6 3.8147e-07 25.8 1.8 25.8 5.7L 25.8 13.2ZM 9.6 13.7C 9.6 14.8 9.9 15.2 11 15.2L 14.9 15.2C 16 15.2 16.3 14.8 16.3 13.7L 16.3 5.3C 16.3 4.2 16 3.8 14.9 3.8L 11 3.8C 10 3.8 9.6 4.2 9.6 5.3L 9.6 13.7Z"/>
<path id="econblack3_fill" d="M 9.8 3.8147e-07L 10.1 2L 10.2 2C 10.6 1 11.2 3.8147e-07 12.7 3.8147e-07L 20.4 3.8147e-07C 24.9 3.8147e-07 26.7 2.7 26.7 6.9L 26.7 14.6C 26.7 17.2 27.2 18 27.7 18.9L 16.1 18.9C 16.7 17.9 17.1 17.2 17.1 14.6L 17.1 5.3C 17.1 4.1 16.7 3.7 15.5 3.7L 12 3.7C 10.8 3.7 10.4 4.1 10.4 5.3L 10.4 14.6C 10.4 17.2 10.9 18 11.4 18.9L 3.05176e-06 18.9C 0.600003 17.9 1 17.2 1 14.6L 1 4.4C 1 1.8 0.500003 1 3.05176e-06 0.100001L 9.8 0.100001L 9.8 3.8147e-07Z"/>
<path id="econblack4_fill" d="M 4.6 1.2L 1.2 1.2L 1.2 4.1L 4.5 4.1L 4.5 5.3L 1.2 5.3L 1.2 8.3L 4.7 8.3L 4.7 9.5L 7.62939e-07 9.5L 7.62939e-07 7.62939e-07L 4.5 7.62939e-07L 4.5 1.2L 4.6 1.2Z"/>
<path id="econblack5_fill" d="M 7.5 9.5L 6.5 9.5L 1.1 2.2L 1.1 9.5L 7.62939e-07 9.5L 7.62939e-07 7.62939e-07L 0.899998 7.62939e-07L 6.3 7.4L 6.3 7.62939e-07L 7.4 7.62939e-07L 7.4 9.5L 7.5 9.5Z"/>
<path id="econblack6_fill" d="M 7.4 9C 6.3 9.6 5.5 9.8 4.3 9.8C 1.8 9.8 -7.62939e-07 7.8 -7.62939e-07 5C -7.62939e-07 2.2 1.9 0 4.3 0C 5.2 0 5.9 0.199999 7.2 0.799999L 7.2 2.2C 6.3 1.6 5.3 1.3 4.3 1.3C 2.6 1.3 1.2 2.9 1.2 5C 1.2 7.1 2.5 8.6 4.4 8.6C 5 8.6 5.6 8.4 6.1 8.2L 6.1 6.2L 4.7 6.2L 4.7 5L 7.4 5L 7.4 9Z"/>
<path id="econblack7_fill" d="M 1.2 9.5L 0 9.5L 0 7.62939e-07L 1.2 7.62939e-07L 1.2 9.5Z"/>
<path id="econblack8_fill" d="M 7.5 9.5L 6.5 9.5L 1.1 2.2L 1.1 9.5L -1.52588e-06 9.5L -1.52588e-06 7.62939e-07L 0.9 7.62939e-07L 6.3 7.4L 6.3 7.62939e-07L 7.4 7.62939e-07L 7.4 9.5L 7.5 9.5Z"/>
<path id="econblack9_fill" d="M 4.6 1.2L 1.2 1.2L 1.2 4.1L 4.5 4.1L 4.5 5.3L 1.2 5.3L 1.2 8.3L 4.7 8.3L 4.7 9.5L 1.42109e-14 9.5L 1.42109e-14 7.62939e-07L 4.5 7.62939e-07L 4.5 1.2L 4.6 1.2Z"/>
<path id="econblack10_fill" d="M 4.5 1.2L 1.1 1.2L 1.1 4.1L 4.4 4.1L 4.4 5.3L 1.1 5.3L 1.1 8.3L 4.6 8.3L 4.6 9.5L -3.05176e-06 9.5L -3.05176e-06 7.62939e-07L 4.5 7.62939e-07L 4.5 1.2Z"/>
<path id="econblack11_fill" d="M 2.1 0.0999985C 3.7 0.0999985 4.7 1.1 4.7 2.8C 4.7 3.9 4.2 4.7 3.4 5.1C 4.1 5.7 4.6 6.6 5.2 7.7C 5.5 8.4 5.7 8.7 6.3 9.6L 4.9 9.6L 3.8 7.6C 2.7 5.6 2.3 5.4 1.7 5.4L 1.2 5.4L 1.2 9.5L -3.05176e-06 9.5L -3.05176e-06 0L 2.1 0L 2.1 0.0999985ZM 1.2 4.3L 1.9 4.3C 3.1 4.3 3.5 3.5 3.5 2.7C 3.5 1.8 3 1.3 1.9 1.3L 1.2 1.3L 1.2 4.3Z"/>
<path id="econblack12_fill" d="M 7.5 9.5L 6.5 9.5L 1.10001 2.2L 1.10001 9.5L 0 9.5L 0 7.62939e-07L 0.899994 7.62939e-07L 6.3 7.4L 6.3 7.62939e-07L 7.39999 7.62939e-07L 7.39999 9.5L 7.5 9.5Z"/>
<path id="econblack13_fill" d="M 7.4 9C 6.3 9.6 5.49999 9.8 4.29999 9.8C 1.79999 9.8 6.10352e-06 7.8 6.10352e-06 5C 6.10352e-06 2.2 1.89999 0 4.29999 0C 5.19999 0 5.9 0.199999 7.2 0.799999L 7.2 2.2C 6.3 1.6 5.29999 1.3 4.29999 1.3C 2.59999 1.3 1.2 2.9 1.2 5C 1.2 7.1 2.5 8.6 4.4 8.6C 5 8.6 5.6 8.4 6.1 8.2L 6.1 6.2L 4.6 6.2L 4.6 5L 7.29999 5L 7.29999 9L 7.4 9Z"/>
<path id="econblack14_fill" d="M 7.62939e-07 7.62939e-07L 7.9 13.4L 45.4 7.62939e-07L 7.4 9.8L 7.62939e-07 7.62939e-07Z"/>
<path id="econblack15_fill" d="M 11.4 17.6L 0 0L 46.1 11.4L 4.7 2.7L 11.4 17.6Z"/>
<path id="econblack16_fill" d="M -1.52588e-06 -3.8147e-07L 41.4 8.6L 18.8 15.8L 35 8.6L -1.52588e-06 -3.8147e-07Z"/>
<path id="econblack17_fill" d="M 0 7.62939e-07L 127.5 0.899998L 0 1.7L 0 7.62939e-07Z"/>
</defs>
</svg>
