<?xml version="1.0" encoding="utf-8"?>
<!-- Generator: Adobe Illustrator 21.1.0, SVG Export Plug-In . SVG Version: 6.00 Build 0)  -->
<svg version="1.1" id="Layer_1" xmlns:figma="http://www.figma.com/figma/ns"
	 xmlns="http://www.w3.org/2000/svg" xmlns:xlink="http://www.w3.org/1999/xlink" x="0px" y="0px" viewBox="0 0 164 78"
	 enable-background="new 0 0 164 78" xml:space="preserve">
<g>
	<g>
		<g id="Vector" figma:type="vector">
			<g transform="translate(-1100.6 -3106.9)">
				<path id="econblack0_fill" fill="#010202" d="M17,33.6v1.8c0,1.4,0.6,1.9,2.2,1.9h9.1c1.8,0,2.8-0.1,4.3-0.8L31.8,41H12.9
					c-4.3,0-5.5-1.8-5.5-5.7v-7.5c0-3.9,1.2-5.7,5.5-5.7h14.4c4.3,0,5.5,1.8,5.5,5.7v5.8H17z M23.6,29.9v-2.6c0-1.1-0.3-1.5-1.4-1.5
					h-3.9c-1,0-1.4,0.4-1.4,1.5v2.6H23.6z"/>
			</g>
		</g>
		<g id="Vector_1_" figma:type="vector">
			<g transform="translate(-1071.7 -3113.7)">
				<path id="econblack1_fill" fill="#010202" d="M58.9,20.3c-1.1-0.4-2-0.7-3.9-0.7h-7c-1.3,0-1.9,0.4-1.9,1.6v13.9
					c0,1.2,0.6,1.6,1.9,1.6h5.5c3.9,0,4.6-0.3,5.9-1L58.6,41H42.8c-4.2,0-6.5-2-6.5-7.6V22.9c0-5.5,2.3-7.6,6.5-7.6h15.4L58.9,20.3z
					"/>
			</g>
		</g>
		<g id="Vector_2_" figma:type="vector">
			<g transform="translate(-1047 -3106.9)">
				<path id="econblack2_fill" fill="#010202" d="M86.8,35.3c0,3.9-1.2,5.7-5.5,5.7H66.5c-4.3,0-5.5-1.8-5.5-5.7v-7.5
					c0-3.9,1.2-5.7,5.5-5.7h14.8c4.3,0,5.5,1.8,5.5,5.7V35.3z M70.6,35.8c0,1.1,0.3,1.5,1.4,1.5h3.9c1.1,0,1.4-0.4,1.4-1.5v-8.4
					c0-1.1-0.3-1.5-1.4-1.5H72c-1,0-1.4,0.4-1.4,1.5V35.8z"/>
			</g>
		</g>
		<g id="Vector_3_" figma:type="vector">
			<g transform="translate(-1019.2 -3106.9)">
				<path id="econblack3_fill" fill="#010202" d="M98.6,22.1l0.3,2H99c0.4-1,1-2,2.5-2h7.7c4.5,0,6.3,2.7,6.3,6.9v7.7
					c0,2.6,0.5,3.4,1,4.3h-11.6c0.6-1,1-1.7,1-4.3v-9.3c0-1.2-0.4-1.6-1.6-1.6h-3.5c-1.2,0-1.6,0.4-1.6,1.6v9.3c0,2.6,0.5,3.4,1,4.3
					H88.8c0.6-1,1-1.7,1-4.3V26.5c0-2.6-0.5-3.4-1-4.3h9.8V22.1z"/>
			</g>
		</g>
	</g>
	<g>
		<path id="econblack4_fill" fill="#010202" d="M40.8,51.4h-3.4v2.9h3.3v1.2h-3.3v3h3.5v1.2h-4.7v-9.5h4.5L40.8,51.4L40.8,51.4z"/>
		<path id="econblack5_fill" fill="#010202" d="M54.2,59.7h-1l-5.4-7.3v7.3h-1.1v-9.5h0.9l5.4,7.4v-7.4h1.1L54.2,59.7L54.2,59.7z"/>
		<path id="econblack6_fill" fill="#010202" d="M67.7,59c-1.1,0.6-1.9,0.8-3.1,0.8c-2.5,0-4.3-2-4.3-4.8s1.9-5,4.3-5
			c0.9,0,1.6,0.2,2.9,0.8v1.4c-0.9-0.6-1.9-0.9-2.9-0.9c-1.7,0-3.1,1.6-3.1,3.7s1.3,3.6,3.2,3.6c0.6,0,1.2-0.2,1.7-0.4v-2H65V55h2.7
			V59z"/>
		<path id="econblack7_fill" fill="#010202" d="M75.2,59.7H74v-9.5h1.2V59.7z"/>
		<path id="econblack8_fill" fill="#010202" d="M89.1,59.7h-1l-5.4-7.3v7.3h-1.1v-9.5h0.9l5.4,7.4v-7.4H89L89.1,59.7L89.1,59.7z"/>
		<path id="econblack9_fill" fill="#010202" d="M100.1,51.4h-3.4v2.9h3.3v1.2h-3.3v3h3.5v1.2h-4.7v-9.5h4.5L100.1,51.4L100.1,51.4z"
			/>
		<path id="econblack10_fill" fill="#010202" d="M110.7,51.4h-3.4v2.9h3.3v1.2h-3.3v3h3.5v1.2h-4.6v-9.5h4.5V51.4z"/>
		<path id="econblack11_fill" fill="#010202" d="M118.8,50.1c1.6,0,2.6,1,2.6,2.7c0,1.1-0.5,1.9-1.3,2.3c0.7,0.6,1.2,1.5,1.8,2.6
			c0.3,0.7,0.5,1,1.1,1.9h-1.4l-1.1-2c-1.1-2-1.5-2.2-2.1-2.2h-0.5v4.1h-1.2V50L118.8,50.1L118.8,50.1z M117.9,54.3h0.7
			c1.2,0,1.6-0.8,1.6-1.6c0-0.9-0.5-1.4-1.6-1.4h-0.7V54.3z"/>
		<path id="econblack7_fill_1_" fill="#010202" d="M129.7,59.7h-1.2v-9.5h1.2V59.7z"/>
		<path id="econblack12_fill" fill="#010202" d="M143.5,59.7h-1l-5.4-7.3v7.3H136v-9.5h0.9l5.4,7.4v-7.4h1.1v9.5H143.5z"/>
		<path id="econblack13_fill" fill="#010202" d="M157,59c-1.1,0.6-1.9,0.8-3.1,0.8c-2.5,0-4.3-2-4.3-4.8s1.9-5,4.3-5
			c0.9,0,1.6,0.2,2.9,0.8v1.4c-0.9-0.6-1.9-0.9-2.9-0.9c-1.7,0-3.1,1.6-3.1,3.7s1.3,3.6,3.2,3.6c0.6,0,1.2-0.2,1.7-0.4v-2h-1.5V55
			h2.7v4H157z"/>
	</g>
	<g>
		<g id="Vector_15_" figma:type="vector">
			<g transform="translate(-1069.3 -3065.3)">
				<path id="econblack14_fill" fill="#6A95BE" d="M38.7,63.7l7.9,13.4l37.5-13.4l-38,9.8L38.7,63.7z"/>
			</g>
		</g>
		<g id="Vector_16_" figma:type="vector">
			<g transform="translate(-1108 -3129)">
				<path id="econblack15_fill" fill="#6A95BE" d="M11.4,17.6L0,0l46.1,11.4L4.7,2.7L11.4,17.6z"/>
			</g>
		</g>
		<g id="Vector_17_" figma:type="vector">
			<g transform="translate(-985.4 -3100.1)">
				<path id="econblack16_fill" fill="#6A95BE" d="M122.6,28.9l41.4,8.6l-22.6,7.2l16.2-7.2L122.6,28.9z"/>
			</g>
		</g>
	</g>
	<g id="Vector_18_" figma:type="vector">
		<g transform="translate(-1081.5 -3083.3)">
			<path id="econblack17_fill" fill="#6A95BE" d="M26.5,45.7L154,46.6L26.5,47.4V45.7z"/>
		</g>
	</g>
</g>
</svg>
