<svg xmlns="http://www.w3.org/2000/svg" viewBox="0 0 408.3 69.94"><path d="M.779 28.089h4.753l2.044-3.983h10.966l2.071 3.983h4.806L15.33 8.865h-4.461L.779 28.089.779 28.089zM13.073 13.007l3.903 7.78H9.169L13.073 13.007 13.073 13.007zM40.236 28.089h3.638V14.468h-4.169v9.718c-1.274.744-2.576 1.142-4.275 1.142-2.522 0-3.558-1.088-3.558-3.372v-7.487h-4.169v8.019c0 4.859 3.187 6.027 6.718 6.027 2.204-.053 4.302-.796 5.523-1.912L40.236 28.089 40.236 28.089zM55.663 28.514c2.284 0 4.461-.796 5.735-1.965l.292 1.54h3.638V8.865h-4.169v6.505c-1.248-.823-3.16-1.327-5.178-1.327-5.151 0-8.072 2.734-8.072 7.222C47.909 25.752 50.803 28.514 55.663 28.514L55.663 28.514zM56.486 25.248c-2.814 0-4.328-1.434-4.328-3.982 0-2.549 1.514-4.01 4.328-4.01 1.965 0 3.292.345 4.673 1.062v5.868C59.778 24.929 58.451 25.248 56.486 25.248L56.486 25.248zM70.532 28.089h4.169V14.468h-4.169V28.089L70.532 28.089zM70.532 12.476h4.169V8.865h-4.169V12.476L70.532 12.476zM19.02 61.013L21.755 61.013 21.755 41.791 19.02 41.791 19.02 50.259 6.647 50.259 6.647 41.791 3.912 41.791 3.912 61.013 6.647 61.013 6.647 52.492 19.02 52.492 19.02 61.013zM39.997 61.013h2.204V47.392h-2.629V57.96c-1.46.85-2.734 1.301-4.806 1.301-2.841 0-4.435-.902-4.435-3.479v-8.391h-2.628v8.842c0 4.17 3.08 5.1 6.505 5.1 2.23 0 4.222-.611 5.576-1.488L39.997 61.013 39.997 61.013zM48.308 61.013h2.629V50.58c1.221-.771 3.159-1.436 5.204-1.436 2.841 0 4.301.904 4.301 3.611v8.258h2.629v-8.709c0-4.035-2.947-5.23-6.373-5.23-2.417 0-4.621.691-5.975 1.674l-.212-1.355h-2.204V61.013L48.308 61.013zM75.179 66.935c5.018 0 8.205-1.805 8.205-6.373v-13.17H81.18l-.186 1.115c-1.274-.902-3.24-1.434-5.311-1.434-5.071 0-8.045 2.523-8.045 6.904 0 4.486 3.08 6.93 7.886 6.93 1.965 0 3.903-.559 5.23-1.381v.822c0 3.453-2.177 4.436-5.735 4.436-2.761 0-4.726-.479-6.187-1.09v2.23C70.107 66.484 72.444 66.935 75.179 66.935L75.179 66.935zM76.055 58.863c-3.691 0-5.708-1.594-5.708-4.885 0-3.293 2.018-4.859 5.708-4.859 1.806 0 3.399.504 4.7 1.328v7.088C79.454 58.359 77.86 58.863 76.055 58.863L76.055 58.863zM100.536 61.013h2.204v-8.709c0-3.531-2.788-5.23-6.904-5.23-2.761 0-4.594.451-6.027 1.088v2.045c1.593-.637 3.053-1.008 5.788-1.008 3.187 0 4.514 1.221 4.514 3.451v.479c-1.036-.055-2.23-.107-3.266-.107-5.921 0-8.337 1.514-8.337 4.223 0 2.762 2.629 4.09 6.028 4.09 2.39 0 4.46-.611 5.788-1.568L100.536 61.013 100.536 61.013zM95.04 59.314c-2.708 0-3.823-.77-3.823-2.176 0-1.541 1.726-2.178 6.267-2.178h2.628v3.027C98.943 58.81 97.137 59.314 95.04 59.314L95.04 59.314zM108.555 61.013h2.629v-8.867c.584-.982 1.912-2.656 4.753-2.656 1.009 0 1.964.107 2.734.318v-2.336c-.584-.213-1.434-.346-2.416-.346-2.629 0-4.195 1.328-5.125 2.736l-.212-2.471h-2.363V61.013L108.555 61.013zM122.416 61.013h2.629V47.392h-2.629V61.013L122.416 61.013zM122.416 44.658h2.629v-2.867h-2.629V44.658L122.416 44.658zM142.197 61.013h2.204v-8.709c0-3.531-2.788-5.23-6.903-5.23-2.762 0-4.594.451-6.028 1.088v2.045c1.593-.637 3.054-1.008 5.789-1.008 3.187 0 4.514 1.221 4.514 3.451v.479c-1.036-.055-2.231-.107-3.266-.107-5.921 0-8.338 1.514-8.338 4.223 0 2.762 2.629 4.09 6.028 4.09 2.39 0 4.46-.611 5.789-1.568L142.197 61.013 142.197 61.013zM136.701 59.314c-2.708 0-3.823-.77-3.823-2.176 0-1.541 1.726-2.178 6.266-2.178h2.629v3.027C140.604 58.81 138.798 59.314 136.701 59.314L136.701 59.314zM373.398 61.111c-5.985 0-11.498-2.018-15.904-5.404 4.46-5.721 7.123-12.91 7.123-20.728 0-7.817-2.663-15.007-7.123-20.728 4.406-3.387 9.919-5.404 15.904-5.404 14.433 0 26.133 11.7 26.133 26.132C399.531 49.412 387.831 61.111 373.398 61.111L373.398 61.111zM314.954 55.707c4.46-5.721 7.124-12.91 7.124-20.728 0-7.817-2.664-15.007-7.124-20.729 4.406-3.386 9.919-5.403 15.905-5.403s11.498 2.018 15.904 5.404c-4.46 5.722-7.123 12.911-7.123 20.728 0 7.817 2.663 15.007 7.123 20.728-4.406 3.387-9.919 5.404-15.904 5.404C324.873 61.111 319.36 59.093 314.954 55.707L314.954 55.707zM272.414 55.707c4.459-5.721 7.123-12.91 7.123-20.728 0-7.817-2.664-15.007-7.123-20.729 4.406-3.386 9.918-5.403 15.904-5.403s11.499 2.018 15.905 5.403c-4.461 5.722-7.124 12.912-7.124 20.729 0 7.817 2.663 15.007 7.124 20.728-4.406 3.387-9.919 5.404-15.905 5.404S276.82 59.093 272.414 55.707L272.414 55.707zM219.646 34.979c0-14.433 11.7-26.132 26.132-26.132 5.987 0 11.499 2.018 15.905 5.403-4.46 5.722-7.124 12.912-7.124 20.729 0 7.817 2.664 15.007 7.123 20.728-4.405 3.387-9.917 5.404-15.904 5.404C231.346 61.111 219.646 49.412 219.646 34.979L219.646 34.979zM267.048 50.152c-3.058-4.279-4.862-9.514-4.862-15.173s1.805-10.894 4.862-15.172c3.058 4.278 4.862 9.513 4.862 15.172S270.106 45.873 267.048 50.152L267.048 50.152zM309.588 50.152c-3.058-4.279-4.862-9.514-4.862-15.173s1.805-10.894 4.862-15.172c3.057 4.278 4.861 9.513 4.861 15.172S312.645 45.873 309.588 50.152L309.588 50.152zM352.128 50.152c-3.058-4.279-4.862-9.514-4.862-15.173s1.805-10.893 4.862-15.172c3.057 4.279 4.861 9.513 4.861 15.172S355.185 45.873 352.128 50.152L352.128 50.152zM373.398 1.22c-8.063 0-15.464 2.832-21.269 7.549-5.808-4.718-13.208-7.549-21.271-7.549-8.064 0-15.465 2.832-21.271 7.548-5.807-4.717-13.207-7.548-21.271-7.548s-15.464 2.832-21.27 7.548c-5.806-4.717-13.206-7.548-21.271-7.548-18.645 0-33.758 15.114-33.758 33.759 0 18.646 15.113 33.759 33.758 33.759 8.064 0 15.465-2.832 21.271-7.549 5.806 4.717 13.206 7.549 21.27 7.549s15.464-2.832 21.271-7.549c5.806 4.717 13.206 7.549 21.271 7.549 8.063 0 15.463-2.832 21.271-7.549 5.805 4.717 13.205 7.549 21.269 7.549 18.646 0 33.759-15.113 33.759-33.759C407.157 16.334 392.043 1.22 373.398 1.22L373.398 1.22z"/></svg>