<svg width="176" height="176" viewBox="0 0 176 176" fill="none" xmlns="http://www.w3.org/2000/svg">
<circle cx="88" cy="88" r="88" fill="url(#paint0_linear)"/>
<path d="M23.7185 12.6026C17.1973 6.96613 33.529 8.82114e-07 33.529 8.82114e-07H25.8249C25.5075 0.289052 25.3055 0.433578 25.1035 0.578103C22.5931 2.74599 20.1117 4.24905 18.265 5.80993C18.1207 5.92555 17.9764 5.98336 17.8033 5.98336C17.6013 5.98336 17.3993 5.89664 17.255 5.72321C16.9954 5.43416 17.0242 4.97168 17.3416 4.71153C19.0152 3.29518 21.0639 1.7054 23.4588 8.82114e-07H18.5824C18.5824 8.82114e-07 -2.45264 11.7933 4.29933 19.5977C11.4553 27.8645 55.0257 30.8996 54.6794 37.8079C54.3332 45.0053 24.8727 56.6251 14.283 63.7069C3.89537 70.673 8.80572e-07 85.5591 8.80572e-07 85.5591H23.6608C23.6608 85.5302 23.6608 85.5013 23.6608 85.4724C23.6896 85.3279 24.1224 82.0038 26.8348 77.1478C27.0367 76.8009 27.4696 76.6853 27.8158 76.8587C28.1621 77.061 28.2775 77.4946 28.1044 77.8415C25.796 82.0038 25.2189 85.0099 25.1323 85.5591H51.5632C51.5632 85.5591 53.0636 74.026 58.9788 66.9153C64.8651 59.8336 83.5052 54.1971 83.5052 37.8079C83.5052 18.6149 28.5949 16.8228 23.7185 12.6026ZM49.6587 57.579C45.7634 59.9203 41.1755 62.8975 36.5011 67.32C36.3568 67.4645 36.1837 67.5223 36.0105 67.5223C35.8085 67.5223 35.6354 67.4356 35.4911 67.2911C35.2026 67.002 35.2315 66.5396 35.52 66.2794C40.281 61.7413 44.9555 58.7063 48.9374 56.3361C49.2836 56.1337 49.7165 56.2493 49.9184 56.5962C50.1204 56.9431 50.005 57.3766 49.6587 57.579ZM30.4993 21.2163C30.4127 21.5343 30.1242 21.7655 29.8068 21.7655C29.7491 21.7655 29.6914 21.7655 29.6337 21.7366C21.9583 19.8578 16.5914 18.0657 13.7348 16.447C13.3885 16.2447 13.2731 15.8111 13.4751 15.4642C13.6771 15.1174 14.1099 15.0018 14.4561 15.2041C17.1685 16.7361 22.5354 18.5282 29.9799 20.3492C30.355 20.4359 30.5859 20.8117 30.4993 21.2163ZM60.0464 28.2692C59.931 28.5583 59.6713 28.7317 59.3828 28.7317C59.2962 28.7317 59.2096 28.7317 59.1231 28.6739C53.785 26.5638 47.5524 25.2342 43.253 24.4537C42.8491 24.3959 42.5894 24.0201 42.6759 23.6155C42.7337 23.2108 43.1088 22.9507 43.5127 23.0374C47.8698 23.8178 54.2178 25.1763 59.6713 27.3153C60.0176 27.4888 60.2195 27.8934 60.0464 28.2692ZM69.857 40.4383C68.1834 44.3115 65.6153 47.3755 61.4891 50.3527C61.3449 50.4394 61.2006 50.4972 61.0563 50.4972C60.8255 50.4972 60.6235 50.4105 60.4792 50.2082C60.2484 49.8902 60.3061 49.4277 60.6524 49.1965C64.5477 46.3638 66.9715 43.5022 68.5297 39.889C68.8759 39.1086 69.049 38.3282 69.049 37.5766C69.049 37.2587 69.0202 36.9407 68.9625 36.6228C68.8759 36.2181 69.1356 35.8423 69.5396 35.7556C69.9147 35.6689 70.3186 35.9291 70.4052 36.3048C70.4918 36.7095 70.5206 37.1431 70.5206 37.5766C70.4918 38.5016 70.2898 39.4844 69.857 40.4383Z" transform="translate(52.1567 38.2778)" fill="url(#paint1_linear)"/>
<path d="M68.068 5.78102H2.88546C1.29846 5.78102 1.76114e-06 4.48029 1.76114e-06 2.89051C1.76114e-06 1.30073 1.29846 1.76423e-06 2.88546 1.76423e-06H68.068C69.655 1.76423e-06 70.9534 1.30073 70.9534 2.89051C70.9534 4.48029 69.655 5.78102 68.068 5.78102Z" transform="translate(42 125.658)" fill="white"/>
<path d="M23.8916 3.46861H1.73128C0.779076 3.46861 1.76114e-06 2.68818 1.76114e-06 1.73431C1.76114e-06 0.780438 0.779076 0 1.73128 0H23.8916C24.8438 0 25.6229 0.780438 25.6229 1.73431C25.6229 2.68818 24.8438 3.46861 23.8916 3.46861Z" transform="translate(65.2279 34)" fill="white"/>
<defs>
<linearGradient id="paint0_linear" x2="1" gradientUnits="userSpaceOnUse" gradientTransform="translate(176) scale(176) rotate(90)">
<stop stop-color="#C8102E"/>
<stop offset="1" stop-color="#C71E1E" stop-opacity="0.2"/>
</linearGradient>
<linearGradient id="paint1_linear" x2="1" gradientUnits="userSpaceOnUse" gradientTransform="translate(-27.9907 88.5862) scale(139.223 139.467) rotate(-89.6772)">
<stop stop-color="white"/>
<stop offset="1" stop-color="white" stop-opacity="0"/>
</linearGradient>
</defs>
</svg>
