<svg width="176" height="176" viewBox="0 0 176 176" fill="none" xmlns="http://www.w3.org/2000/svg">
<circle cx="88" cy="88" r="88" fill="url(#paint0_linear)"/>
<path d="M54.5354 6.81265H46.5084V6.25304C46.5084 2.79805 43.7529 0 40.3504 0H23.9131C20.5107 0 17.7552 2.79805 17.7552 6.25304V6.81265H9.46462C4.24111 6.81265 0 11.0949 0 16.399V90.3893C0 95.6934 4.24111 100 9.46462 100H54.5354C59.7589 100 64 95.6934 64 90.3893V16.399C63.976 11.0949 59.7589 6.81265 54.5354 6.81265ZM47.9701 48.8564L24.2486 82.944C23.985 83.3333 23.362 83.0414 23.5058 82.5791L29.0408 61.4842C29.1127 61.2165 28.921 60.9489 28.6335 60.9489H16.4852C16.1737 60.9489 15.982 60.6083 16.1018 60.3406L33.3538 23.8443C33.5695 23.4063 34.2404 23.6253 34.1445 24.1119L30.0472 47.6642C29.9993 47.9319 30.1909 48.1752 30.4545 48.1752H47.6106C47.9701 48.1752 48.1857 48.5645 47.9701 48.8564Z" transform="translate(56 38)" fill="white" stroke="white" stroke-miterlimit="10"/>
<defs>
<linearGradient id="paint0_linear" x2="1" gradientUnits="userSpaceOnUse" gradientTransform="translate(176) scale(176) rotate(90)">
<stop stop-color="#C8102E"/>
<stop offset="1" stop-color="#C71E1E" stop-opacity="0.2"/>
</linearGradient>
</defs>
</svg>
