<svg width="176" height="176" viewBox="0 0 176 176" fill="none" xmlns="http://www.w3.org/2000/svg">
<circle cx="88" cy="88" r="88" fill="url(#paint0_linear)"/>
<path d="M11.5736 23.1426C17.9656 23.1426 23.1472 17.9619 23.1472 11.5713C23.1472 5.18064 17.9656 0 11.5736 0C5.18169 0 0 5.18064 0 11.5713C0 17.9619 5.18169 23.1426 11.5736 23.1426Z" transform="translate(34.7561 93.6743)" fill="white"/>
<path d="M11.5736 23.1426C17.9656 23.1426 23.1472 17.9619 23.1472 11.5713C23.1472 5.18064 17.9656 0 11.5736 0C5.18168 0 3.80807e-06 5.18064 3.80807e-06 11.5713C3.80807e-06 17.9619 5.18168 23.1426 11.5736 23.1426Z" transform="translate(114.118 93.6743)" fill="white"/>
<path d="M16.0975 14.9086H2.77692C-0.311454 12.4758 -0.904174 8.95137 1.40431 5.42696C2.18421 4.21058 7.3315 2.15207 13.8202 1.90365e-06C13.0403 1.74661 12.5724 3.68035 12.5724 5.70767C12.5724 9.23207 13.9138 12.4758 16.0975 14.9086Z" transform="translate(20 99.8188)" fill="white"/>
<path d="M58.1801 23.4857C58.1801 27.166 59.6151 30.5033 61.9548 32.9672H2.9324C5.1161 30.5345 6.45752 27.2908 6.45752 23.7664C6.45752 18.8384 3.86827 14.5343 0 12.1015C4.99132 10.7292 8.98438 9.7623 10.5442 9.48159C10.7937 9.45041 10.9809 9.41921 11.1057 9.41921C13.6637 9.38802 12.4783 12.6005 16.6585 13.4426C20.8076 14.2536 32.35 13.2555 32.35 13.2555C32.35 13.2555 33.6914 6.2067 36.9358 6.2067C36.9358 6.2067 36.5614 3.80731e-06 37.8716 3.80731e-06C39.1507 3.80731e-06 49.2581 8.38996 49.2581 8.38996L51.629 8.95137L64.3568 12.0703C60.6133 14.5031 58.1801 18.7137 58.1801 23.4857Z" transform="translate(53.6919 81.7603)" fill="white"/>
<path d="M17.0017 1.90365e-06V22.7371H9.70188C9.70188 22.6435 9.70188 22.5188 9.70188 22.4252C9.70188 16.2185 5.61523 11.0099 -1.90404e-06 9.26326V4.55366C-1.90404e-06 2.05851 2.02772 0.0311933 4.52338 0.0311933H17.0017V1.90365e-06Z" transform="translate(129.778 82.8203)" fill="white"/>
<path d="M56.5579 17.0294C56.9634 9.1697 24.1767 1.90365e-06 24.1767 1.90365e-06H8.98438C8.98438 1.90365e-06 37.778 8.95137 36.7798 17.1854C36.2807 21.1776 18.0311 31.3454 9.67068 37.6145C4.64817 41.3884 1.68457 48.8115 9.52019e-07 54.5503C0.249567 54.5192 0.592719 54.488 0.686306 54.488C3.24436 54.4568 2.74523 58.0748 6.92546 58.8857C11.0745 59.6966 20.6204 58.605 20.6204 58.605C20.6204 58.605 21.837 52.0552 25.0814 52.0552C25.0814 52.0552 25.2374 44.8504 26.5164 44.8504C27.7954 44.8504 38.9323 53.6147 38.9323 53.6147L41.0536 54.4568C40.8352 51.0259 40.9288 46.1916 41.9895 42.2929C46.2009 27.166 56.0588 26.1056 56.5579 17.0294ZM30.0415 36.1798C28.2322 38.0199 26.3916 39.9225 24.3951 42.0434C24.2391 42.1993 24.0519 42.2929 23.8336 42.2929C23.6464 42.2929 23.4592 42.2305 23.3032 42.0746C22.9913 41.7627 22.9913 41.2948 23.272 40.9829C25.2686 38.8932 27.1403 36.9595 28.9185 35.1193C29.2304 34.8074 29.6983 34.8074 30.0103 35.1193C30.3223 35.3688 30.3223 35.8679 30.0415 36.1798ZM33.941 7.36071C33.5666 7.17357 33.3794 6.70573 33.5666 6.33146C33.7538 5.95718 34.2217 5.77005 34.5961 5.95718C37.4037 7.29833 39.837 8.60829 41.8335 9.82468C42.2078 10.043 42.3326 10.5108 42.0831 10.8851C41.9271 11.1346 41.6775 11.2594 41.428 11.2594C41.272 11.2594 41.1472 11.2282 41.0224 11.1346C39.0883 9.94944 36.6862 8.70186 33.941 7.36071ZM39.6186 26.6046C39.4626 26.7605 39.2754 26.8229 39.0883 26.8229C38.8699 26.8229 38.6827 26.7294 38.5267 26.5734C38.2148 26.2615 38.246 25.7625 38.5579 25.4818C40.3049 23.7664 42.3326 21.8014 44.2044 19.7117C44.4851 19.3998 44.9843 19.3687 45.2962 19.6494C45.6082 19.9301 45.6394 20.4291 45.3586 20.741C43.4245 22.8619 41.3967 24.858 39.6186 26.6046Z" transform="translate(64.2361 34.7886)" fill="url(#paint1_linear)"/>
<defs>
<linearGradient id="paint0_linear" x2="1" gradientUnits="userSpaceOnUse" gradientTransform="translate(176) scale(176) rotate(90)">
<stop stop-color="#C8102E"/>
<stop offset="1" stop-color="#C71E1E" stop-opacity="0.2"/>
</linearGradient>
<linearGradient id="paint1_linear" x2="1" gradientUnits="userSpaceOnUse" gradientTransform="translate(-1.06309 59.347) scale(59.2198 59.2079) rotate(-90.6646)">
<stop stop-color="white"/>
<stop offset="0.8805" stop-color="white" stop-opacity="0.1195"/>
<stop offset="1" stop-color="white" stop-opacity="0"/>
</linearGradient>
</defs>
</svg>
