<svg xmlns="http://www.w3.org/2000/svg" viewBox="0 0 768.93 135.2"><defs><style>.a{fill:#231f20;}</style></defs><title>FS_East_2016_logo_CMYK_Wht_BK_Sld</title><path class="a" d="M433.56,14.27c-.38,0-.82-.37-1.32-1.13h.38a1.25,1.25,0,0,1,.75.28,7.55,7.55,0,0,1,.75.66,5.33,5.33,0,0,1,1.13-.94,14.52,14.52,0,0,1,1.5-.56,56.46,56.46,0,0,0-11.45-1.13H413.66q-3.94,0-8.07.09t-8.26.09a5.31,5.31,0,0,1-2.16-.37,4.35,4.35,0,0,0-1.78-.38q-2.82,0-5.63.28t-5.45.47a6.52,6.52,0,0,1-2.07-.37,6.6,6.6,0,0,0-2.07-.38,12.86,12.86,0,0,0-2.07.19,13.59,13.59,0,0,1-2.25.19A17.62,17.62,0,0,0,375,17.84a17.08,17.08,0,0,1,1.13,6.38,5.94,5.94,0,0,1-.09.94,6.59,6.59,0,0,0-.09,1.13q-2.25,22-3.94,43Q371.41,77,370.66,86a78.24,78.24,0,0,1-3.38,17.28,21.66,21.66,0,0,0,.28,2.16q.28,1.79.75,3.94a32.07,32.07,0,0,0,1.22,4.22,8.16,8.16,0,0,0,1.69,3,14.08,14.08,0,0,0,.47,2.72q.47,2,1.13,4.13a27.58,27.58,0,0,0,1.41,3.76c.5,1.07.94,1.6,1.31,1.6h.38a155.41,155.41,0,0,1,22.63-5.63q11.17-1.88,23.19-3.57a2,2,0,0,0-1.5-.56,25.1,25.1,0,0,1-3.66.47,25.81,25.81,0,0,0-3.66.47q-1.32,0-1.69-.56a11.21,11.21,0,0,1,3.1-.19q2.91,0,6.67-.28t7.32-.84q3.56-.56,4.69-1.69a15.18,15.18,0,0,0-1.88-.75q1.31-.37,2.63-.66a12.49,12.49,0,0,1,2.63-.28,8.94,8.94,0,0,1,1.22.09,8.31,8.31,0,0,0,1.22.09,4.44,4.44,0,0,0,1.78-.47q1-.47,1.78-.85a4.28,4.28,0,0,0,.75.66,5.6,5.6,0,0,0,.94.28A1.33,1.33,0,0,0,444,114c-.06-.12,0-.31.28-.56a3.9,3.9,0,0,0,3,1.5,5.6,5.6,0,0,0,2.35-.47,6.13,6.13,0,0,1,2.54-.47q1.5,0,3.19.09c1.13.06,2.25.09,3.38.09a.9.9,0,0,0,.66-.28,2.5,2.5,0,0,1,.66-.47.56.56,0,0,1,.38.19,2.05,2.05,0,0,0,.56.38,1.49,1.49,0,0,1,1.69-.94,2,2,0,0,0,1.88-.56c-.5-.12-.94-.22-1.31-.28s-.82-.16-1.31-.28a4.45,4.45,0,0,1,2.63-1,5.09,5.09,0,0,0,3-1.41,3,3,0,0,0-1.32-.38,2.09,2.09,0,0,0-.66.09,2,2,0,0,1-.66.09,6,6,0,0,1-1.5-.38,9.65,9.65,0,0,1,3-.56c0-.5-.44-.75-1.31-.75a11.2,11.2,0,0,1-1.88.38h-6.57A13.82,13.82,0,0,1,451,107a9,9,0,0,1,2.07-.19q2.25,0,4.41.09t4.41.09q6.38,0,6.38-2.07a7.8,7.8,0,0,0-.94-2.44,2.16,2.16,0,0,0,.75-1.5q0-.75-1.13-1.69a3.82,3.82,0,0,0,.75-2.07,3.19,3.19,0,0,0-.75-1.6,2.12,2.12,0,0,0-1.69-1,22.37,22.37,0,0,0-2.91.19,21.72,21.72,0,0,1-2.91.19q-7.51,0-14.93-.56t-15.11-.56a222.58,222.58,0,0,0-23.57,1.31,179,179,0,0,0-23.75,4.13,2.09,2.09,0,0,1-.94.19q-.75,0-.75-1.69a42.53,42.53,0,0,1,.28-4.88q.28-2.44.47-4.88V85a25.43,25.43,0,0,0-.19-3.1,14.43,14.43,0,0,1,.56-3.76q2.82.38,5.26.66a44.34,44.34,0,0,0,5.07.28,80.43,80.43,0,0,0,16.71-1.88q8.82-1.88,17.27-3.57a2.85,2.85,0,0,0,1.13-.38h-1.32a17.77,17.77,0,0,0-3.1.28,17.82,17.82,0,0,1-3.1.28,5.66,5.66,0,0,1-1.69-.19q4.88-1.31,9.86-2.16t9.86-2a3.37,3.37,0,0,0-1.69-.56A4.44,4.44,0,0,0,435,69a5.1,5.1,0,0,1-1,.09,2.08,2.08,0,0,1-.94-.19l2.63-1.5,2.63-1.5a1.71,1.71,0,0,1,.75.19,1.13,1.13,0,0,0-.75.75,8.85,8.85,0,0,0,2.07.19,5.26,5.26,0,0,0,3.38-1.78,5.27,5.27,0,0,1,3.38-1.78q-.38-1.5-1.6-1.31a2,2,0,0,1-2-.75,10.84,10.84,0,0,1,1.31-1.5,40.13,40.13,0,0,0-6.2.66,39.22,39.22,0,0,1-5.82.66,1.15,1.15,0,0,1-.94-.47,1.61,1.61,0,0,0-1.32-.47c-.63,0-1.6,0-2.91.09a12.1,12.1,0,0,0-3.1.47c.12,0-.07-.12-.56-.37q6-1.5,10.8-2.25A36.76,36.76,0,0,0,445,54.83a9,9,0,0,0-2.82-.28q-1.32.1-2.82.09a5.16,5.16,0,0,0-1,.47,2,2,0,0,1-1,.28,2.08,2.08,0,0,1-.94-.19q.38-1.87.84-2t2-.47a3.88,3.88,0,0,0-2.54-.56,2.39,2.39,0,0,1-2.16-.75,1.73,1.73,0,0,1,1.88-1.13h.38a1.91,1.91,0,0,0,1.41-.47,7.43,7.43,0,0,0,1-1.41,38.4,38.4,0,0,1-4.88.75q-2.25.19-4.7.19a.74.74,0,0,1,.66-.85,4.61,4.61,0,0,0,1.41-.47,2.11,2.11,0,0,0-.94-.19,75,75,0,0,0-9.11.56q-4.6.56-9.11,1.32-7.14,1.13-13.9,2.16t-13.9,1.78c-1,0-1.6-.12-1.78-.38a3.77,3.77,0,0,1-.28-1.88q.18-3,.19-5.82t.19-5.82A4.48,4.48,0,0,0,383,39a4.15,4.15,0,0,1-.09-.85,3.42,3.42,0,0,1,.38-2.07,4.65,4.65,0,0,1,1.88-.75,130.22,130.22,0,0,0,14.74-.84,130.19,130.19,0,0,1,14.74-.85q5.82,0,11.92.19t11.92.19q6,0,11.92-.56t11.92-.56a53.62,53.62,0,0,1,6.95.47,53,53,0,0,0,6.95.47q2.82,0,2.82-1.31a45.62,45.62,0,0,0-.37-5.35,30.37,30.37,0,0,0-1.32-5.92,16.44,16.44,0,0,0-2.44-4.79,4.4,4.4,0,0,0-3.57-2,2.9,2.9,0,0,0-1.31.28,3.4,3.4,0,0,1-1.5.28c-.63,0-1.32,0-2.07-.09s-1.5-.09-2.25-.09a8.66,8.66,0,0,1-1.69.19,8.86,8.86,0,0,0-1.69.19q5.82.56,8.36.94a7.52,7.52,0,0,1,3.66,1.31c-1.38,0-2.44,0-3.19-.09s-1.63-.09-2.63-.09a29.24,29.24,0,0,0-4.6.38,28.8,28.8,0,0,1-4.6.38,3.87,3.87,0,0,1-.94-.09,3.14,3.14,0,0,0-.75-.09,32.88,32.88,0,0,0-3.57.19,34.05,34.05,0,0,1-3.76.19q-.94,0-3.1.09t-4.51.09a28.73,28.73,0,0,1-4.22-.28q-1.88-.28-2.25-.85,5.25-.37,10.33-.84t10.14-.85a3.35,3.35,0,0,0-1.5-.38q-2.63,0-5.45.28t-5.45.66h-.94a1.51,1.51,0,0,1-1.13-.75q.94-.18,1.6-.28a13.4,13.4,0,0,0,1.41-.28,20.21,20.21,0,0,0-5.16-.09,7.42,7.42,0,0,1-4.41-.66.76.76,0,0,1-.56.19Zm-24-.28a3.44,3.44,0,0,0-.94.28,2.67,2.67,0,0,1-.94-.09,6,6,0,0,1-.94-.85,3.25,3.25,0,0,1,1.31-.19,7.65,7.65,0,0,1,2.63.56,1.22,1.22,0,0,0,.28-.47c.06-.19.15-.28.28-.28q.94,0,2,.09t2.16.28a1.51,1.51,0,0,1-1.13.75c-.5,0-1.1,0-1.78-.09a18.27,18.27,0,0,1-2-.28,3.31,3.31,0,0,1-.94.28Zm-5.45,7.32q-1.69.28-3.94.47l-4.51.38q-2.25.19-3.57.19a3.87,3.87,0,0,1-.94-.09,2.65,2.65,0,0,0-.56-.09,3.07,3.07,0,0,1,2.25-.94h.75a14.59,14.59,0,0,0,3.19-.38,14.81,14.81,0,0,1,3.19-.37q1.5,0,3.19.09c1.13.06,2.19.16,3.19.28a17.71,17.71,0,0,1-2.25.47ZM441.64,107a16.22,16.22,0,0,1-3-.28,8.9,8.9,0,0,1-2.25-.66c.63,0,1.32,0,2.07-.09s1.44-.09,2.07-.09a20.12,20.12,0,0,1,4.88.56,9,9,0,0,1-3.76.56Zm-41-94a31.15,31.15,0,0,0,4.22-.09,3.09,3.09,0,0,1-2.25,1.31,2,2,0,0,1-.66-.09,2.13,2.13,0,0,0-.66-.09,4.22,4.22,0,0,0-1.32.19,3.52,3.52,0,0,1-1.13.19,2.54,2.54,0,0,1-1.88-.75,7.41,7.41,0,0,1,3.66-.66Zm-6.85.47a4.56,4.56,0,0,1,1.22.19c.44.13.91.25,1.41.38a3.37,3.37,0,0,1-1.69.56,4,4,0,0,1-1.6-.28,4.05,4.05,0,0,0-1.6-.28,5,5,0,0,1,2.25-.56Zm32.39,102.62q-1,.1-2.16.28a10.48,10.48,0,0,1,1.32-.56,4.21,4.21,0,0,1,1.31-.19,6.19,6.19,0,0,1,1.5.38q-.94,0-2,.09Zm7-10a10.19,10.19,0,0,1-2.25.38,5.89,5.89,0,0,1-1.69-.37ZM411.12,21.31a5.34,5.34,0,0,0-1-.09c.5-.5.81-.75.94-.75a4.18,4.18,0,0,1,1.13.56l-.19.38h0a4.21,4.21,0,0,1-.85-.09Zm42.34-.85a.75.75,0,0,1-.75-.38,3.28,3.28,0,0,1,.94-.37,2.91,2.91,0,0,1,1.13.38,7.65,7.65,0,0,1-1.31.38Zm-39.53.28A.39.39,0,0,1,414,21c0,.13-.13.19-.37.19a.53.53,0,0,1-.38-.19l.56-.56h0a.37.37,0,0,0,.09.28ZM428.4,69.38q.28-.09.28.28a1.54,1.54,0,0,0-.66-.19c-.19,0-.28-.12-.28-.38.25.25.47.35.66.28ZM408.59,119.8c-.13-.12.19-.19.94-.19l-.19.38h0a1.08,1.08,0,0,1-.75-.19Zm22.63-51.17a.38.38,0,0,1,.28-.09l.19.38c-.25,0-.38.06-.38.19l-.37-.37h0a.38.38,0,0,0,.28-.09Zm15.68,37.84c.12,0,.31.13.56.38h-.38c-.13,0-.19-.12-.19-.38Zm53.7-82.81a3.21,3.21,0,0,0-.19,1.31,7.74,7.74,0,0,0,.85,3.29,7.47,7.47,0,0,1,.84,3.1,6.77,6.77,0,0,1-1,2.82q-1,1.88-2.35,4t-2.82,4.32a30.41,30.41,0,0,0-2.25,3.66q-.38.75-1.69,3.57t-3,5.91a58.19,58.19,0,0,1-3.47,5.63q-1.79,2.54-3.1,2.54a1.07,1.07,0,0,1-.37-.75,16.37,16.37,0,0,1,1.6-3.38,5.8,5.8,0,0,0,1-2.82,2.67,2.67,0,0,0-.19-1.13,5,5,0,0,0,1.31-.94,2,2,0,0,0,.56-1.5V53a1.8,1.8,0,0,1,1.13-1.69,1.94,1.94,0,0,0,1.13-1.88v-.56a8.1,8.1,0,0,1,2-5.35,7.41,7.41,0,0,0,2-4.79v-.75a7.31,7.31,0,0,1-1.88,1.41,2,2,0,0,0-.94,2,11.78,11.78,0,0,1-1,2,4.42,4.42,0,0,1-2.16,2.16,10.16,10.16,0,0,0-1.88,3.75q-.94,2.82-2.44,3.57l-.37-.19q1.5-3,3.1-5.91a30.79,30.79,0,0,0,2.53-6.1c-.75-.12-1.25-.22-1.5-.28s-.38-.19-.38-.38a4.11,4.11,0,0,0-.09-.75,7.8,7.8,0,0,0-.66-1.6,4.19,4.19,0,0,0-.56,1.13v.56q0,.94-1.5,2.25t-1.88,1.31h-.38a2.08,2.08,0,0,0-1.69,1.13q-9,16.71-16.24,33.24t-14.18,34.17q-.94,2.25-2.35,5.54a14.16,14.16,0,0,0-1.41,4.79q0,.38,2.25,2.54t5.26,4.6q3,2.44,5.91,4.41t4.23,2a4,4,0,0,0,3.1-1.69,23.61,23.61,0,0,0,2.72-4.23q1.31-2.54,2.44-5.35t2.07-4.88a40.2,40.2,0,0,0,1.69-4.6q1.13-3.47,2.53-7.14t2.72-6.57q1.31-2.91,2.25-2.91h.94a25.34,25.34,0,0,0,8.45,2q5.25.47,9.2.47,8.45,0,16.9-.28t16.9-.66a1.69,1.69,0,0,1,.47-.19,1.63,1.63,0,0,0,.47-.19,2.3,2.3,0,0,0-.38-.56,2,2,0,0,1-.37-.56,1.67,1.67,0,0,1,.75-.47,3.61,3.61,0,0,0,.75-.28,1.81,1.81,0,0,1-.47-.66,1.92,1.92,0,0,0-.47-.66,6.21,6.21,0,0,1,2.16.56,4.17,4.17,0,0,1,1.13.94,12.59,12.59,0,0,1,.94,1.32,5.27,5.27,0,0,0,1.6,1.5,4.42,4.42,0,0,1,.94-.56,21.52,21.52,0,0,1,1.5,3.94,6.7,6.7,0,0,0,2.06,3.38,12,12,0,0,1,3.29,5.26,27,27,0,0,0,3.1,6.38l1.41,2.82q1,2.07,2.44,4.32a22.16,22.16,0,0,0,3.1,3.94,4.74,4.74,0,0,0,3.19,1.69.78.78,0,0,0,.19-.56q-5.07-15.77-10.89-31a6,6,0,0,1-.38-1.5c0-1,0-1.94.09-2.82s.09-1.81.09-2.82a4.25,4.25,0,0,1-1.13-.75,4.37,4.37,0,0,1,.75-1.13q-2.44-1.69-4.6-6.29A88.24,88.24,0,0,1,542.47,76Q538,62.91,532.23,49.76T521.44,23.1a56.13,56.13,0,0,1-2.35-7.7,17,17,0,0,0-4.23-7.51,3.61,3.61,0,0,1-2.25,2.35,7.7,7.7,0,0,0-2.82,2,9.16,9.16,0,0,1-2.35,2q-1.41.85-2.82,1.6a9.87,9.87,0,0,0-2.35,1.69,2.87,2.87,0,0,0-.94,2.07v.94a1.69,1.69,0,0,1-1.13,1.5h0a16.07,16.07,0,0,1,.38,1.69ZM529,85.81q.84-.18,2.35-.56a3.06,3.06,0,0,0,.19.94,3.16,3.16,0,0,1,.19.94q0,.75-1.69.94-1.13,0-3.38-.19a14.16,14.16,0,0,1-3.76-.75,4.22,4.22,0,0,1,2-.28A2,2,0,0,0,526.7,86a9.7,9.7,0,0,1-.56-1.31c.5.13.75.31.75.56a.84.84,0,0,1-.09.38.82.82,0,0,0-.09.38,11.33,11.33,0,0,0,2.35-.19Zm-39.53-12.2.38-.75q1.69-3.57,3.38-6.95T496.65,59A7,7,0,0,0,494,62.25a9.81,9.81,0,0,1-2.25,3.47,2.93,2.93,0,0,0,.47-1.13,2.85,2.85,0,0,1,.47-1.13,33.77,33.77,0,0,1,4.41-8.92,37.75,37.75,0,0,0,4.6-9.11.54.54,0,0,1-.38-.19q-.38.38-1.69,1.5c-.88.75-1.31,1.38-1.31,1.88v.75a2,2,0,0,1-.28,1,5.13,5.13,0,0,0-.47,1,5.16,5.16,0,0,1-1-.09,5.33,5.33,0,0,0-1-.09q1.31-2.63,2.54-4.79a30.8,30.8,0,0,0,2.16-4.79.53.53,0,0,1-.38-.19,5.33,5.33,0,0,0-1.31,1.6q-.75,1.22-1.41,2.53A16.84,16.84,0,0,1,495.71,48a2,2,0,0,1-1.5,1,35.48,35.48,0,0,1,1.41-3.76q1-2.44,2.25-4.88a50.15,50.15,0,0,1,2.53-4.51,18.34,18.34,0,0,1,2.25-3q.75,1.5,1.41,2.63l1.41,2.44H506q1.5,0,2,1.78a4.18,4.18,0,0,0,2.35,2.72q1.13,2.44,1.78,3.94a25.33,25.33,0,0,0,1.5,2.91,5.56,5.56,0,0,0,1.78,2,3.85,3.85,0,0,0,.28-.75,3.63,3.63,0,0,1,.28-.75q5.25,12,9.76,24.6a9.19,9.19,0,0,1-2.91.94,21.87,21.87,0,0,1-2.91.19q-5.82,0-11.74-.09t-11.74-.28a6,6,0,0,0-.94.09,5.63,5.63,0,0,1-.94.09c-1.38,0-2.19-.12-2.44-.38a3.58,3.58,0,0,1-.56-1.88,7.11,7.11,0,0,0-1.31,1.88h0a2,2,0,0,1-.75-1.31Zm34.74,4.13a2.32,2.32,0,0,1-1.69-.75,5.89,5.89,0,0,1-2.07.75c-.25,0-.56-.38-.94-1.13q1.31-.18,2.44-.37a13.83,13.83,0,0,1,2.25-.19c.38,0,.75.44,1.13,1.31a1.52,1.52,0,0,1-1.13.38Zm.94-8.45q.75,2.25,1.69,4.69l-.38.19q-.94-2.44-1.78-4.69t-1.6-4.69h.38q.94,2.25,1.69,4.51ZM494,49.38a3,3,0,0,1-.66,2.16l-1.22,1.22A5.18,5.18,0,0,1,494,49.38ZM481.07,67l-.38-1.13c0-.5.44-.81,1.32-.94h0a4.06,4.06,0,0,1-.94,2.07Zm47.22,14.74a5.33,5.33,0,0,0-1-.09,1.54,1.54,0,0,1,.94-.56q1.13,0,1.13.94a9.57,9.57,0,0,0-1-.28ZM484,43.85a1.65,1.65,0,0,1-.47.84c-.25-.75-.38-1.06-.38-.94,0-.38.44-.62,1.31-.75a1.63,1.63,0,0,0-.47.85Zm11.17,8.73a2.07,2.07,0,0,1,.75,1.32c0,.5-.31.75-.94.75a9,9,0,0,0,.19-2.07Zm-15.3,5.16a.39.39,0,0,1,.09.28.9.9,0,0,1-.28.66l-.66.66V59a1.79,1.79,0,0,1,.75-1.5.38.38,0,0,0,.09.28Zm1.78-3.66c-.25.63-.5,1.31-.75,2.07a.76.76,0,0,1-.56-.19,2.18,2.18,0,0,1,1.31-1.88Zm48.07,29.1.19-.19c.12,0,.19,0,.19-.09s.06-.09.19-.09l.56.56a3.28,3.28,0,0,1-.38.94h0l-.75-1.13ZM484.63,41.87c-.13-.12-.19-.22-.19-.28s-.06-.15-.19-.28a.38.38,0,0,0,.28-.09.38.38,0,0,1,.28-.09l.38.38h0c-.25.25-.44.38-.56.38Zm47.23,54.74a.73.73,0,0,1-.47.09.17.17,0,0,1-.19-.19l-.19-.37c.75,0,1.13.13,1.13.38h0a.38.38,0,0,0-.28.09Zm-4-12.86c.63,0,.94.06.94.19-.63,0-.94-.06-.94-.19ZM488.39,72.86l.38-.75a.53.53,0,0,0,.38.19,2.94,2.94,0,0,1-.56.75.17.17,0,0,0-.19-.19Zm44.5,14.37a1.74,1.74,0,0,0-.19-.47c.25,0,.5.25.75.75a.55.55,0,0,0-.38.19,1.59,1.59,0,0,1-.19-.47Zm-9-5.16a.37.37,0,0,1-.28-.09.39.39,0,0,0-.28-.09.55.55,0,0,1,.19-.38.55.55,0,0,1,.38.19v.38Zm-4.69-4.13c0,.13,0,.19-.09.19s-.09.07-.09.19-.19-.25-.19-.75h0l.38.38Zm-40.75-6.39a.54.54,0,0,0,.19-.37.55.55,0,0,1,.38.19c0,.13,0,.19-.09.19s-.09.07-.09.19a.53.53,0,0,1-.37-.19Zm12.39-16.15c0-.38.06-.56.19-.56a.77.77,0,0,1-.19.56Zm108.06.38a4.26,4.26,0,0,1,.84.94c-.37-.12-.82-.25-1.31-.37s-.75-.31-.75-.56a1.09,1.09,0,0,1,.19-.75c-.13,0-.19-.12-.19-.37a.33.33,0,0,0-.38.38.33.33,0,0,1-.37.38c-.38,0-.56-.12-.56-.38q-2.07-.94-5.73-2.54t-7.79-3.1q-4.13-1.5-8-2.63a23.49,23.49,0,0,0-6.29-1.13,6,6,0,0,0-1.69.38c0-.62-.16-1-.47-1.13a1.17,1.17,0,0,1-.66-.56,5,5,0,0,1-2.25.94,3.35,3.35,0,0,1-2.07-.94,8,8,0,0,1,1.32-.37,24.12,24.12,0,0,1-3.19-1.31c-1-.37-2-.72-2.91-1a9.2,9.2,0,0,0-2.91-.47.89.89,0,0,0-.94.75c-1-.37-2.25-.81-3.76-1.31s-2.38-1.25-2.63-2.25a49.2,49.2,0,0,1,18.31-11.64,63.52,63.52,0,0,1,21.69-3.75,96.1,96.1,0,0,1,12.77.94,89.62,89.62,0,0,1,13.8,3,83.68,83.68,0,0,1,13.24,5.26,48.53,48.53,0,0,1,11.27,7.7c0-.25.06-.38.19-.38a5.07,5.07,0,0,1,2.44,2.07,14.37,14.37,0,0,0,2.82,3.19,3,3,0,0,1,.09-.75,3.1,3.1,0,0,0,.09-.75v-.37q.75-4.69,1.22-9.29t.85-9.48c.12-.38.28-.94.47-1.69a7.87,7.87,0,0,0,.28-1.5,3.22,3.22,0,0,0-.56-1.5,31.65,31.65,0,0,0-7.6-7.89,53.8,53.8,0,0,0-16.71-8.07q-4-1.13-7-2.25a2.71,2.71,0,0,0,.85,1.69,8.42,8.42,0,0,1,1.22,1.31l-5.63-2.25a1.27,1.27,0,0,1-.94.38,1.64,1.64,0,0,1-.75-.19A5.69,5.69,0,0,0,606,1.13q-2.16-.37-4.79-.66T595.89.09Q593.17,0,591.29,0l7.6,1.13a53.44,53.44,0,0,1,7.6,1.69,1.53,1.53,0,0,1-.94.56,12.7,12.7,0,0,0,1.69.56,4.25,4.25,0,0,1,1.32.56A27.3,27.3,0,0,1,603,3.94a26.35,26.35,0,0,0-5.35-.56,6.24,6.24,0,0,0-2,.28,5.06,5.06,0,0,1-1.6.28,4.77,4.77,0,0,1-1.69-.28,4.78,4.78,0,0,0-1.69-.28,2.68,2.68,0,0,0-1.5.38,2,2,0,0,1-1.13.38,3.11,3.11,0,0,1-1.22-.28,3.12,3.12,0,0,0-1.22-.28,1.69,1.69,0,0,0-1.5,1.13,11.33,11.33,0,0,0,1.6-.09,11.57,11.57,0,0,1,1.6-.09,37.81,37.81,0,0,1,9.2,1.13c-.5,0-1.41.06-2.72.19s-2.63.22-3.94.28-2.47.16-3.47.28-1.5.25-1.5.38c.63,0,1.28,0,2-.09s1.34-.09,2-.09a12.59,12.59,0,0,1,4.32.75h-4.32q-2.07,0-4.13-.19-1.51,0-1.41-.47c.06-.31-.16-.47-.66-.47a6,6,0,0,0-.94.09,6.69,6.69,0,0,1-1.13.09A.76.76,0,0,1,580,6.2a.78.78,0,0,0-.56-.19,1.27,1.27,0,0,0-.94.38l-.94.94q1.13-.19,2.25-.28t2.44-.28v.56l-5.82.75q-3,.38-6,.94a42.67,42.67,0,0,0-6,1.6,25.39,25.39,0,0,0-5.82,2.91q2.82-.94,5.63-1.6t5.63-1.6q0,1.5-.66,1.41a2.4,2.4,0,0,0-1.41.28A65.1,65.1,0,0,0,554,17.28a31.1,31.1,0,0,0-8.92,6.95,23.24,23.24,0,0,0-4.79,9A42.05,42.05,0,0,0,538.9,44.5a25,25,0,0,0,.28,4.32,6.23,6.23,0,0,0,.94,2.44,11.52,11.52,0,0,0,1.69,1.88q1,.94,2.72,2.44a28.68,28.68,0,0,0,6.85,3.75A82.35,82.35,0,0,0,559.27,62l8.07,2.25q4,1.13,7.42,2.44Q578.71,68,584.62,70t12.21,5a73,73,0,0,1,12,7,39.41,39.41,0,0,1,9.48,9.58,4.38,4.38,0,0,1-.56,1.13,5.5,5.5,0,0,1-.75.56,26.75,26.75,0,0,1-6.95,6.1,49.23,49.23,0,0,1-9.48,4.6A61.5,61.5,0,0,1,590,106.84a60.69,60.69,0,0,1-10.33.94,38,38,0,0,1-8-.75,32.2,32.2,0,0,1-6.57-2.16,33.17,33.17,0,0,1-5.91-3.47q-2.82-2.06-6-4.69a50.28,50.28,0,0,1-4.69-5.44A26.25,26.25,0,0,0,543.22,86v3.47a34.77,34.77,0,0,0,.19,3.47q0-.19-.09,1.69a29,29,0,0,0,2.07,11.55,18,18,0,0,0,4.6,6.67q6,6,11.08,10.33a56.53,56.53,0,0,0,12,7.7,5.66,5.66,0,0,0,.28-.66,4,4,0,0,1,.47-.85q.18,2.06,2.53,2.25c1.56.12,2.85.19,3.85.19a17,17,0,0,0,2.54-.19,15.33,15.33,0,0,1,2.35-.19,2.3,2.3,0,0,1,1.31.38,2.32,2.32,0,0,0,1.32.38,20.85,20.85,0,0,0,4.69-.56,32.66,32.66,0,0,1,4.88-.75,18.58,18.58,0,0,0,5.91-1.69,12.27,12.27,0,0,1,5.35-1.31,5.78,5.78,0,0,1,1.69.19,2.86,2.86,0,0,0,1.13-.38q8.26-4.13,12.49-10.14A21.54,21.54,0,0,0,628.09,105c0-.87,0-1.69-.09-2.44s-.16-1.56-.28-2.44a139.14,139.14,0,0,1-1.88-14.36,52.42,52.42,0,0,0-1.5-10,23.23,23.23,0,0,0-3.94-8q-2.82-3.75-9.58-8.64a18.51,18.51,0,0,0-6-3.29,13.33,13.33,0,0,1-5.07-2.72c0,.13,0,.19-.09.19s-.09.06-.09.19q2.25,1.5,4.6,2.82t4.6,2.82c0,.13,0,.19-.09.19s-.09.07-.09.19a9.55,9.55,0,0,0-4.51-2.25,33.55,33.55,0,0,1-6.2-2.25c.38.25.72.5,1,.75Zm-14-47.13q2.06,0,4.41-.09t4.41-.09c-.25.63-.6,1-1,1a8.34,8.34,0,0,1-1.22.09H587a1.91,1.91,0,0,1,1.41-.47,1.9,1.9,0,0,0,1.41-.47Zm-12,2.25a5,5,0,0,0-1.88.38,2.64,2.64,0,0,1,1.78-.94,4.77,4.77,0,0,0,1.78-.38,2.15,2.15,0,0,1-1.69.94Zm22.72-3.1a1,1,0,0,1-.94-.28,6.63,6.63,0,0,1,2.07.38,2.35,2.35,0,0,0-1.13-.09Zm15.59,53.42c0,.13,0,.19-.09.19s-.09.06-.09.19a7.36,7.36,0,0,1-1.13-.94c0-.12,0-.19.09-.19s.09-.06.09-.19a5.13,5.13,0,0,0,1.13.94Zm-11.83-55c.5,0,.75.07.75.19-.5,0-.75-.06-.75-.19Zm-44.6,12c.06,0,.09.07.09.19h-.56l.38-.37c0,.13,0,.19.09.19Zm147.59-10q-7.79.56-14.93,1.5h-2.07a29.46,29.46,0,0,0-3.19.19q-1.69.19-3.1.47a2.37,2.37,0,0,0-1.78,1,5,5,0,0,0-2.25-.56,7,7,0,0,0-2.53.47,6.51,6.51,0,0,1-2.35.47,11.62,11.62,0,0,1-1.5-.09,12.47,12.47,0,0,0-1.5-.09,20.23,20.23,0,0,0-2.82.19,28.27,28.27,0,0,0-2.82.56h-1.13c-.38,0-.82-.31-1.31-.94q13.52-1.69,25.72-2.82t24.79-3.19a1.51,1.51,0,0,0-.19-.94l1.6-.38q.84-.18.84-.56l-9,1.13c0,.25.5.5,1.5.75a2.33,2.33,0,0,1-1.69.75,2,2,0,0,1-1.5-.56c.12-.12.19-.22.19-.28s.06-.16.19-.28H700.2q-12.39,1.32-25,2.44l-25,2.25a1.27,1.27,0,0,1-.56-.09,1.33,1.33,0,0,0-.56-.09c.12-.38.78-.69,2-.94a33.37,33.37,0,0,1,4.13-.56q2.35-.19,4.88-.28t4-.09h1.69a4.58,4.58,0,0,0,3.38-1.31,3,3,0,0,1-.75-.09,3.13,3.13,0,0,0-.75-.09q-11.27,0-22.16.94t-21.78.94q-1.69,0-1.88,2.16c-.12,1.44-.19,2.66-.19,3.66q0,5.07.28,10.8t.84,11A1.52,1.52,0,0,0,624,37.09a9.94,9.94,0,0,0,2.63.66q1.5.19,3.29.28t2.91.09q7.89,0,15.59-.28T664,37.18a4.41,4.41,0,0,1,.84.09,5.17,5.17,0,0,0,1,.09q.18,6,.28,11.74t.09,11.55q0,10.33-.56,20.09.56-2.63.75-3.19a2.49,2.49,0,0,1,.94-1.13,10.63,10.63,0,0,1,.56,1.31,5,5,0,0,1,.19,1.5q-.19,2.07-.37,3.85a34.82,34.82,0,0,0-.19,3.66c0,1.13,0,2.35.09,3.66a17.78,17.78,0,0,0,.47,3.47q.37-2.63.56-6.85a13.52,13.52,0,0,1,2.06-7q-.19,2.63-.28,5.35t-.09,5.35a82.26,82.26,0,0,0,.66,10A59.05,59.05,0,0,0,673.15,111l1.13-.38q-.19,1.51-.38,2.72t-.37,2.54q1.13,0,1.6-2.44a19.06,19.06,0,0,1,1-3.76,14.36,14.36,0,0,1-.84,5.07,37.21,37.21,0,0,0-1.41,4.7c.38.13.69.22.94.28s.56.16.94.28a1.08,1.08,0,0,0-.19.75,16.15,16.15,0,0,0,3.19,3.38,14.31,14.31,0,0,0,3.57,2.25,10.29,10.29,0,0,0,4.32.94,1.51,1.51,0,0,0,1.13-.75,28,28,0,0,0,5-10.42,72.82,72.82,0,0,0,1.6-11.92q.75-8.63,1.5-17.27t.75-17.27q0-6.2-.47-12t-.47-11.27q0-1.13-.19-3.29a25.8,25.8,0,0,1,0-4.41,21.33,21.33,0,0,1,.66-3.94,2.28,2.28,0,0,1,2-1.88q10.7-1.5,21.13-2.72t21.12-2.54q3.75-.37,7.42-.47a28.26,28.26,0,0,0,7.42-1.22,40.71,40.71,0,0,1,4.88-.66,19.69,19.69,0,0,0,6.2-1.6q-7.51.75-14.65,1.31L737.37,26.1a13.55,13.55,0,0,1,1.69-.56q.75-.19,1.69-.38,1.13,0,5.73-.56t9.67-1.22q5.07-.66,9-1.31t3.76-1l-7.23.75a61.45,61.45,0,0,1-6.67.38H753.8a3.8,3.8,0,0,1-1.22-.19,16.16,16.16,0,0,1,2.63-.28q1.87-.09,4-.28t4.22-.56a6.8,6.8,0,0,0,3.19-1.31A2.29,2.29,0,0,0,765,19q-1.69,0-3.38.09t-3.38.28h-6.1a31.94,31.94,0,0,0-3.47.19,7.81,7.81,0,0,0-2.44.56v-.37a3.14,3.14,0,0,1,.75.09,3,3,0,0,0,.75.09A14.86,14.86,0,0,1,754,18.5a42.07,42.07,0,0,0,6.67-.66q0-2.06-2.63-2t-4.88.09a26.85,26.85,0,0,0-4.6.38,26.71,26.71,0,0,1-4.6.38,2.35,2.35,0,0,1-2.06-1.13,2.6,2.6,0,0,0,1.13.19,4.31,4.31,0,0,0,2.25-.56,4.3,4.3,0,0,1,2.25-.56h1.31a.82.82,0,0,0,.38-.09.83.83,0,0,1,.38-.09.76.76,0,0,0-.75-.38,27,27,0,0,0-3.1.19,26.37,26.37,0,0,1-3.1.19h-3.76a108.88,108.88,0,0,0-15.68,1.22q-8.36,1.22-16.62,2.16l-2.63.47a13.86,13.86,0,0,1-2.44.28,5.29,5.29,0,0,1-1.78-.38,3.94,3.94,0,0,1-1.41-.75,8,8,0,0,1,1.31-.37c0-.25-.35-.38-1-.38H697q12-2.63,23.66-4t23.47-2.54a.39.39,0,0,0-.09-.28.38.38,0,0,1-.09-.28q-2.44.19-4.69.47a39.44,39.44,0,0,1-4.88.28h-1.6a8.27,8.27,0,0,1-1.6-.19,3.17,3.17,0,0,1,1.41-.37c.44,0,.78-.31,1-.94q-4.89.75-7.7.94t-3.57.94a5.26,5.26,0,0,1,2-.38h3.85a8.91,8.91,0,0,1,1.69.19l-3.66.75a17.65,17.65,0,0,1-3.66.38,7.63,7.63,0,0,1-1.41-.09q-.47-.09-1-1.22-2.25.38-4.6.56l-4.6.38q.18-.37,2.25-.75t4.51-.66q2.44-.28,4.6-.56a5.77,5.77,0,0,0,2.53-.66L721,9l-3.76.38a10,10,0,0,0-1.41.09,1.67,1.67,0,0,1-1.22-.28,19.78,19.78,0,0,1-5.35,1.13q-2.72.19-5.54.56a2.6,2.6,0,0,1-1.13-.19,4.36,4.36,0,0,1,.75-1.13l-2.25.56a1.62,1.62,0,0,1,.28.38,1,1,0,0,0,.47.38H700.2a4,4,0,0,0,.94-.75q-1.13,0-2.25.09a6.22,6.22,0,0,0-2.25.66,2.32,2.32,0,0,0,1,.19c.44,0,.66.19.66.56a14.51,14.51,0,0,0-2.35-.56,13.83,13.83,0,0,1-2.35-.56q1.13-.18,4.79-.66t7.79-.94q4.13-.47,7.51-1t3.94-1.13h0q-7.51.94-15.3,1.5Zm1.78,3.94L704,12a8.16,8.16,0,0,0,1.78-.19,6.59,6.59,0,0,1,1.22-.19h1.13a10.41,10.41,0,0,1-2.07.19,11.1,11.1,0,0,1-1.88.38Zm-36.8,30a14.78,14.78,0,0,1-.19-2.44V38.59a3.15,3.15,0,0,1,.38-1.41,10.61,10.61,0,0,1,.56,3.38,14.31,14.31,0,0,1-.56,4.13,15,15,0,0,0-.19-2.44ZM730.61,26.1a9.05,9.05,0,0,1,2.07.19,5.59,5.59,0,0,1-3.19.56,9.07,9.07,0,0,0-3.19.19,11.23,11.23,0,0,1,4.32-.94ZM699.35,12.86q-1.22.1-2.72.28,0-.38,1.88-.66a20.89,20.89,0,0,1,2.63-.28c.63,0,.94.13.94.38q-1.51.19-2.72.28ZM678.79,38.31a5.68,5.68,0,0,1,.19-1.69,2.68,2.68,0,0,1,.38,1.5,8.15,8.15,0,0,1-.09,1.31,7.85,7.85,0,0,0-.09,1.31,10.43,10.43,0,0,1-.37-2.44Zm-8.45-.56a1.62,1.62,0,0,1,.75-1.31,1.54,1.54,0,0,1,.38,1.13,2.16,2.16,0,0,1-.75,1.5,7.62,7.62,0,0,1-.37-1.31Zm66.47-21.22c-.13,0-.19-.12-.19-.38A5.91,5.91,0,0,1,738,16a8.23,8.23,0,0,0,1.6-.19v.56a15.49,15.49,0,0,1-2.82.19ZM673.15,39.81a1.54,1.54,0,0,1-.56-.94c0-.25.25-.56.75-.94a6.56,6.56,0,0,0-.19,1.88Zm17.46-32.3c0-.37.22-.59.66-.66a13.45,13.45,0,0,0,1.41-.28v.38q-.56.19-2.07.56Zm30,19.62c.25-.06.56-.16.94-.28-.5.5-.88.75-1.13.75a.79.79,0,0,1-.37-.09,1.34,1.34,0,0,0-.56-.09l1.13-.28ZM676.91,41.22c0,.44-.13.66-.38.66v-1a1.17,1.17,0,0,1,.38-.84v1.22Zm49.1-24a.37.37,0,0,1-.09-.28c0-.12.12-.19.38-.19h.19a.33.33,0,0,1,.38.38.84.84,0,0,1-.09.38.82.82,0,0,0-.09.38c-.13-.12-.22-.19-.28-.19s-.16-.06-.28-.19a.39.39,0,0,0-.09-.28Zm6.85-.28c0-.37.25-.56.75-.56a.55.55,0,0,1,.19.38,2.08,2.08,0,0,1-.94.19Zm-4.13.66a.45.45,0,0,1-.56-.28c.12-.12.22-.19.28-.19s.15-.06.28-.19c.5,0,.75.19.75.56a3.14,3.14,0,0,0-.75.09Zm-24.22,2.82c0,.06-.07.09-.19.09l-.38-.38a.73.73,0,0,0,.47-.09.38.38,0,0,1,.28-.09v.38h0c-.13,0-.19,0-.19.09Zm6.95-8.17.19.19c-.5,0-.75-.19-.75-.56.25.25.44.38.56.38Zm45.07,4.88c.12,0,.19,0,.19-.09s.12-.09.38-.09a.55.55,0,0,1-.19.38.53.53,0,0,1-.38-.19Zm-50.89-3.76.19-.37.38.19h0a.77.77,0,0,1-.56.19Z"/><path class="a" d="M144.85,75.22h2.84v38.63c0,10.26-9.43,15.63-18.75,15.63s-18.67-5.37-18.67-15.63V75.22h2.84v38.63c0,8.83,8.21,12.85,15.83,12.85s15.91-4,15.91-12.85ZM41.79,100C31.21,97.84,26.49,94,27,87.77,27.6,78,38.12,77.26,41.33,77.26c4.91,0,11.17,1.77,14,6.72l.22.38,2.63-1-.28-.5c-3-5.38-8.91-8.34-16.56-8.34-8.34,0-16.9,4.09-17.21,13.24-.44,10,8.36,13.23,17,15.05,8,1.76,15.7,4.23,15.07,13.17-1.06,7.94-8.64,10.76-14.81,10.76-6.36,0-12-2.69-15.12-7.2l-.24-.34-2.61,1.15.32.5c3.56,5.44,10.1,8.68,17.49,8.68,8.19,0,17.3-4.21,17.94-13.45C60,105,49.64,101.58,41.79,100ZM64.34,78.08H81.63v50.66h2.84V78.08h17.29V75.22H64.34ZM298.1,75.22v2.86h17.29v50.66h2.84V78.08h17.29V75.22Zm-11.72,49.44-29.91-49.2-.15-.24h-3.64v53.52h2.91l.07-48.85,29.62,48.85h3.94V75.22h-2.84Zm-76.55,4.08h31.85v-2.86h-29V103.59h26.81v-3H212.66V78.08h29V75.22H209.82Zm-13.2-38.92v24.4c0,9.09-6.43,14.52-17.21,14.52h-18V75.22h18C190.19,75.22,196.62,80.67,196.62,89.81ZM179.42,78.08H164.24v47.8h15.17c4.32,0,14.37-1.14,14.37-11.66V89.81C193.78,79.22,183.73,78.08,179.42,78.08Z"/><path class="a" d="M13.21,21.34H36V8.93H0V60.62H13.21V42.8H33.15V30.61H13.21V21.34ZM42.27,43.61c0,11.83,10.73,17.74,21.46,17.74s21.39-5.91,21.39-17.74V25.94C85.13,14.11,74.39,8.2,63.66,8.2S42.27,14,42.27,25.94V43.61ZM55.34,25.94c0-3.8,4.09-5.84,8.18-5.84s8.54,1.83,8.54,5.84V43.61c0,3.72-4.16,5.62-8.32,5.62s-8.4-1.82-8.4-5.62V25.94ZM121,60.62h16.28L123.23,42.88c6.28-2,10.15-7.37,10.15-16.94-.29-12.12-8.54-17-19.2-17H93.52V60.62h13.21V44.19h2.34l12,16.43ZM106.73,32.95V21.12h7.67a5.92,5.92,0,1,1,0,11.83Zm35.41,27.67h13.07V45.72l-.88-10.44.36-.07L161.63,53h9l6.79-17.74.44.07L177,45.72,177,60.62h13.14V8.93H177l-11,25.26L155.21,8.93H142.14V60.62ZM212.67,8.93H199.45V43.31c-.07,24.24,41.18,24.24,41.25,0V8.93H227.49V43.31c-.07,8.32-14.82,8.32-14.82,0V8.93ZM249.9,60.62h34.17V47.69H263V8.93H249.9V60.62ZM316.11,8.93h-11.9l-18,51.69h14l3.21-10.37h13.8l3.36,10.37h14L316.11,8.93Zm-9.78,29.71,3.8-15.11h.36l3.58,15.11Z"/></svg>