<svg width="176" height="176" viewBox="0 0 176 176" fill="none" xmlns="http://www.w3.org/2000/svg">
<circle cx="88" cy="88" r="88" fill="url(#paint0_linear)"/>
<path d="M44.6592 1.76347e-06V31.493H1.73949e-06C2.87849 29.6149 4.95897 26.5812 5.55747 23.0274H14.3924V1.76347e-06H44.6592Z" transform="translate(53.6592 73.4844) scale(-1 1)" fill="url(#paint1_linear)"/>
<path d="M10.5734 21.4383C16.413 21.4383 21.1469 16.6392 21.1469 10.7192C21.1469 4.79913 16.413 0 10.5734 0C4.73389 0 0 4.79913 0 10.7192C0 16.6392 4.73389 21.4383 10.5734 21.4383Z" transform="translate(143.519 83.5396) scale(-1 1)" fill="white"/>
<path d="M10.5734 21.4383C16.413 21.4383 21.1469 16.6392 21.1469 10.7192C21.1469 4.79913 16.413 0 10.5734 0C4.73389 0 3.47898e-06 4.79913 3.47898e-06 10.7192C3.47898e-06 16.6392 4.73389 21.4383 10.5734 21.4383Z" transform="translate(71.0156 83.5396) scale(-1 1)" fill="white"/>
<path d="M14.7064 13.8107H2.53695C-0.284538 11.557 -0.826036 8.29218 1.28295 5.02731C1.99545 3.9005 6.69792 1.99359 12.6259 1.76347e-06C11.9134 1.61799 11.4859 3.40933 11.4859 5.28735C11.4859 8.55221 12.7114 11.557 14.7064 13.8107Z" transform="translate(157 89.2314) scale(-1 1)" fill="white"/>
<path d="M53.1807 21.7561C53.1807 25.1655 54.4917 28.2281 56.6292 30.5395H2.67898C4.67397 28.2859 5.89947 25.281 5.89947 22.0162C5.89947 17.4511 3.53398 13.464 0 11.2103C5.30097 9.73681 9.37645 8.75446 10.1174 8.72557C12.4544 8.69667 11.3714 11.6726 15.1904 12.4527C18.9809 13.2039 29.5258 12.2794 29.5258 12.2794C29.5258 12.2794 30.7513 5.74963 33.7153 5.74963C33.7153 5.74963 33.3733 3.52693e-06 34.5703 3.52693e-06C35.7388 3.52693e-06 44.9727 7.77211 44.9727 7.77211L58.7667 11.1814C55.3752 13.4351 53.1807 17.3356 53.1807 21.7561Z" transform="translate(126.22 72.5024) scale(-1 1)" fill="white"/>
<path d="M15.5324 1.76346e-06V21.0627H8.86345C8.86345 20.976 8.86345 20.8605 8.86345 20.7738C8.86345 15.0242 5.12997 10.1991 -1.73949e-06 8.5811V4.21832C-1.73949e-06 1.90692 1.85249 0.0288961 4.13247 0.0288961H15.5324V1.76346e-06Z" transform="translate(56.7087 73.4844) scale(-1 1)" fill="white"/>
<defs>
<linearGradient id="paint0_linear" x2="1" gradientUnits="userSpaceOnUse" gradientTransform="translate(176) scale(176) rotate(90)">
<stop stop-color="#C8102E"/>
<stop offset="1" stop-color="#C71E1E" stop-opacity="0.2"/>
</linearGradient>
<linearGradient id="paint1_linear" x2="1" gradientUnits="userSpaceOnUse" gradientTransform="translate(0.00769496 -6.87971) scale(44.6392 45.2544)">
<stop stop-color="white"/>
<stop offset="1" stop-color="white" stop-opacity="0"/>
</linearGradient>
</defs>
</svg>
