<svg xmlns="http://www.w3.org/2000/svg" viewBox="0 0 203.06 46.34"><defs><style>.a{fill:#fff;}.b{fill:#d1d3d4;}.c{fill:#004990;}.d{fill:#231f20;}</style></defs><title>MEVA-HU_1_Pantone</title><rect class="a" width="203.06" height="46.34"/><rect class="b" x="50.18" y="32.17" width="150.62" height="11.84"/><path class="c" d="M2.87,33.91A3,3,0,0,1,3,31.68a4.87,4.87,0,0,1,2.89-3.35,2.25,2.25,0,0,1,2,.4,1.76,1.76,0,0,1,.66,1.56,4.05,4.05,0,0,1-.08.88,5.18,5.18,0,0,1,2.61-2c1.44-.28,1.88.46,2,.62a2,2,0,0,1,.32.8,4.72,4.72,0,0,1,.06.67,5.46,5.46,0,0,1,2.5-2c1.32-.3,1.87.13,2.17.56s.34,1.13,0,2.4l-2.31,9.28a.76.76,0,0,0,.08.46c.14.2.34.46,1,.14a6.17,6.17,0,0,0,2.37-2.49,8.07,8.07,0,0,1,2-2.48,3.15,3.15,0,0,1,2.29-.76,1.71,1.71,0,0,1,1.53,1,1.6,1.6,0,0,1-.17,1.37,2.7,2.7,0,0,1-.59.72,3.48,3.48,0,0,1-1.11.66,4.53,4.53,0,0,1-1.86.4,3,3,0,0,1-.69,0s-.16,1.61,1,2.16c.82.4,2-.2,2.71-.88a7.81,7.81,0,0,0,1.91-3.26,10.12,10.12,0,0,0,.51-1.74l1.16-.28c.22-.06.31-.1.5,0s.22.25.13.51c0,0-.44,1.56-.73,2.74A11.18,11.18,0,0,0,27.39,42a.67.67,0,0,0,.76.55,2.52,2.52,0,0,0,1.69-.94,4.46,4.46,0,0,0,.85-3.4,3.72,3.72,0,0,0-.3-1.06l1.41-.44c.18-.06.27,0,.33,0s.16.27.33.48a1.08,1.08,0,0,0,.66.46c.26,0,.36.15,1.86-.73a3.46,3.46,0,0,1,2.66-.67,1.91,1.91,0,0,1,1.18.77,3.38,3.38,0,0,1,.14-.47c.16-.35.57-.35.88-.35h.93L39.5,41.44a.76.76,0,0,0,.21.68.88.88,0,0,0,.91.09A2.93,2.93,0,0,0,42.17,41a6.31,6.31,0,0,0,1.36-3.31c.06-1.75-.81-2-1.12-2.19a7.89,7.89,0,0,0-2.34-.25H22.84s-1.56-.15-2-.84a1.82,1.82,0,0,1-.16-1.76,3,3,0,0,1,.39-.73,1.45,1.45,0,0,0,.45,1.42c.67.53,2,.36,2.65.35l6.81,0H41.85a3.59,3.59,0,0,1,2.36.92,3.3,3.3,0,0,1,.95,2.66,7.5,7.5,0,0,1-3.91,5.85c-2.81,1.36-3.45.21-3.61-.17a1.07,1.07,0,0,1-.09-.84,5.22,5.22,0,0,1-1.18,1.11,2.38,2.38,0,0,1-2.59.27c-1.11-.62-1.06-1.92-.79-2.94a7.17,7.17,0,0,1,1-2,.92.92,0,0,0-.63.12,4,4,0,0,1-.76.29,1.58,1.58,0,0,1-.7,0,.34.34,0,0,1-.22-.11,16.86,16.86,0,0,1-.56,2.24,4,4,0,0,1-2.55,2.53,2.9,2.9,0,0,1-2.87-.55A1.24,1.24,0,0,1,25.18,42a7,7,0,0,1-2.78,1.62A2.74,2.74,0,0,1,19.8,43,2.79,2.79,0,0,1,19,41.52a11.39,11.39,0,0,1-1.38,1.26,4.91,4.91,0,0,1-2.26.94,1.45,1.45,0,0,1-1.48-.63c-.16-.3-.25-.49,0-1.63s2.43-9.83,2.43-9.83a2.67,2.67,0,0,0,.06-.57.57.57,0,0,0-.61-.48c-.47,0-1.35.43-2.35,2a6.12,6.12,0,0,0-.51,1.24l-2.57,9.92h-2l3-12a2.09,2.09,0,0,0,0-.72.59.59,0,0,0-.43-.41c-.18-.05-.87,0-1.69.81A4.58,4.58,0,0,0,8,33.49c-.2.57-2.62,10.24-2.62,10.24h-2L6.67,30.55a1.25,1.25,0,0,0-.21-1.08,1,1,0,0,0-1.19-.11c-.19.09-.77.44-1,1.71a3.67,3.67,0,0,0-.08,1.13,6.23,6.23,0,0,0,.09.64,2,2,0,0,1,.08,1,.7.7,0,0,1-.67.55.73.73,0,0,1-.46-.09A.88.88,0,0,1,2.87,33.91Zm35.72,3.91a1.15,1.15,0,0,0-1-.69,1.8,1.8,0,0,0-1.39.43A5.29,5.29,0,0,0,34.7,40.2,2,2,0,0,0,34.75,42a1.1,1.1,0,0,0,.94.59,2,2,0,0,0,1.47-.88,5.26,5.26,0,0,0,.77-1.53l.29-.92Zm-17.82,2s0,.07.49,0a3.27,3.27,0,0,0,1.57-.51A1.69,1.69,0,0,0,23.76,38a.69.69,0,0,0-.66-.78,2.26,2.26,0,0,0-1.36.65,3.75,3.75,0,0,0-.81,1.27A3,3,0,0,0,20.77,39.81Z"/><circle class="c" cx="23.89" cy="18.32" r="8.49"/><path class="c" d="M15.88,25.87a4.5,4.5,0,0,1-2.76-1,4.48,4.48,0,0,1-.07-.8,4.53,4.53,0,0,1,1.09-2.89,9.07,9.07,0,0,0-3.73,5.28A9.06,9.06,0,0,0,17,25.75,4.6,4.6,0,0,1,15.88,25.87Z"/><path class="c" d="M13.15,20.76a4.48,4.48,0,0,1-1.89-2.23,4.6,4.6,0,0,1,.35-.73,4.51,4.51,0,0,1,2.39-2,9,9,0,0,0-5.88,2.68,9,9,0,0,0,6,2.68A4.5,4.5,0,0,1,13.15,20.76Z"/><path class="c" d="M13.36,15a4.48,4.48,0,0,1-.48-2.89,4.42,4.42,0,0,1,.67-.45,4.5,4.5,0,0,1,3-.45,9,9,0,0,0-6.42-.71,9.14,9.14,0,0,0,.88,2.23A9,9,0,0,0,14,15.85,4.47,4.47,0,0,1,13.36,15Z"/><path class="c" d="M16.49,10.09a4.5,4.5,0,0,1,1-2.74,4.71,4.71,0,0,1,.81,0,4.49,4.49,0,0,1,2.86,1.14A9,9,0,0,0,16,4.61a9,9,0,0,0,.6,6.57A4.49,4.49,0,0,1,16.49,10.09Z"/><path class="c" d="M31.86,25.87a4.5,4.5,0,0,0,2.76-1,4.37,4.37,0,0,0,.07-.8,4.5,4.5,0,0,0-1.08-2.89,9,9,0,0,1,3.72,5.28,9.07,9.07,0,0,1-2.38.31,9,9,0,0,1-4.18-1A4.64,4.64,0,0,0,31.86,25.87Z"/><path class="c" d="M34.61,20.76a4.49,4.49,0,0,0,1.89-2.23,4.36,4.36,0,0,0-.35-.73,4.49,4.49,0,0,0-2.39-1.95,9,9,0,0,1,5.88,2.67,9,9,0,0,1-6,2.68A4.56,4.56,0,0,0,34.61,20.76Z"/><path class="c" d="M34.4,15a4.5,4.5,0,0,0,.48-2.89,4.51,4.51,0,0,0-3.72-.9,9,9,0,0,1,6.42-.7,9.05,9.05,0,0,1-3.82,5.39A4.43,4.43,0,0,0,34.4,15Z"/><path class="c" d="M31.25,10.08a4.47,4.47,0,0,0-1-2.74,4.34,4.34,0,0,0-.81,0,4.49,4.49,0,0,0-2.86,1.14A9,9,0,0,1,31.74,4.6a9,9,0,0,1-.59,6.57A4.43,4.43,0,0,0,31.25,10.08Z"/><path class="c" d="M21.62,7.5a4.49,4.49,0,0,1,2.25-1.88,4.53,4.53,0,0,1,2.69,2.81,9.2,9.2,0,0,0-2.67-5.94,9,9,0,0,0-1.48,1.89,8.7,8.7,0,0,0-1.22,4.06A4,4,0,0,1,21.62,7.5Z"/><path class="c" d="M65.08,26.61H61.29l-7-20h-.09l.35,20H50.33V2.75h6.78l6,17.72h.12L69.1,2.75H76V26.61H71.8L72.15,6.5H72Z"/><path class="c" d="M85.17,12.61H95.48v3.75H85.17V22.7h11v3.91H80.94V2.75H96V6.66H85.17Z"/><path class="c" d="M118.41,2.75l-7.11,23.86h-6.37l-7-23.86h4.32l5.87,20h.09l5.87-20Z"/><path class="c" d="M122.68,22.09l-1.38,4.52h-4.37l7.31-23.86h6.22l7.46,23.86h-4.29l-1.44-4.52Zm4.79-15.84h-.06l-3.76,12.38h7.61Z"/><path class="c" d="M151.59,16.3v3.05h-7.81V16.3Z"/><path class="c" d="M177.87,26.74h-4.23V16.56H163.39V26.74h-4.23V2.87h4.23v9.77h10.25V2.87h4.23Z"/><path class="c" d="M200.64,2.87v17c0,6.65-3.85,7.1-9.19,7.1-5.17,0-9.13-.41-9.13-7.1v-17h4.23v17c0,2.45.82,3.18,4.91,3.18,3.91,0,5-.61,5-3.18v-17Z"/><path class="d" d="M58.69,41.2h-.63V36.35c0-.24,0-.48,0-.73h0c0,.09-.05.15-.08.23s0,.1-.12.34l-1.91,5h-.64l-1.9-5c-.08-.19-.14-.37-.21-.56h0c0,.23,0,.45,0,.66V41.2h-.63V35.14h1.09l1.49,3.93.24.63.23.64h0c.15-.42.31-.85.47-1.26l1.49-3.93h1.11Z"/><path class="d" d="M62.91,37.79h2.84v.57H62.91v2.26h3v.59H62.28V35.14h3.59v.59h-3Z"/><path class="d" d="M75.55,41.2h-.63V36.35c0-.24,0-.48,0-.73h0c0,.09,0,.15-.08.23s0,.1-.13.34l-1.91,5h-.64l-1.91-5c-.08-.19-.14-.37-.21-.56h0c0,.23,0,.45,0,.66V41.2h-.63V35.14h1.09L72,39.07l.24.63.24.64h0c.15-.42.31-.85.47-1.26l1.49-3.93h1.11Z"/><path class="d" d="M79.36,35.14h2.48c.71,0,.92,0,1.15.18s.51.64.51,1.44-.17,1.06-.71,1.27v0c.68.17.89.53.89,1.45A1.67,1.67,0,0,1,83.13,41a2.13,2.13,0,0,1-1,.23H79.36Zm2.29,2.67c.53,0,.71,0,.89-.14s.33-.38.33-.95-.08-.76-.32-.9a1.51,1.51,0,0,0-.73-.09H80v2.08Zm-.32,2.8a3.28,3.28,0,0,0,1.36-.12c.25-.12.35-.37.35-.94s-.08-.85-.29-1-.29-.15-1.13-.15H80v2.21Z"/><path class="d" d="M87.69,37.79h2.84v.57H87.69v2.26h3v.59H87.06V35.14h3.59v.59h-3Z"/><path class="d" d="M94.2,35.14h2.66c1.2,0,1.64.47,1.64,1.75,0,1.1-.22,1.46-1,1.6h0c.6.05.89.44.89,1.17V41.2h-.63V39.82a1,1,0,0,0-.27-.86c-.19-.16-.34-.2-.79-.2H94.83V41.2H94.2Zm2.45,3c.92,0,1.22-.26,1.22-1.08A2,2,0,0,0,97.71,36c-.13-.2-.4-.3-.85-.3h-2v2.45Z"/><path class="d" d="M110.57,35.27c.48.22.73.66.82,1.45a8.64,8.64,0,0,1,0,1.19,9.53,9.53,0,0,1-.1,2.09,1.33,1.33,0,0,1-.75,1.06,3.2,3.2,0,0,1-1.46.2,3.48,3.48,0,0,1-1.61-.2,1.36,1.36,0,0,1-.75-1.06,9.47,9.47,0,0,1-.1-2.08,4.2,4.2,0,0,1,.28-2.08,1.34,1.34,0,0,1,1-.7,7.75,7.75,0,0,1,1.12-.06A3.41,3.41,0,0,1,110.57,35.27Zm-3,.68a2.26,2.26,0,0,0-.29,1.44c0,2.4,0,2.4.15,2.77s.44.52,1.58.52,1.3-.05,1.49-.29a2.26,2.26,0,0,0,.29-1.44c0-2.39,0-2.39-.15-2.77s-.45-.52-1.58-.52S107.78,35.72,107.58,36Z"/><path class="d" d="M115.52,37.84h2.73v.57h-2.73V41.2h-.63V35.14h3.43v.59h-2.8Z"/><path class="d" d="M132.71,41.2h-.63V36.35c0-.24,0-.48,0-.73h0c0,.09-.05.15-.08.23s0,.1-.12.34l-1.91,5h-.64l-1.91-5c-.07-.19-.14-.37-.21-.56h0c0,.23,0,.45,0,.66V41.2h-.63V35.14h1.09l1.49,3.93.23.63.24.64h0c.15-.42.31-.85.47-1.26l1.48-3.93h1.11Z"/><path class="d" d="M136.93,37.79h2.84v.57h-2.84v2.26h3v.59H136.3V35.14h3.59v.59h-3Z"/><path class="d" d="M147.75,35.14l-2,6.06h-.91l-2-6.06h.67L145,39.72c.06.2.13.4.18.61a2.27,2.27,0,0,1,.1.33h0c.09-.34.15-.53.28-.93l1.47-4.59Z"/><path class="d" d="M150.86,39.92l-.43,1.28h-.67l2-6.06h.89l2.09,6.06h-.66l-.44-1.28Zm1.4-4.23L151,39.37h2.47Z"/><path class="d" d="M167.35,38.19c0,.25,0,.28,0,.65a3.51,3.51,0,0,1-.21,1.75c-.28.54-.7.67-2.06.67a3.45,3.45,0,0,1-1.48-.19,1.28,1.28,0,0,1-.81-1,5.64,5.64,0,0,1-.08-1.33v-.89a4.6,4.6,0,0,1,.27-2,1.25,1.25,0,0,1,1-.71,6.58,6.58,0,0,1,1.06-.05c1.25,0,1.48,0,1.86.3a1.13,1.13,0,0,1,.42.74,5.63,5.63,0,0,1,0,.79h-.62c0-1.17-.1-1.24-1.78-1.24-1,0-1.28.11-1.44.48a5.54,5.54,0,0,0-.16,1.93c0,1.57,0,1.82.15,2.12s.52.48,1.69.48c1.43,0,1.54-.12,1.54-1.54,0-.06,0-.2,0-.35h-1.78v-.59Z"/><path class="d" d="M170.88,35.14h2.66c1.2,0,1.64.47,1.64,1.75,0,1.1-.22,1.46-1,1.6h0c.6.05.89.44.89,1.17V41.2h-.63V39.82a1,1,0,0,0-.27-.86c-.19-.16-.35-.2-.79-.2H171.5V41.2h-.63Zm2.45,3c.92,0,1.22-.26,1.22-1.08a2,2,0,0,0-.15-1.06c-.12-.2-.4-.3-.85-.3h-2v2.45Z"/><path class="d" d="M182.29,35.27c.48.22.73.66.82,1.45a8.5,8.5,0,0,1,0,1.19,9.47,9.47,0,0,1-.1,2.09,1.33,1.33,0,0,1-.75,1.06,3.21,3.21,0,0,1-1.46.2,3.49,3.49,0,0,1-1.61-.2,1.36,1.36,0,0,1-.75-1.06,9.28,9.28,0,0,1-.1-2.08,4.2,4.2,0,0,1,.28-2.08,1.34,1.34,0,0,1,1-.7,7.71,7.71,0,0,1,1.12-.06A3.4,3.4,0,0,1,182.29,35.27Zm-3,.68a2.26,2.26,0,0,0-.29,1.44c0,2.4,0,2.4.15,2.77s.44.52,1.58.52,1.3-.05,1.49-.29a2.25,2.25,0,0,0,.29-1.44c0-2.39,0-2.39-.15-2.77s-.45-.52-1.58-.52S179.5,35.72,179.31,36Z"/><path class="d" d="M191.05,35.14v4.25a2,2,0,0,1-.29,1.33c-.33.44-.74.55-2,.55a3.44,3.44,0,0,1-1.34-.15c-.64-.26-.83-.66-.83-1.73V35.14h.63v4.25a2,2,0,0,0,.12.89c.17.31.5.4,1.39.4,1.49,0,1.66-.14,1.66-1.29V35.14Z"/><path class="d" d="M194.85,35.14h2.34a2.51,2.51,0,0,1,1.18.14c.46.22.68.77.68,1.73s-.21,1.43-.68,1.66c-.26.14-.31.14-1.27.15h-1.62V41.2h-.63Zm2.12,3.1c1.24,0,1.44-.16,1.44-1.19,0-.79-.08-1.09-.35-1.22s-.23-.09-.9-.1h-1.7v2.51Z"/></svg>