<svg width="176" height="176" viewBox="0 0 176 176" fill="none" xmlns="http://www.w3.org/2000/svg">
<circle cx="88" cy="88" r="88" fill="url(#paint0_linear)"/>
<path d="M127.33 51.5338C122.53 58.5399 116.004 63.2859 107.678 65.094C96.7266 67.5047 86.8254 65.094 78.3495 57.6359C74.674 54.3965 71.2236 50.8558 67.6982 47.4657C67.3232 47.0891 66.9481 46.7877 66.4981 46.2604L52.3214 32.6249C48.946 29.3102 45.5706 25.9955 42.0452 22.8314C37.8447 19.0647 32.9692 18.1607 27.7186 20.1194C22.3929 22.2288 19.3926 26.2968 18.9425 32.0222C18.4925 37.6723 20.8177 42.2677 25.7683 44.9797C30.7939 47.7671 36.0445 47.6164 40.7701 44.2264C43.1704 42.4937 45.2706 40.309 47.3708 38.1996L50.5212 34.5836L64.7729 47.9931C63.1227 49.6504 61.3975 51.2325 59.7473 52.8145C57.272 55.1498 54.8717 57.6359 52.0964 59.6699C46.3957 64.0393 39.795 66.0733 32.5941 65.998C23.7431 65.9226 16.0172 62.7586 9.71646 56.4305C2.06557 48.7464 -1.23483 39.2543 0.415367 28.4815C2.4406 15.072 10.0915 5.95655 22.918 1.73783C34.5443 -2.02889 45.2706 0.381809 54.5717 8.44258C58.3221 11.682 61.7725 15.298 65.2979 18.688C65.673 19.0647 66.048 19.3661 66.4981 19.8181L80.2247 33.0016L90.7259 43.1717C94.2513 46.4111 98.4518 47.4657 103.027 46.5617C110.378 45.1304 115.029 38.3503 113.829 30.8922C112.178 20.0441 100.177 16.3527 92.2261 21.7014C90.5009 22.9068 89.0007 24.4888 87.4255 25.9955C85.5503 27.7282 83.6751 29.5362 81.7999 31.3442L68.1483 18.1607L78.4995 8.29191C83.375 3.84719 89.0757 1.28582 95.6015 0.457144C104.903 -0.748205 113.304 1.43649 120.654 7.31256C127.78 13.038 131.831 20.4961 132.806 29.6868C133.631 37.597 131.831 44.9797 127.33 51.5338Z" transform="translate(22 55)" fill="white"/>
<defs>
<linearGradient id="paint0_linear" x2="1" gradientUnits="userSpaceOnUse" gradientTransform="translate(176) scale(176) rotate(90)">
<stop stop-color="#C8102E"/>
<stop offset="1" stop-color="#C71E1E" stop-opacity="0.2"/>
</linearGradient>
</defs>
</svg>
