<svg width="176" height="176" viewBox="0 0 176 176" fill="none" xmlns="http://www.w3.org/2000/svg">
<circle cx="88" cy="88" r="88" fill="url(#paint0_linear)"/>
<mask id="path-2-inside-1" fill="white">
<path fill-rule="evenodd" clip-rule="evenodd" d="M0 2C0 0.895508 0.895447 0 2 0H81C82.1046 0 83 0.895508 83 2V66.0869C83 67.1914 82.1046 68.0869 81 68.0869H2C0.895447 68.0869 0 67.1914 0 66.0869V2ZM16.9772 52.9565V30.2607H28.2954V52.9565H16.9772ZM35.8408 15.1304V52.9565H47.159V15.1304H35.8408ZM54.7046 52.9565V22.6958H66.0228V52.9565H54.7046Z"/>
</mask>
<path fill-rule="evenodd" clip-rule="evenodd" d="M0 2C0 0.895508 0.895447 0 2 0H81C82.1046 0 83 0.895508 83 2V66.0869C83 67.1914 82.1046 68.0869 81 68.0869H2C0.895447 68.0869 0 67.1914 0 66.0869V2ZM16.9772 52.9565V30.2607H28.2954V52.9565H16.9772ZM35.8408 15.1304V52.9565H47.159V15.1304H35.8408ZM54.7046 52.9565V22.6958H66.0228V52.9565H54.7046Z" transform="translate(47 44)" fill="white"/>
<path d="M16.9772 30.2607V28.2607H14.9772V30.2607H16.9772ZM16.9772 52.9565H14.9772V54.9565H16.9772V52.9565ZM28.2954 30.2607H30.2954V28.2607H28.2954V30.2607ZM28.2954 52.9565V54.9565H30.2954V52.9565H28.2954ZM35.8408 52.9565H33.8408V54.9565H35.8408V52.9565ZM35.8408 15.1304V13.1304H33.8408V15.1304H35.8408ZM47.159 52.9565V54.9565H49.159V52.9565H47.159ZM47.159 15.1304H49.159V13.1304H47.159V15.1304ZM54.7046 22.6958V20.6958H52.7046V22.6958H54.7046ZM54.7046 52.9565H52.7046V54.9565H54.7046V52.9565ZM66.0228 22.6958H68.0228V20.6958H66.0228V22.6958ZM66.0228 52.9565V54.9565H68.0228V52.9565H66.0228ZM2 -2C-0.209162 -2 -2 -0.209022 -2 2H2V-2ZM81 -2H2V2H81V-2ZM85 2C85 -0.209022 83.2092 -2 81 -2V2H85ZM85 66.0869V2H81V66.0869H85ZM81 70.0869C83.2092 70.0869 85 68.2959 85 66.0869H81V70.0869ZM2 70.0869H81V66.0869H2V70.0869ZM-2 66.0869C-2 68.2959 -0.209162 70.0869 2 70.0869V66.0869H-2ZM-2 2V66.0869H2V2H-2ZM14.9772 30.2607V52.9565H18.9772V30.2607H14.9772ZM28.2954 28.2607H16.9772V32.2607H28.2954V28.2607ZM30.2954 52.9565V30.2607H26.2954V52.9565H30.2954ZM16.9772 54.9565H28.2954V50.9565H16.9772V54.9565ZM37.8408 52.9565V15.1304H33.8408V52.9565H37.8408ZM47.159 50.9565H35.8408V54.9565H47.159V50.9565ZM45.159 15.1304V52.9565H49.159V15.1304H45.159ZM35.8408 17.1304H47.159V13.1304H35.8408V17.1304ZM52.7046 22.6958V52.9565H56.7046V22.6958H52.7046ZM66.0228 20.6958H54.7046V24.6958H66.0228V20.6958ZM68.0228 52.9565V22.6958H64.0228V52.9565H68.0228ZM54.7046 54.9565H66.0228V50.9565H54.7046V54.9565Z" transform="translate(47 44)" fill="white" mask="url(#path-2-inside-1)"/>
<path d="M20.75 0L0 20.8043" transform="translate(60.2044 110.196)" stroke="white" stroke-width="7" stroke-linecap="round"/>
<path d="M0 0L20.75 20.8043" transform="translate(96.0456 110.196)" stroke="white" stroke-width="7" stroke-linecap="round"/>
<defs>
<linearGradient id="paint0_linear" x2="1" gradientUnits="userSpaceOnUse" gradientTransform="translate(176) scale(176) rotate(90)">
<stop stop-color="#7BAFD4"/>
<stop offset="1" stop-color="#7BAFD4" stop-opacity="0.2"/>
</linearGradient>
</defs>
</svg>
