<svg width="36" height="36" viewBox="0 0 36 36" version="1.1" xmlns="http://www.w3.org/2000/svg" xmlns:xlink="http://www.w3.org/1999/xlink">
<title>instagram</title>
<desc>Created using Figma</desc>
<g id="Canvas" transform="translate(-3141 2289)">
<g id="instagram">
<g id="Vector">
<use xlink:href="#path0_stroke" transform="translate(3142 -2288)" fill="#FEFEFE"/>
</g>
<g id="Vector">
<use xlink:href="#path1_stroke" transform="translate(3152.27 -2277.87)" fill="#FEFEFE"/>
</g>
</g>
</g>
<defs>
<path id="path0_stroke" d="M 8.5 1L 25.5 1L 25.5 -1L 8.5 -1L 8.5 1ZM 25.5 1C 29.6421 1 33 4.35786 33 8.5L 35 8.5C 35 3.25329 30.7467 -1 25.5 -1L 25.5 1ZM 33 8.5L 33 25.5L 35 25.5L 35 8.5L 33 8.5ZM 33 25.5C 33 29.6421 29.6421 33 25.5 33L 25.5 35C 30.7467 35 35 30.7467 35 25.5L 33 25.5ZM 25.5 33L 8.5 33L 8.5 35L 25.5 35L 25.5 33ZM 8.5 33C 4.35786 33 1 29.6421 1 25.5L -1 25.5C -1 30.7467 3.25329 35 8.5 35L 8.5 33ZM 1 25.5L 1 8.5L -1 8.5L -1 25.5L 1 25.5ZM 1 8.5C 1 4.35786 4.35786 1 8.5 1L 8.5 -1C 3.25329 -1 -1 3.25329 -1 8.5L 1 8.5Z"/>
<path id="path1_stroke" d="M 13.5265 5.80256L 12.5373 5.94924L 13.5265 5.80256ZM 7.79745 0.0735596L 7.65077 1.06274L 7.79745 0.0735596ZM 12.5373 5.94924C 12.7363 7.20813 12.546 8.3457 11.9482 9.47131L 13.7235 10.3925C 14.4431 8.97896 14.7362 7.22663 14.5156 5.65588L 12.5373 5.94924ZM 11.9482 9.47131C 11.3721 10.6082 10.5515 11.4187 9.40763 11.9808L 10.3068 13.7672C 11.7181 13.0432 12.9821 11.7947 13.7235 10.3925L 11.9482 9.47131ZM 9.40763 11.9808C 8.27472 12.5647 7.1349 12.7409 5.87856 12.5263L 5.56082 14.5009C 7.12873 14.7409 8.88454 14.4694 10.3068 13.7672L 9.40763 11.9808ZM 5.87856 12.5263C 4.61834 12.3359 3.59133 11.811 2.69879 10.9012L 1.28457 12.3154C 2.41476 13.4284 3.99679 14.2369 5.56082 14.5009L 5.87856 12.5263ZM 2.69879 10.9012C 1.78897 10.0087 1.26408 8.98167 1.07367 7.72145L -0.90093 8.03919C -0.636884 9.60322 0.171659 11.1852 1.28457 12.3154L 2.69879 10.9012ZM 1.07367 7.72145C 0.859135 6.46512 1.03535 5.32529 1.61924 4.19239L -0.167226 3.2932C -0.869416 4.71547 -1.14086 6.47128 -0.90093 8.03919L 1.07367 7.72145ZM 1.61924 4.19239C 2.18132 3.0485 2.99183 2.22793 4.1287 1.65179L 3.20756 -0.123453C 1.80531 0.617907 0.556787 1.88192 -0.167226 3.2932L 1.61924 4.19239ZM 4.1287 1.65179C 5.25432 1.05397 6.39188 0.863717 7.65077 1.06274L 7.94414 -0.915624C 6.37339 -1.1362 4.62106 -0.843128 3.20756 -0.123453L 4.1287 1.65179ZM 7.65077 1.06274C 8.93865 1.24088 9.99091 1.77051 10.9012 2.69879L 12.3154 1.28457C 11.1625 0.149583 9.54259 -0.665754 7.94414 -0.915624L 7.65077 1.06274ZM 10.9012 2.69879C 11.8295 3.6091 12.3591 4.66136 12.5373 5.94924L 14.5156 5.65588C 14.2658 4.05742 13.4504 2.43753 12.3154 1.28457L 10.9012 2.69879Z"/>
</defs>
</svg>
