<svg width="18" height="31" viewBox="0 0 18 31" version="1.1" xmlns="http://www.w3.org/2000/svg" xmlns:xlink="http://www.w3.org/1999/xlink">
<title>Shape</title>
<desc>Created using Figma</desc>
<g id="Canvas" transform="translate(-1680 5575)">
<g id="Shape">
<use xlink:href="#path0_stroke" transform="matrix(1 -1.22465e-16 -1.22465e-16 -1 1682 -5546)" fill="#666666"/>
</g>
</g>
<defs>
<path id="path0_stroke" d="M 14.8433 1.4184C 15.6267 0.639676 15.6305 -0.626648 14.8517 -1.41001C 14.073 -2.19337 12.8067 -2.19713 12.0233 -1.4184L 14.8433 1.4184ZM 0 13.3538L -1.41001 11.9354C -2.19223 12.713 -2.19729 13.9771 -1.42131 14.7609L 0 13.3538ZM 12.012 28.3302C 12.7891 29.1151 14.0554 29.1215 14.8404 28.3444C 15.6254 27.5673 15.6318 26.301 14.8546 25.516L 12.012 28.3302ZM 12.0233 -1.4184L -1.41001 11.9354L 1.41001 14.7723L 14.8433 1.4184L 12.0233 -1.4184ZM -1.42131 14.7609L 12.012 28.3302L 14.8546 25.516L 1.42131 11.9468L -1.42131 14.7609Z"/>
</defs>
</svg>
