<svg width="53" height="53" viewBox="0 0 53 53" version="1.1" xmlns="http://www.w3.org/2000/svg" xmlns:xlink="http://www.w3.org/1999/xlink">
<title>Instagram</title>
<desc>Created using Figma</desc>
<g id="Canvas" transform="translate(538 -1172)">
<g id="Instagram">
<g id="Combined Shape">
<use xlink:href="#path0_fill" transform="translate(-538 1172)" fill="#FEFEFE"/>
</g>
<g id="Combined Shape">
<use xlink:href="#path1_fill" transform="translate(-523.093 1186.91)" fill="#FEFEFE"/>
</g>
<g id="Shape">
<use xlink:href="#path2_fill" transform="translate(-516.221 1193.79)" fill="#FEFEFE"/>
</g>
</g>
</g>
<defs>
<path id="path0_fill" fill-rule="evenodd" d="M 26.4865 0C 11.8584 0 0 11.8645 0 26.5C 0 41.1355 11.8584 53 26.4865 53C 41.1146 53 52.973 41.1355 52.973 26.5C 52.973 11.8645 41.1146 0 26.4865 0ZM 20.6633 12.4523C 22.1695 12.3837 22.651 12.3669 26.4836 12.3669C 30.3212 12.3669 30.8009 12.3837 32.3077 12.4523C 33.8116 12.5212 34.8387 12.7594 35.7392 13.1089C 36.6692 13.4696 37.455 13.9525 38.2407 14.7387C 39.0266 15.5242 39.5092 16.3128 39.8712 17.2423C 40.2184 18.141 40.4568 19.168 40.5275 20.6727C 40.5952 22.1802 40.6128 22.6619 40.6128 26.5004C 40.6128 30.3388 40.5952 30.8193 40.5275 32.3269C 40.4568 33.8309 40.2184 34.8583 39.8712 35.7572C 39.5092 36.6865 39.0266 37.475 38.2407 38.2606C 37.4559 39.0468 36.6689 39.5308 35.7401 39.8918C 34.8413 40.2413 33.8137 40.4796 32.3098 40.5485C 30.803 40.6171 30.323 40.6339 26.4862 40.6339C 22.65 40.6339 22.1689 40.6171 20.662 40.5485C 19.1585 40.4796 18.1317 40.2413 17.2329 39.8918C 16.3044 39.5308 15.5163 39.0468 14.7314 38.2606C 13.9459 37.475 13.4633 36.6865 13.1022 35.7569C 12.7531 34.8583 12.515 33.8312 12.4459 32.3266C 12.3776 30.819 12.3605 30.3388 12.3605 26.5004C 12.3605 22.6619 12.3782 22.1799 12.4456 20.6724C 12.5132 19.1683 12.7516 18.141 13.1019 17.2421C 13.4639 16.3128 13.9465 15.5242 14.7323 14.7387C 15.5175 13.9528 16.3056 13.4699 17.2347 13.1089C 18.1329 12.7594 19.1594 12.5212 20.6633 12.4523Z"/>
<path id="path1_fill" fill-rule="evenodd" d="M 10.3134 0.00354004C 10.5594 0.00314331 10.8241 0.00326538 11.1098 0.00340271L 11.5806 0.00354004C 15.3523 0.00354004 15.7994 0.0170746 17.2888 0.0848083C 18.6661 0.147812 19.4136 0.378067 19.9116 0.571518C 20.5708 0.827698 21.0408 1.13391 21.5349 1.62859C 22.0294 2.12326 22.3354 2.59438 22.592 3.25394C 22.7854 3.75156 23.0158 4.49945 23.0785 5.87747C 23.1462 7.36737 23.1609 7.81493 23.1609 11.5868C 23.1609 15.3587 23.1462 15.8062 23.0785 17.2961C 23.0155 18.6741 22.7854 19.422 22.592 19.9197C 22.336 20.5792 22.0294 21.0489 21.5349 21.5432C 21.0405 22.0379 20.5711 22.3441 19.9116 22.6003C 19.4142 22.7946 18.6661 23.0243 17.2888 23.0873C 15.7996 23.1551 15.3523 23.1698 11.5806 23.1698C 7.80859 23.1698 7.36157 23.1551 5.87244 23.0873C 4.49512 23.0237 3.74756 22.7935 3.24933 22.6C 2.59009 22.3439 2.11926 22.0376 1.62482 21.543C 1.13037 21.0483 0.824341 20.5783 0.567688 19.9185C 0.374329 19.4209 0.143921 18.673 0.0812378 17.295C 0.0135498 15.8051 0 15.3575 0 11.5833C 0 7.80904 0.0135498 7.36383 0.0812378 5.87393C 0.144226 4.49593 0.374329 3.74802 0.567688 3.24982C 0.82373 2.59026 1.13037 2.11914 1.62482 1.62447C 2.11926 1.12979 2.59009 0.823563 3.24933 0.566818C 3.74731 0.372482 4.49512 0.142807 5.87244 0.0794983C 7.17554 0.0206146 7.68054 0.00294495 10.3134 0L 10.3134 0.00354004ZM 19.1219 2.35031C 18.1861 2.35031 17.4268 3.1091 17.4268 4.04573C 17.4268 4.98207 18.1861 5.74174 19.1219 5.74174C 20.0579 5.74174 20.8171 4.98207 20.8171 4.04573C 20.8171 3.10939 20.0579 2.34972 19.1219 2.34972L 19.1219 2.35031ZM 4.32684 11.5902C 4.32684 7.58191 7.57501 4.33209 11.5813 4.33209C 15.5872 4.33209 18.8345 7.58191 18.8345 11.5902C 18.8345 15.5985 15.5875 18.8469 11.5813 18.8469C 7.57501 18.8469 4.32684 15.5985 4.32684 11.5902Z"/>
<path id="path2_fill" fill-rule="evenodd" d="M 4.70876 0C 7.30917 0 9.41751 2.10913 9.41751 4.71116C 9.41751 7.3129 7.30917 9.42232 4.70876 9.42232C 2.10805 9.42232 0 7.3129 0 4.71116C 0 2.10913 2.10805 2.09218e-15 4.70876 2.09218e-15L 4.70876 0Z"/>
</defs>
</svg>
