<svg width="53" height="53" viewBox="0 0 53 53" version="1.1" xmlns="http://www.w3.org/2000/svg" xmlns:xlink="http://www.w3.org/1999/xlink">
<title>Mail</title>
<desc>Created using Figma</desc>
<g id="Canvas" transform="translate(400 -1172)">
<g id="Mail">
<g id="Combined Shape">
<use xlink:href="#path0_fill" transform="translate(-400 1172)" fill="#FEFEFE"/>
</g>
</g>
</g>
<defs>
<path id="path0_fill" fill-rule="evenodd" d="M 26.4865 53C 41.1146 53 52.973 41.1355 52.973 26.5C 52.973 11.8645 41.1146 0 26.4865 0C 11.8584 0 0 11.8645 0 26.5C 0 41.1355 11.8584 53 26.4865 53ZM 26.8552 25.0127C 24.7861 25.0127 14.1258 18.9644 14.1258 18.9644L 14.1258 18.0199C 14.1258 16.8497 15.0751 15.8999 16.2468 15.8999L 37.4636 15.8999C 38.6364 15.8999 39.5857 16.8497 39.5857 18.0199L 39.5687 19.0799C 39.5687 19.0799 29.0239 25.0127 26.8552 25.0127ZM 39.5687 22.26C 39.5687 22.26 29.1235 27.9277 26.8552 27.9277C 24.7861 27.9277 14.1417 22.26 14.1428 22.26L 14.1258 34.98C 14.1258 36.1502 15.0761 37.1 16.2468 37.1L 37.4636 37.1C 38.6364 37.1 39.5857 36.1502 39.5857 34.98L 39.5687 22.26Z"/>
</defs>
</svg>
