<svg width="708" height="471" viewBox="0 0 708 471" version="1.1" xmlns="http://www.w3.org/2000/svg" xmlns:xlink="http://www.w3.org/1999/xlink">
<title>Background font</title>
<desc>Created using Figma</desc>
<g id="Canvas" transform="translate(-1765 6386)">
<g id="Background font">
<g id="005">
<use xlink:href="#path0_fill" transform="translate(1765 -6386)" fill="#FFFFFF" fill-opacity="0.1"/>
</g>
</g>
</g>
<defs>
<path id="path0_fill" d="M 114.5 422.5L 150 422.5C 174 422.5 186 410.167 186 385.5L 186 223C 186 198.333 174 186 150 186L 114.5 186C 90.5 186 78.5 198.333 78.5 223L 78.5 385.5C 78.5 410.167 90.5 422.5 114.5 422.5ZM 157 465L 107 465C 82.3333 465 63.1667 458.167 49.5 444.5C 35.8333 430.833 29 411.833 29 387.5L 29 221C 29 196.333 35.8333 177.333 49.5 164C 63.1667 150.333 82.3333 143.5 107 143.5L 157 143.5C 181.333 143.5 200.333 150.333 214 164C 227.667 177.333 234.5 196.333 234.5 221L 234.5 387.5C 234.5 411.833 227.667 430.833 214 444.5C 200.333 458.167 181.333 465 157 465ZM 348.66 422.5L 384.16 422.5C 408.16 422.5 420.16 410.167 420.16 385.5L 420.16 223C 420.16 198.333 408.16 186 384.16 186L 348.66 186C 324.66 186 312.66 198.333 312.66 223L 312.66 385.5C 312.66 410.167 324.66 422.5 348.66 422.5ZM 391.16 465L 341.16 465C 316.493 465 297.327 458.167 283.66 444.5C 269.993 430.833 263.16 411.833 263.16 387.5L 263.16 221C 263.16 196.333 269.993 177.333 283.66 164C 297.327 150.333 316.493 143.5 341.16 143.5L 391.16 143.5C 415.493 143.5 434.493 150.333 448.16 164C 461.827 177.333 468.66 196.333 468.66 221L 468.66 387.5C 468.66 411.833 461.827 430.833 448.16 444.5C 434.493 458.167 415.493 465 391.16 465ZM 606.32 295L 575.32 295C 568.987 295 563.654 296.167 559.32 298.5C 555.32 300.833 552.654 303.333 551.32 306C 547.654 313.667 543.154 317.5 537.82 317.5L 506.32 317.5C 500.654 317.5 497.82 314.667 497.82 309L 497.82 152C 497.82 146.333 500.654 143.5 506.32 143.5L 675.82 143.5C 681.82 143.5 684.82 146.333 684.82 152L 684.82 180.5C 684.82 186.167 681.82 189 675.82 189L 546.82 189L 546.82 280C 552.487 263.667 566.487 255.5 588.82 255.5L 618.32 255.5C 642.32 255.5 660.654 261.833 673.32 274.5C 685.987 286.833 692.32 305.167 692.32 329.5L 692.32 387.5C 692.32 411.833 685.487 430.833 671.82 444.5C 658.154 458.167 639.154 465 614.82 465L 572.32 465C 547.654 465 528.487 458.167 514.82 444.5C 501.487 430.833 494.82 411.833 494.82 387.5L 494.82 374.5C 494.82 368.5 497.654 365.5 503.32 365.5L 534.82 365.5C 540.487 365.5 543.32 368.5 543.32 374.5L 543.32 387C 543.32 411.333 555.32 423.5 579.32 423.5L 607.82 423.5C 632.487 423.5 644.82 411.333 644.82 387L 644.82 336.5C 644.82 321.5 641.82 310.833 635.82 304.5C 630.154 298.167 620.32 295 606.32 295Z"/>
</defs>
</svg>
