<svg width="25" height="44" viewBox="0 0 25 44" version="1.1" xmlns="http://www.w3.org/2000/svg" xmlns:xlink="http://www.w3.org/1999/xlink">
<title>facebook</title>
<desc>Created using Figma</desc>
<g id="Canvas" transform="translate(-3010 2294)">
<g id="facebook">
<g id="Vector">
<use xlink:href="#path0_stroke" transform="translate(3011 -2293)" fill="#FEFEFE"/>
</g>
</g>
</g>
<defs>
<path id="path0_stroke" d="M 23 0L 24 0C 24 -0.552285 23.5523 -1 23 -1L 23 0ZM 16.7273 0L 16.7273 -1L 16.7273 0ZM 6.27273 10.5L 5.27273 10.5L 6.27273 10.5ZM 6.27273 16.8L 6.27273 17.8C 6.82501 17.8 7.27273 17.3523 7.27273 16.8L 6.27273 16.8ZM 0 16.8L 0 15.8C -0.552285 15.8 -1 16.2477 -1 16.8L 0 16.8ZM 0 25.2L -1 25.2C -1 25.7523 -0.552285 26.2 2.22045e-16 26.2L 0 25.2ZM 6.27273 25.2L 7.27273 25.2C 7.27273 24.6477 6.82501 24.2 6.27273 24.2L 6.27273 25.2ZM 6.27273 42L 5.27273 42C 5.27273 42.5523 5.72044 43 6.27273 43L 6.27273 42ZM 14.6364 42L 14.6364 43C 15.1886 43 15.6364 42.5523 15.6364 42L 14.6364 42ZM 14.6364 25.2L 14.6364 24.2C 14.0841 24.2 13.6364 24.6477 13.6364 25.2L 14.6364 25.2ZM 20.9091 25.2L 20.9091 26.2C 21.3683 26.2 21.7685 25.8872 21.8795 25.4415L 20.9091 25.2ZM 23 16.8L 23.9704 17.0415C 24.0447 16.7429 23.9774 16.4267 23.7879 16.1842C 23.5984 15.9417 23.3078 15.8 23 15.8L 23 16.8ZM 14.6364 16.8L 13.6364 16.8C 13.6364 17.3523 14.0841 17.8 14.6364 17.8L 14.6364 16.8ZM 16.7273 8.4L 16.7273 9.4L 16.7273 8.4ZM 23 8.4L 23 9.4C 23.5523 9.4 24 8.95228 24 8.4L 23 8.4ZM 23 -1L 16.7273 -1L 16.7273 1L 23 1L 23 -1ZM 16.7273 -1C 13.6879 -1 10.774 0.212662 8.62615 2.36981L 10.0434 3.78095C 11.8168 1.99983 14.2212 1 16.7273 1L 16.7273 -1ZM 8.62615 2.36981C 6.47849 4.52681 5.27273 7.45141 5.27273 10.5L 7.27273 10.5C 7.27273 7.97905 8.26988 5.56222 10.0434 3.78095L 8.62615 2.36981ZM 5.27273 10.5L 5.27273 16.8L 7.27273 16.8L 7.27273 10.5L 5.27273 10.5ZM 6.27273 15.8L 0 15.8L 0 17.8L 6.27273 17.8L 6.27273 15.8ZM -1 16.8L -1 25.2L 1 25.2L 1 16.8L -1 16.8ZM 0 26.2L 6.27273 26.2L 6.27273 24.2L 0 24.2L 0 26.2ZM 5.27273 25.2L 5.27273 42L 7.27273 42L 7.27273 25.2L 5.27273 25.2ZM 6.27273 43L 14.6364 43L 14.6364 41L 6.27273 41L 6.27273 43ZM 15.6364 42L 15.6364 25.2L 13.6364 25.2L 13.6364 42L 15.6364 42ZM 14.6364 26.2L 20.9091 26.2L 20.9091 24.2L 14.6364 24.2L 14.6364 26.2ZM 21.8795 25.4415L 23.9704 17.0415L 22.0296 16.5585L 19.9387 24.9585L 21.8795 25.4415ZM 23 15.8L 14.6364 15.8L 14.6364 17.8L 23 17.8L 23 15.8ZM 15.6364 16.8L 15.6364 10.5L 13.6364 10.5L 13.6364 16.8L 15.6364 16.8ZM 15.6364 10.5C 15.6364 10.2069 15.7523 9.92661 15.9574 9.72065L 14.5401 8.3095C 13.961 8.8912 13.6364 9.67922 13.6364 10.5L 15.6364 10.5ZM 15.9574 9.72065C 16.1623 9.51483 16.4393 9.4 16.7273 9.4L 16.7273 7.4C 15.9061 7.4 15.1195 7.72767 14.5401 8.3095L 15.9574 9.72065ZM 16.7273 9.4L 23 9.4L 23 7.4L 16.7273 7.4L 16.7273 9.4ZM 24 8.4L 24 0L 22 0L 22 8.4L 24 8.4Z"/>
</defs>
</svg>
