<svg width="637" height="91" viewBox="0 0 637 91" version="1.1" xmlns="http://www.w3.org/2000/svg" xmlns:xlink="http://www.w3.org/1999/xlink">
<title>FRT logo</title>
<desc>Created using Figma</desc>
<g id="Canvas" transform="translate(-2777 2954)">
<g id="FRT logo">
<g id="Vector">
<use xlink:href="#path0_fill" transform="translate(2777 -2954)" fill="#FFFFFF"/>
</g>
<g id="Vector">
<use xlink:href="#path1_fill" transform="translate(2902.21 -2919.49)" fill="#FFFFFF"/>
</g>
<g id="Vector">
<use xlink:href="#path2_fill" transform="translate(2930.24 -2919.47)" fill="#FFFFFF"/>
</g>
<g id="Vector">
<use xlink:href="#path3_fill" transform="translate(2963.39 -2919.47)" fill="#FFFFFF"/>
</g>
<g id="Vector">
<use xlink:href="#path4_fill" transform="translate(3003.01 -2919.47)" fill="#FFFFFF"/>
</g>
<g id="Vector">
<use xlink:href="#path5_fill" transform="translate(3024.04 -2916.1)" fill="#FFFFFF"/>
</g>
<g id="Vector">
<use xlink:href="#path6_fill" transform="translate(3049.76 -2916.09)" fill="#FFFFFF"/>
</g>
<g id="Vector">
<use xlink:href="#path7_fill" transform="translate(3072.25 -2916.09)" fill="#FFFFFF"/>
</g>
<g id="Vector">
<use xlink:href="#path8_fill" transform="translate(3099.43 -2916.1)" fill="#FFFFFF"/>
</g>
<g id="Vector">
<use xlink:href="#path9_fill" transform="translate(3123.94 -2916.09)" fill="#FFFFFF"/>
</g>
<g id="Vector">
<use xlink:href="#path10_fill" transform="translate(3142.4 -2916.09)" fill="#FFFFFF"/>
</g>
<g id="Vector">
<use xlink:href="#path11_fill" transform="translate(3182.97 -2919.49)" fill="#FFFFFF"/>
</g>
<g id="Vector">
<use xlink:href="#path12_fill" transform="translate(3207.77 -2916.09)" fill="#FFFFFF"/>
</g>
<g id="Vector">
<use xlink:href="#path13_fill" transform="translate(3232.87 -2916.13)" fill="#FFFFFF"/>
</g>
<g id="Vector">
<use xlink:href="#path14_fill" transform="translate(3255.84 -2916.05)" fill="#FFFFFF"/>
</g>
<g id="Vector">
<use xlink:href="#path15_fill" transform="translate(3265.87 -2916.09)" fill="#FFFFFF"/>
</g>
<g id="Vector">
<use xlink:href="#path16_fill" transform="translate(3290.7 -2916.13)" fill="#FFFFFF"/>
</g>
<g id="Vector">
<use xlink:href="#path17_fill" transform="translate(3325.93 -2919.47)" fill="#FFFFFF"/>
</g>
<g id="Vector">
<use xlink:href="#path18_fill" transform="translate(3349.78 -2916.09)" fill="#FFFFFF"/>
</g>
<g id="Vector">
<use xlink:href="#path19_fill" transform="translate(3368.59 -2916.09)" fill="#FFFFFF"/>
</g>
<g id="Vector">
<use xlink:href="#path20_fill" transform="translate(3394.04 -2916.09)" fill="#FFFFFF"/>
</g>
</g>
</g>
<defs>
<path id="path0_fill" d="M 85.0734 58.8383C 86.2787 55.7253 87.1009 52.4773 87.5216 49.1657C 87.4413 50.8246 87.2273 52.4701 87.0266 54.1291C 86.765 56.3313 86.3718 58.5159 85.8493 60.6711C 85.6273 61.6071 85.2761 62.5077 84.8058 63.3468C 84.2695 64.1047 83.6453 64.7962 82.9462 65.4071C 80.4101 67.6058 77.7283 69.6306 74.9191 71.4675L 74.491 71.7217C 76.752 70.0419 78.8244 68.122 80.6719 65.9957C 82.544 63.864 84.0332 61.4244 85.0734 58.7848L 85.0734 58.8383ZM 61.0992 49.4868C 60.8986 50.8246 60.7781 52.0555 60.524 53.3264C 59.8712 57.5783 58.2809 61.6317 55.8683 65.193C 53.1875 68.769 49.9272 71.871 46.2224 74.3706C 48.0687 73.2736 49.8614 72.0829 51.5738 70.8655C 53.5117 69.565 55.366 68.1441 57.1258 66.6112C 57.9464 65.9268 58.6276 65.0911 59.1326 64.1495C 59.514 63.2323 59.7965 62.277 59.9755 61.2999C 60.6748 57.0213 61.0637 52.6977 61.1394 48.363L 61.0992 49.4868ZM 75.3874 42.7975C 74.7585 47.5107 73.0906 52.0254 70.5043 56.0154C 68.0294 59.3617 65.0242 62.281 61.6076 64.6579C 64.3746 62.9813 67.0538 61.1639 69.6347 59.2129C 70.792 58.356 71.8588 57.3832 72.8187 56.3098C 73.6031 55.2539 74.1341 54.0317 74.3706 52.7377C 74.9166 50.1759 75.2787 47.5784 75.4543 44.9649C 75.4543 44.6973 75.4543 43.8009 75.4543 42.8109L 75.3874 42.7975ZM 89.1002 32.7236C 88.7267 35.4675 88.1226 38.1751 87.2942 40.8176C 86.4299 43.5744 85.0996 46.1626 83.3609 48.47C 81.1474 51.2977 78.5229 53.778 75.5747 55.8282C 77.8758 54.41 80.1367 52.925 82.2639 51.3062C 83.4902 50.4135 84.6362 49.4152 85.6888 48.3228C 86.1142 47.8727 86.4582 47.3521 86.7055 46.7843C 87.2252 45.4433 87.6106 44.0541 87.8561 42.637C 88.5517 39.0917 88.8594 35.4929 89.1939 31.9343C 89.1939 32.1082 89.1939 32.1484 89.0601 32.7504L 89.1002 32.7236ZM 61.8217 29.1516C 61.5263 33.6784 60.5335 38.1324 58.8784 42.3561C 57.2691 45.9996 54.8754 49.243 51.8681 51.8548C 50.0885 53.4706 48.1727 54.9298 46.1422 56.2161C 48.3496 55.0388 50.4768 53.7144 52.5906 52.3498C 54.585 51.0985 56.4692 49.6797 58.2229 48.1088C 58.8691 47.5451 59.3966 46.8584 59.7748 46.0887C 60.2989 44.754 60.6626 43.3618 60.8584 41.9413C 61.4649 37.6954 61.7867 33.4137 61.8217 29.1248L 61.8217 29.1516ZM 77.0864 20.9774C 76.7476 24.293 76.089 27.5681 75.1198 30.757C 74.4065 33.1539 73.357 35.4375 72.0026 37.5398C 69.6745 40.8972 66.7551 43.803 63.3869 46.1154C 62.8919 46.4499 62.3969 46.7843 61.8886 47.1054C 64.4706 45.6605 67.0125 44.122 69.4474 42.4363C 70.8279 41.5101 72.13 40.472 73.3405 39.3325C 73.9085 38.7947 74.3633 38.1488 74.6783 37.4328C 75.1911 36.0788 75.5632 34.6756 75.7887 33.2454C 76.4703 29.1852 76.917 25.089 77.1266 20.9774L 77.0864 20.9774ZM 90.7324 15.84C 90.2713 18.5096 89.6049 21.1396 88.739 23.7066C 88.0769 25.7059 87.1786 27.6192 86.0634 29.4058C 84.8078 31.3168 83.3253 33.0688 81.6485 34.6234C 80.0971 36.0754 78.4129 37.3788 76.6182 38.5165C 78.2637 37.6469 79.8558 36.6569 81.4211 35.6669C 83.2602 34.5238 85.005 33.2353 86.6386 31.8139C 87.3536 31.2054 87.9325 30.4533 88.3377 29.6064C 88.6563 28.7764 88.9069 27.9218 89.0869 27.0512C 89.5844 24.9139 89.9729 22.7527 90.2508 20.576C 90.5317 18.3017 90.8395 16.0274 90.9732 13.7263C 90.8796 14.4219 90.7993 15.0641 90.6789 15.8133L 90.7324 15.84ZM 29.4727 28.5361C 33.0843 30.5805 36.835 32.3687 40.6971 33.8875C 41.9677 34.3734 43.2861 34.7233 44.6304 34.9311C 46.1461 34.99 47.6567 34.7207 49.0587 34.1417C 53.1504 32.5924 57.1214 30.7411 60.9387 28.6031C 58.7432 29.612 56.476 30.4571 54.1558 31.1316C 50.3957 32.2855 46.4492 32.7079 42.53 32.3758C 38.4918 31.8997 34.5468 30.8267 30.8239 29.1917C 30.369 29.0044 29.9409 28.7636 29.486 28.6031L 29.4727 28.5361ZM 46.2759 20.4422C 46.7174 20.6964 47.1991 20.8837 47.6138 21.1245C 50.9417 22.7915 54.379 24.2308 57.9018 25.4324C 59.5244 26.0732 61.2757 26.3208 63.0123 26.1548C 65.0637 25.6791 67.0592 24.9886 68.9658 24.0945C 71.4006 23.0243 73.7686 21.8202 76.1098 20.5493C 75.6416 20.7232 75.1867 20.9372 74.772 21.1245C 70.1776 23.1292 65.2008 24.1063 60.1895 23.9875C 55.3867 23.5882 50.6842 22.3899 46.2759 20.4422ZM 61.6478 13.0841C 65.1838 14.7298 68.8108 16.1725 72.511 17.4053C 74.0135 17.9309 75.579 18.2548 77.1667 18.3686C 79.1548 18.1039 81.0905 17.5353 82.9061 16.6829C 85.4212 15.626 87.8694 14.3818 90.2775 13.0841L 88.9397 13.6594C 85.0082 15.3297 80.7951 16.2377 76.5245 16.335C 71.9982 16.1669 67.5293 15.2632 63.2933 13.6594C 62.7582 13.4721 62.2364 13.2446 61.7013 13.0707L 61.6478 13.0841ZM 46.5435 6.31461C 47.0519 6.51529 47.5603 6.74271 48.0553 6.97014C 50.4768 8.04042 52.9384 9.0438 55.4402 9.90002C 57.1615 10.5458 58.961 10.9598 60.7915 11.1309C 62.4316 10.9683 64.0399 10.5718 65.5676 9.95354C 67.9356 9.08395 70.2367 8.06719 72.4977 6.98353L 73.8355 6.31461C 73.4074 6.4484 73.006 6.6357 72.5913 6.78287C 68.0965 8.59276 63.2635 9.40967 58.4235 9.17761C 54.3336 8.77282 50.3184 7.80952 46.49 6.31461L 46.5435 6.31461ZM 32.3758 -1.63311e-06L 33.8875 0.655528C 35.5286 1.38688 37.1875 2.06918 38.8643 2.70242C 41.007 3.58454 43.2558 4.18274 45.5535 4.48178C 47.0862 4.37952 48.5959 4.05504 50.0353 3.51853C 52.4166 2.7292 54.7445 1.77933 57.0456 0.842845L 58.7848 0.0802656C 54.7115 1.66918 50.4035 2.57328 46.0351 2.75595C 42.0406 2.7207 38.0798 2.0199 34.3156 0.682311C 33.6601 0.468256 32.9778 0.214053 32.3758 -1.63311e-06ZM 31.1182 13.0707L 32.456 13.7396C 35.3098 15.1583 38.2499 16.396 41.259 17.4455C 42.954 18.1338 44.7873 18.4134 46.6104 18.2615C 48.6187 17.8246 50.5808 17.1975 52.4702 16.3886C 54.9318 15.3852 57.3399 14.2748 59.7213 13.0975C 58.2496 13.6995 56.7646 14.248 55.2529 14.7029C 51.1034 16.0648 46.7167 16.5522 42.3694 16.1344C 38.4986 15.6297 34.7139 14.6036 31.1182 13.0841L 31.1182 13.0707ZM 17.111 6.23435C 17.606 6.50191 18.1144 6.74272 18.6094 6.98353C 21.0441 8.17877 23.5455 9.23293 26.1013 10.1408C 27.5248 10.6754 29.0147 11.0129 30.5295 11.1442C 31.5048 11.087 32.4701 10.9165 33.4059 10.6359C 37.214 9.45406 40.9373 8.01479 44.5501 6.328C 42.4145 7.13581 40.2294 7.8061 38.0081 8.33477C 34.9472 9.08907 31.7901 9.3777 28.6432 9.19097C 25.1683 8.86663 21.7553 8.06066 18.5024 6.79622C 18.0475 6.6223 17.606 6.43502 17.1645 6.23435L 17.111 6.23435ZM 14.4085 20.4422C 17.8652 22.4011 21.476 24.0745 25.2049 25.4457C 26.7637 26.0972 28.4615 26.3457 30.1416 26.1682C 32.1617 25.7209 34.1366 25.0895 36.0415 24.2818C 38.4362 23.3186 40.7908 22.2617 43.1053 21.1245C 43.5601 20.8837 44.0418 20.6964 44.4431 20.4422C 42.6976 21.1937 40.9109 21.8458 39.0917 22.3955C 34.7817 23.804 30.2229 24.2873 25.7133 23.8136C 21.7796 23.2655 17.9507 22.129 14.355 20.4422L 14.4085 20.4422ZM 17.0307 16.1745C 15.2225 16.4605 13.3806 16.4605 11.5723 16.1745C 7.71382 15.7243 3.95437 14.6489 0.441495 12.9904C 0.816091 13.2045 1.21744 13.4185 1.60541 13.6192C 3.66603 14.743 5.78257 15.7611 7.94679 16.6695C 9.55357 17.3758 11.2308 17.9095 12.9503 18.2615C 13.8677 18.3955 14.802 18.3592 15.7063 18.1545C 17.6408 17.6893 19.5406 17.0903 21.3921 16.3618C 23.5326 15.5457 25.6732 14.7029 27.7602 13.6861L 29.3656 12.8968C 25.3184 14.1888 21.2054 15.2651 17.0441 16.121L 17.0307 16.1745ZM 4.89932e-06 13.6727C 4.89932e-06 13.6727 -5.71149e-06 14.1276 0.0936432 14.3551C 0.477454 18.735 1.15685 23.0839 2.12717 27.3722C 2.37429 28.6143 2.88028 29.7904 3.61217 30.8239C 4.41606 31.7193 5.31301 32.5265 6.28786 33.232C 7.73273 34.3424 9.24449 35.3591 10.783 36.3224C 11.9068 37.0047 13.0172 37.7539 14.2079 38.3292C 13.8734 38.1151 13.539 37.9144 13.2313 37.6736C 10.1511 35.4888 7.48687 32.7703 5.36474 29.6466C 4.00173 27.5227 2.93499 25.2226 2.19406 22.8102C 1.40043 20.3239 0.78348 17.7846 0.347836 15.2113L 4.89932e-06 13.6727ZM 4.89932e-06 13.6727L 0.294332 15.2648L 4.89932e-06 13.6727ZM 2.00677 32.0547C 2.15393 33.8875 2.38135 35.707 2.62216 37.5264C 2.9133 40.0357 3.36011 42.5244 3.96 44.9782C 4.20735 46.1188 4.70043 47.1917 5.40488 48.1222C 6.64176 49.4597 8.01365 50.6657 9.49867 51.721C 11.4921 53.1926 13.5122 54.5839 15.6795 55.8816C 12.2223 53.4944 9.23752 50.487 6.87651 47.0118C 5.24359 44.3678 4.0254 41.4893 3.26434 38.4763C 2.68142 36.3757 2.23455 34.2396 1.9265 32.0815L 2.00677 32.0547ZM 3.94663 51.2929C 4.13393 53.1123 4.38813 54.9184 4.68245 56.7111C 4.96987 58.7029 5.45386 60.6612 6.12732 62.5575C 6.61081 63.5889 7.31399 64.5021 8.18759 65.2332C 10.5099 67.3053 12.973 69.214 15.5591 70.9458L 16.8969 71.8823C 13.8329 69.6253 11.1268 66.9192 8.86988 63.8552C 6.37142 59.9823 4.7083 55.6308 3.98677 51.0788C 3.86636 50.4233 3.75933 49.741 3.69244 49.1256C 3.72262 49.8465 3.78961 50.5654 3.89313 51.2795L 3.94663 51.2929ZM 15.1042 33.5263C 15.3381 34.9011 15.7194 36.2467 16.2414 37.5398C 16.6984 38.4405 17.336 39.2375 18.1144 39.8811C 19.5628 41.1357 21.0961 42.289 22.7032 43.3327C 24.6475 44.626 26.6409 45.8478 28.6833 46.9984L 27.7335 46.3562L 27.399 46.1154C 23.2116 43.1053 19.2917 39.4262 17.1913 34.5966C 15.5454 30.5619 14.3693 26.3512 13.6861 22.0476C 13.6861 22.0476 13.7798 23.3855 13.86 24.3086L 15.1042 33.5263ZM 28.884 29.0445C 28.857 29.4901 28.857 29.9368 28.884 30.3824C 28.884 31.5731 29.0713 33.4728 29.1248 34.6635C 29.3051 37.8118 29.721 40.9422 30.369 44.0284C 30.5851 45.2296 31.0749 46.3649 31.8005 47.3462C 32.5243 48.1582 33.3215 48.9016 34.1819 49.567C 35.9646 50.9507 37.8178 52.2412 39.7339 53.4334C 41.3126 54.4234 42.9046 55.4 44.5367 56.2964C 43.3215 55.5093 42.1472 54.6609 41.0182 53.7545C 37.6054 51.1421 34.768 47.8539 32.6835 44.0953C 30.6919 39.8485 29.443 35.2919 28.991 30.6232C 28.991 30.1015 28.8572 29.0579 28.8572 29.0579L 28.884 29.0445ZM 15.2915 40.2289C 15.2915 41.8477 15.5056 43.4665 15.6527 45.0853C 15.8968 47.6354 16.2944 50.1685 16.8434 52.6708C 17.0771 54.0645 17.6515 55.3789 18.5157 56.4971C 19.9405 57.9911 21.5139 59.3359 23.2115 60.5106C 25.1916 61.9421 27.2251 63.3067 29.2854 64.5241C 28.3355 63.8151 27.399 63.106 26.5026 62.3434C 23.3256 59.773 20.7001 56.5878 18.7833 52.9785C 17.7284 50.7706 16.9122 48.4564 16.3484 46.0753C 15.8654 44.1434 15.5123 42.1812 15.2915 40.2021L 15.2915 40.2289ZM 29.66 48.4566C 29.7839 52.7571 30.2041 57.0439 30.9175 61.2865C 31.1132 62.3996 31.4504 63.4832 31.9209 64.5107C 32.4664 65.3929 33.1482 66.1831 33.941 66.852C 35.5866 68.2902 37.3154 69.6304 39.1185 70.8655C 40.8711 72.0829 42.6504 73.2602 44.4698 74.384C 44.2729 74.2217 44.0675 74.0698 43.8545 73.9292C 42.7842 73.1398 41.754 72.3103 40.7507 71.4408C 37.3455 68.6273 34.6044 65.0959 32.7236 61.0993C 31.1957 57.3904 30.2176 53.4783 29.8205 49.4868C 29.8205 49.1389 29.6867 48.47 29.6867 48.47L 29.66 48.4566ZM 16.6294 57.2864C 16.7498 59.5474 16.9772 61.8083 17.2582 64.0693C 17.5028 66.4478 18.0007 68.7933 18.7432 71.0662C 19.1738 72.0928 19.8327 73.0078 20.6697 73.7418C 23.7051 76.4552 26.9431 78.933 30.3556 81.1535C 29.5396 80.5113 28.7101 79.8157 27.9341 79.1869C 24.3759 76.2979 21.5021 72.6564 19.5191 68.5243C 17.9839 64.9085 16.9921 61.0854 16.5759 57.1793L 16.6294 57.2864ZM 30.864 72.9124C 31.0372 75.3675 31.486 77.7953 32.2018 80.1501C 32.6255 81.2143 33.2948 82.1632 34.1551 82.9195C 34.8642 83.5884 35.5866 84.2573 36.3492 84.8593C 39.0248 87.0534 41.8744 89.0601 44.7508 91L 43.4799 90.01C 40.0736 87.3889 37.1221 84.225 34.7438 80.6451C 32.5136 76.7214 31.1113 72.3822 30.6232 67.8955C 30.5563 67.3202 30.5295 66.7316 30.4493 66.1563C 30.4493 68.4173 30.65 70.6782 30.8506 72.9391L 30.864 72.9124ZM 60.5373 66.076C 60.5373 66.4908 60.3099 68.444 60.2564 68.939C 59.9552 72.9566 58.7034 76.8452 56.6041 80.2839C 53.9479 84.39 50.5497 87.9651 46.5836 90.8261C 49.6653 88.8286 52.6312 86.6578 55.4669 84.3242C 56.5967 83.4346 57.6043 82.4001 58.4637 81.2472C 59.087 80.0172 59.5028 78.6927 59.6945 77.3272C 60.1165 74.7908 60.3801 72.2306 60.4838 69.6614L 60.5373 66.076ZM 74.2235 60.7247C 73.4705 64.2301 72.2605 67.6215 70.6247 70.812C 68.1127 74.7794 64.866 78.2304 61.0591 80.9796L 62.3033 80.1501C 64.5642 78.6116 66.7851 77.0062 68.9122 75.267C 69.9737 74.4182 70.9545 73.4733 71.8421 72.4441C 72.5589 71.4048 73.0426 70.2228 73.2602 68.9791C 73.6345 67.0949 73.9113 65.1926 74.0897 63.2799C 74.2368 61.7681 74.3037 61.4604 74.384 59.9754L 74.2235 60.7247ZM 74.2368 60.7247C 73.4838 64.2301 72.2739 67.6215 70.6381 70.812C 68.1261 74.7794 64.8794 78.2304 61.0725 80.9796L 62.3167 80.1501C 64.5776 78.6116 66.7984 77.0062 68.9256 75.267C 69.987 74.4182 70.9678 73.4733 71.8555 72.4441C 72.5723 71.4048 73.056 70.2228 73.2736 68.9791C 73.6478 67.0949 73.9247 65.1926 74.1031 63.2799C 74.2502 61.7681 74.3171 61.4604 74.3974 59.9754L 74.2368 60.7247Z"/>
<path id="path1_fill" d="M 18.489 10.267C 17.8482 9.59664 16.9794 9.19087 16.0541 9.12981C 16.935 9.08495 17.7767 8.75113 18.4489 8.17996C 18.7218 7.87123 18.9299 7.51083 19.0609 7.12015C 19.1919 6.72947 19.243 6.31645 19.2114 5.90561L 19.2114 3.69818C 19.2593 3.1905 19.2008 2.67842 19.0395 2.19466C 18.8783 1.7109 18.6178 1.2661 18.2749 0.888701C 17.3928 0.226889 16.2959 -0.0830717 15.1979 0.0191122L 0 0.0191122L 0 18.9763L 14.141 18.9763C 15.5402 19.0874 16.94 18.77 18.1545 18.0666C 18.5963 17.7522 18.9509 17.3306 19.1849 16.8415C 19.4189 16.3524 19.5247 15.8118 19.4924 15.2705L 19.4924 12.849C 19.5481 11.9149 19.2522 10.9939 18.6629 10.267L 18.489 10.267ZM 3.27773 2.561L 14.2079 2.561C 14.7424 2.50587 15.28 2.6332 15.733 2.92225C 15.8917 3.10361 16.0095 3.31687 16.0788 3.54765C 16.148 3.77843 16.167 4.02136 16.1344 4.26009L 16.1344 6.1598C 16.1643 6.39946 16.1428 6.64278 16.0713 6.87347C 15.9998 7.10416 15.8799 7.31694 15.7196 7.49764C 15.2746 7.79444 14.74 7.92689 14.2079 7.87224L 3.27773 7.87224L 3.27773 2.62792L 3.27773 2.561ZM 16.3083 14.1334C 16.3649 14.7527 16.2041 15.3724 15.8534 15.8859C 15.6251 16.0719 15.3619 16.2103 15.0793 16.293C 14.7967 16.3757 14.5004 16.4011 14.2079 16.3675L 3.27773 16.3675L 3.27773 10.267L 14.2079 10.267C 14.5014 10.2337 14.7986 10.2605 15.0815 10.3456C 15.3643 10.4307 15.627 10.5723 15.8534 10.762C 16.2102 11.2829 16.3713 11.9131 16.3083 12.5413L 16.3083 14.12L 16.3083 14.1334Z"/>
<path id="path2_fill" d="M 2.56865 3.38473C 2.56865 3.75933 2.64894 4.1473 2.6757 4.54865C 2.70246 4.95 2.6757 5.49855 2.6757 6.16747L 2.6757 18.9572L 1.63311e-05 18.9572L 1.63311e-05 -4.89932e-06L 2.58204 -4.89932e-06L 11.7864 12.3483L 20.3753 -4.89932e-06L 23.2785 -4.89932e-06L 23.2785 18.9572L 20.4021 18.9572L 20.4021 6.16747C 20.4021 5.99801 20.4021 5.57881 20.4021 4.90989C 20.4021 4.24097 20.4289 3.73705 20.4824 3.39813C 20.2416 3.88867 20.0275 4.30339 19.8402 4.64231C 19.6896 4.91852 19.5244 5.18648 19.3452 5.44502L 12.1075 15.9738L 11.3048 15.9738L 3.78609 5.71257L 3.69243 5.59216C 3.18851 4.92146 2.79138 4.17685 2.51512 3.38473"/>
<path id="path3_fill" d="M 9.79864e-06 18.9572L 9.79864e-06 -1.02069e-06L 18.2348 -1.02069e-06L 18.2348 2.5419L 3.17069 2.5419L 3.17069 7.813L 12.375 7.813L 12.375 10.3281L 3.17069 10.3281L 3.17069 16.3618L 18.3819 16.3618L 18.3819 18.9572L 9.79864e-06 18.9572Z"/>
<path id="path4_fill" d="M 3.26622e-06 18.9572L 3.26622e-06 -1.02069e-06L 18.0207 -1.02069e-06L 18.0207 2.58203L 3.17068 2.58203L 3.17068 8.78962L 11.6392 8.78962L 11.6392 11.3181L 3.17068 11.3181L 3.17068 18.9572L 3.26622e-06 18.9572Z"/>
<path id="path5_fill" d="M 18.0905 0.803321C 17.2165 0.183735 16.145 -0.0924546 15.0804 0.0273905L 3.8425 0.0273905C 2.77787 -0.0924546 1.70638 0.183735 0.832359 0.803321C 0.194656 1.63359 -0.0934011 2.6802 0.0296464 3.71985L 0.0296464 11.894C -0.0971864 12.9319 0.186006 13.9783 0.818968 14.8105C 1.70102 15.4229 2.77554 15.6939 3.8425 15.5731L 15.0804 15.5731C 16.1492 15.6925 17.2247 15.4165 18.1039 14.7972C 18.7382 13.9704 19.0261 12.9293 18.9066 11.894L 18.9066 3.69306C 19.0297 2.65342 18.7416 1.60685 18.1039 0.776579L 18.0905 0.803321ZM 15.9633 13.2319L 2.97291 13.2319L 2.97291 2.32848L 15.9633 2.32848L 15.9633 13.2319Z"/>
<path id="path6_fill" d="M 10.4486 9.47385L 12.5088 9.47385C 13.3999 9.55751 14.2906 9.30981 15.0106 8.77814C 15.2889 8.47291 15.5004 8.11301 15.6317 7.7214C 15.763 7.32979 15.8112 6.91512 15.7731 6.50384L 15.7731 3.02544C 15.8117 2.61003 15.7638 2.19115 15.6326 1.79514C 15.5013 1.39912 15.2896 1.03454 15.0106 0.724351C 14.2936 0.185628 13.4019 -0.0671126 12.5088 0.0152967L 1.14318e-05 0.0152967L 1.14318e-05 15.5878L 2.94324 15.5878L 2.94324 9.47385L 7.18422 9.47385L 13.3784 15.5744L 17.2983 15.5744L 10.4486 9.47385ZM 2.94324 7.30651L 2.94324 2.2896L 11.2245 2.2896C 11.7005 2.23029 12.1808 2.36 12.5623 2.65085C 12.8368 2.99406 12.9665 3.4309 12.9236 3.86829L 12.9236 5.74126C 12.979 6.18794 12.8591 6.63872 12.5891 6.99883C 12.1959 7.26234 11.7213 7.37623 11.2513 7.3199L 2.97002 7.3199L 2.94324 7.30651Z"/>
<path id="path7_fill" d="M 2.34123 2.88974C 2.34123 3.12163 2.34123 3.43381 2.34123 3.82624C 2.34123 4.46841 2.34123 4.88313 2.34123 5.07043L 2.34123 15.5858L 8.16554e-06 15.5858L 8.16554e-06 -6.53243e-06L 2.4215 -6.53243e-06L 10.1676 10.1007L 17.2849 -6.53243e-06L 19.9606 -6.53243e-06L 19.9606 15.5725L 17.2849 15.5725L 17.2849 5.05703C 17.2849 4.66906 17.2849 4.30786 17.2849 3.94664C 17.2849 3.58543 17.3518 3.23759 17.4187 2.90313C 17.2711 3.35889 17.0969 3.8056 16.897 4.24097C 16.7651 4.54427 16.5989 4.83152 16.4019 5.09717L 10.4218 13.1242L 9.64584 13.1242L 3.45162 5.09717C 3.21673 4.7961 3.01069 4.47359 2.83623 4.13392C 2.6248 3.70352 2.45024 3.25597 2.31445 2.79608"/>
<path id="path8_fill" d="M 2.9831 0.0133719L 2.9831 13.2313L 14.3414 13.2313L 14.3414 0.0133719L 17.3114 0.0133719L 17.3114 11.8934C 17.4344 12.9331 17.1464 13.9796 16.5087 14.8099C 15.6266 15.4223 14.5521 15.6933 13.4852 15.5725L 3.85269 15.5725C 2.78381 15.6932 1.70786 15.417 0.829191 14.7965C 0.19488 13.9697 -0.0929892 12.9286 0.0264777 11.8934L 0.0264777 -1.95973e-05L 2.96975 -1.95973e-05L 2.9831 0.0133719Z"/>
<path id="path9_fill" d="M -1.79642e-05 15.5725L -1.79642e-05 -1.02069e-07L 2.94325 -1.02069e-07L 2.94325 13.2179L 15.0374 13.2179L 15.0374 15.5725L -1.79642e-05 15.5725Z"/>
<path id="path10_fill" d="M 11.666 -6.53243e-06L 8.99031 -6.53243e-06L 1.14318e-05 15.5725L 2.94324 15.5725L 4.93665 11.9336L 15.6394 11.9336L 17.6595 15.5725L 20.8436 15.5725L 11.666 -6.53243e-06ZM 6.15409 9.68596L 10.2746 2.27434L 14.4086 9.68596L 6.15409 9.68596Z"/>
<path id="path11_fill" d="M 12.4821 11.591L 15.2514 11.591C 16.3494 11.6919 17.4457 11.3821 18.3284 10.7214C 18.671 10.3465 18.9313 9.90405 19.0926 9.4225C 19.2539 8.94094 19.3126 8.43095 19.2649 7.92535L 19.2649 3.69776C 19.3128 3.19009 19.2543 2.678 19.093 2.19424C 18.9318 1.71048 18.6714 1.26568 18.3284 0.888283C 17.4457 0.227636 16.3494 -0.0821958 15.2514 0.0186944L -1.95973e-05 0.0186944L -1.95973e-05 18.9759L 3.1707 18.9759L 3.1707 11.591L 8.73613 11.591L 16.4421 18.9759L 21.1379 18.9759L 12.4821 11.591ZM 3.11717 9.1294L 3.11717 2.44019L 13.9671 2.44019C 14.5389 2.37777 15.113 2.53567 15.5725 2.8817C 15.9101 3.30928 16.0684 3.85131 16.0139 4.39342L 16.0139 7.25642C 16.0722 7.79675 15.9188 8.33863 15.5859 8.76819C 15.1198 9.11034 14.5414 9.2633 13.9671 9.19631L 3.11717 9.19631L 3.11717 9.1294Z"/>
<path id="path12_fill" d="M 11.666 -6.53243e-06L 8.99029 -6.53243e-06L -8.16554e-06 15.5725L 2.94326 15.5725L 4.93663 11.9336L 15.6394 11.9336L 17.6595 15.5725L 20.8703 15.5725L 11.666 -6.53243e-06ZM 6.15407 9.68596L 10.2746 2.27434L 14.4086 9.68596L 6.15407 9.68596Z"/>
<path id="path13_fill" d="M 13.8629 2.35655L 2.99964 2.35655L 2.99964 13.26L 13.8629 13.26L 13.8629 9.54076L 16.8061 10.1027L 16.8061 11.9221C 16.9256 12.9573 16.6377 13.9984 16.0034 14.8252C 15.1242 15.4446 14.0487 15.7206 12.9799 15.6012L 3.80232 15.6012C 2.74593 15.718 1.68268 15.4522 0.805564 14.852C 0.181599 14.0106 -0.0961243 12.962 0.0295931 11.9221L 0.0295931 3.72113C -0.0923126 2.67946 0.190219 1.63072 0.818915 0.791258C 1.69117 0.179589 2.75718 -0.0916738 3.81571 0.0286779L 12.9532 0.0286779C 14.0222 -0.0945463 15.099 0.181842 15.9766 0.804649C 16.6143 1.63492 16.9024 2.68149 16.7794 3.72113L 16.7794 5.2329L 13.8361 5.71451L 13.8361 2.38329L 13.8629 2.35655Z"/>
<path id="path14_fill" d="M 2.91651 0L 1.79642e-05 0L 1.79642e-05 15.5323L 2.91651 15.5323L 2.91651 0Z"/>
<path id="path15_fill" d="M 2.51517 3.11719C 2.58652 3.57205 2.64003 4.018 2.67571 4.45503C 2.67571 4.92327 2.67571 5.39152 2.67571 5.79287L 2.67571 15.4654L 2.28635e-05 15.4654L 2.28635e-05 -6.53243e-06L 2.2342 -6.53243e-06L 13.646 10.1676C 13.9896 10.4606 14.3115 10.778 14.6092 11.1175C 14.9365 11.4908 15.2403 11.884 15.519 12.2948C 15.4387 11.831 15.3762 11.3583 15.3316 10.8767C 15.3316 10.395 15.3316 9.90005 15.3316 9.39167L 15.3316 0.0267764L 18.0073 0.0267764L 18.0073 15.5992L 16.0006 15.5992L 4.3614 5.28449C 3.99442 4.9422 3.64604 4.58047 3.31785 4.20084C 3.03379 3.87263 2.7744 3.52384 2.54187 3.15732"/>
<path id="path16_fill" d="M 15.2123 2.35524L 2.91758 2.35524L 2.91758 13.2586L 15.2123 13.2586L 15.2123 9.03105L 8.84421 9.03105L 8.84421 6.91728L 18.2091 6.91728L 18.2091 11.9208C 18.3286 12.956 18.0407 13.9971 17.4064 14.8239C 16.5272 15.4433 15.4517 15.7193 14.3829 15.5999L 3.85409 15.5999C 2.78721 15.7194 1.71311 15.4485 0.83055 14.8373C 0.192847 14.007 -0.0952515 12.9604 0.0277961 11.9208L 0.0277961 3.71982C -0.0952515 2.68017 0.192847 1.6336 0.83055 0.803335C 1.70457 0.18375 2.77607 -0.0924807 3.84069 0.0273644L 14.3695 0.0273644C 15.4293 -0.0841501 16.4937 0.191477 17.3663 0.803335C 17.6757 1.17163 17.9085 1.59801 18.0509 2.05748C 18.1934 2.51695 18.2426 3.00026 18.1957 3.47902L 18.1957 3.92049L 15.2524 4.42888L 15.2524 2.3151L 15.2123 2.35524Z"/>
<path id="path17_fill" d="M 11.7998 2.58203L 11.7998 18.9572L 8.64244 18.9572L 8.64244 2.58203L -3.26622e-06 2.58203L -3.26622e-06 -1.02069e-06L 20.4957 -1.02069e-06L 20.4957 2.58203L 11.7998 2.58203Z"/>
<path id="path18_fill" d="M 1.95973e-05 15.5725L 1.95973e-05 -1.02069e-07L 15.6661 -1.02069e-07L 15.6661 2.31447L 2.94325 2.31447L 2.94325 6.31461L 10.6091 6.31461L 10.6091 8.62908L 2.94325 8.62908L 2.94325 13.2981L 15.8133 13.2981L 15.8133 15.5725L 1.95973e-05 15.5725Z"/>
<path id="path19_fill" d="M 11.666 -6.53243e-06L 8.99032 -6.53243e-06L -1.95973e-05 15.5725L 2.94325 15.5725L 4.93662 11.9336L 15.6394 11.9336L 17.6595 15.5725L 20.8436 15.5725L 11.666 -6.53243e-06ZM 6.1541 9.68596L 10.2746 2.27434L 14.4086 9.68596L 6.14071 9.68596L 6.1541 9.68596Z"/>
<path id="path20_fill" d="M 2.4215 2.88974C 2.4215 3.12163 2.4215 3.43381 2.4215 3.82624C 2.4215 4.46841 2.4215 4.88313 2.4215 5.07043L 2.4215 15.5858L 6.53243e-06 15.5858L 6.53243e-06 -6.53243e-06L 2.4215 -6.53243e-06L 10.1676 10.1007L 17.2849 -6.53243e-06L 19.9606 -6.53243e-06L 19.9606 15.5725L 17.2849 15.5725L 17.2849 5.05703C 17.2849 4.66906 17.2849 4.30786 17.2849 3.94664C 17.2849 3.58543 17.3518 3.23759 17.4187 2.90313C 17.2711 3.3589 17.0969 3.80562 16.897 4.24097C 16.7651 4.54427 16.599 4.83152 16.402 5.09717L 10.4218 13.1242L 9.64588 13.1242L 3.45166 5.09717C 3.21677 4.7961 3.01069 4.47359 2.83623 4.13392C 2.6248 3.70352 2.45024 3.25597 2.31445 2.79608"/>
</defs>
</svg>
