<svg width="41" height="33" viewBox="0 0 41 33" version="1.1" xmlns="http://www.w3.org/2000/svg" xmlns:xlink="http://www.w3.org/1999/xlink">
<title>mail</title>
<desc>Created using Figma</desc>
<g id="Canvas" transform="translate(-2864 2289)">
<g id="mail">
<g id="Vector">
<use xlink:href="#path0_stroke" transform="translate(2865 -2288)" fill="#FEFEFE"/>
</g>
<g id="Vector">
<use xlink:href="#path1_stroke" transform="translate(2865 -2284.12)" fill="#FEFEFE"/>
</g>
</g>
</g>
<defs>
<path id="path0_stroke" d="M 3.9 1L 35.1 1L 35.1 -1L 3.9 -1L 3.9 1ZM 35.1 1C 36.6988 1 38 2.30209 38 3.875L 40 3.875C 40 1.18541 37.7912 -1 35.1 -1L 35.1 1ZM 38 3.875L 38 27.125L 40 27.125L 40 3.875L 38 3.875ZM 38 27.125C 38 28.6979 36.6988 30 35.1 30L 35.1 32C 37.7912 32 40 29.8146 40 27.125L 38 27.125ZM 35.1 30L 3.9 30L 3.9 32L 35.1 32L 35.1 30ZM 3.9 30C 2.30121 30 1 28.6979 1 27.125L -1 27.125C -1 29.8146 1.20879 32 3.9 32L 3.9 30ZM 1 27.125L 1 3.875L -1 3.875L -1 27.125L 1 27.125ZM 1 3.875C 1 2.30209 2.30121 1 3.9 1L 3.9 -1C 1.20879 -1 -1 1.18541 -1 3.875L 1 3.875Z"/>
<path id="path1_stroke" d="M 39.571 0.820959C 40.0244 0.505611 40.1363 -0.117584 39.821 -0.570987C 39.5056 -1.02439 38.8824 -1.13631 38.429 -0.820959L 39.571 0.820959ZM 19.5 13.5625L 18.929 14.3835C 19.2722 14.6222 19.7278 14.6222 20.071 14.3835L 19.5 13.5625ZM 0.570987 -0.820959C 0.117584 -1.13631 -0.505611 -1.02439 -0.820959 -0.570987C -1.13631 -0.117584 -1.02439 0.505611 -0.570987 0.820959L 0.570987 -0.820959ZM 38.429 -0.820959L 18.929 12.7415L 20.071 14.3835L 39.571 0.820959L 38.429 -0.820959ZM 20.071 12.7415L 0.570987 -0.820959L -0.570987 0.820959L 18.929 14.3835L 20.071 12.7415Z"/>
</defs>
</svg>
