<svg width="47" height="34" viewBox="0 0 47 34" version="1.1" xmlns="http://www.w3.org/2000/svg" xmlns:xlink="http://www.w3.org/1999/xlink">
<title>youtube</title>
<desc>Created using Figma</desc>
<g id="Canvas" transform="translate(-3282 2288)">
<g id="youtube">
<g id="Vector">
<use xlink:href="#path0_stroke" transform="translate(3283 -2287)" fill="#FEFEFE"/>
</g>
<g id="Polygon">
<use xlink:href="#path1_fill" transform="matrix(6.02756e-17 1 -1 6.22043e-17 3313 -2279.38)" fill="#FEFEFE"/>
</g>
</g>
</g>
<defs>
<path id="path0_stroke" d="M 11.25 1L 33.75 1L 33.75 -1L 11.25 -1L 11.25 1ZM 33.75 1C 36.6732 1 39.2776 1.8441 41.1254 3.1581C 42.9754 4.47365 44 6.19963 44 8L 46 8C 46 5.38209 44.5062 3.10808 42.2845 1.52819C 40.0606 -0.0532428 37.04 -1 33.75 -1L 33.75 1ZM 44 8L 44 24L 46 24L 46 8L 44 8ZM 44 24C 44 25.8004 42.9754 27.5264 41.1254 28.8419C 39.2776 30.1559 36.6732 31 33.75 31L 33.75 33C 37.04 33 40.0606 32.0532 42.2845 30.4718C 44.5062 28.8919 46 26.6179 46 24L 44 24ZM 33.75 31L 11.25 31L 11.25 33L 33.75 33L 33.75 31ZM 11.25 31C 8.32682 31 5.72238 30.1559 3.87457 28.8419C 2.02459 27.5264 1 25.8004 1 24L -1 24C -1 26.6179 0.493812 28.8919 2.71552 30.4718C 4.93941 32.0532 7.95998 33 11.25 33L 11.25 31ZM 1 24L 1 8L -1 8L -1 24L 1 24ZM 1 8C 1 6.19963 2.02459 4.47365 3.87457 3.1581C 5.72238 1.8441 8.32682 1 11.25 1L 11.25 -1C 7.95998 -1 4.93941 -0.0532428 2.71552 1.52819C 0.493812 3.10808 -1 5.38209 -1 8L 1 8Z"/>
<path id="path1_fill" d="M 8.38095 0L 15.6391 12.375L 1.12283 12.375L 8.38095 0Z"/>
</defs>
</svg>
