<svg xmlns="http://www.w3.org/2000/svg" viewBox="0 0 637 91"><path d="M85.07 58.84a41.15 41.15 0 0 0 2.45-9.67c-.08 1.66-.29 3.3-.49 5a55.61 55.61 0 0 1-1.18 6.54 10.37 10.37 0 0 1-1 2.68 11.75 11.75 0 0 1-1.86 2.06 74.47 74.47 0 0 1-8 6.06l-.43.25A39 39 0 0 0 80.67 66a24.59 24.59 0 0 0 4.4-7.21zm-24-9.35c-.2 1.34-.32 2.57-.58 3.84a29 29 0 0 1-4.66 11.87 40.05 40.05 0 0 1-9.65 9.18c1.85-1.1 3.64-2.29 5.35-3.51a55.75 55.75 0 0 0 5.55-4.25 8.33 8.33 0 0 0 2-2.46A14 14 0 0 0 60 61.3a89.94 89.94 0 0 0 1.16-12.94zM75.39 42.8A32.11 32.11 0 0 1 70.5 56a38.2 38.2 0 0 1-8.9 8.64 94.65 94.65 0 0 0 8-5.44 21.18 21.18 0 0 0 3.18-2.9 8.58 8.58 0 0 0 1.55-3.57A55 55 0 0 0 75.45 45V42.81zM89.1 32.72a49.28 49.28 0 0 1-1.81 8.09 25.28 25.28 0 0 1-3.93 7.65 36 36 0 0 1-7.79 7.36c2.3-1.42 4.56-2.9 6.69-4.52a26 26 0 0 0 3.42-3 5.35 5.35 0 0 0 1-1.54 21.75 21.75 0 0 0 1.15-4.15 107.8 107.8 0 0 0 1.34-10.7 3.06 3.06 0 0 1-.13.82zM61.82 29.15a44.05 44.05 0 0 1-2.94 13.2 27.06 27.06 0 0 1-7 9.5 41.77 41.77 0 0 1-5.73 4.36c2.21-1.18 4.33-2.5 6.45-3.87a41.49 41.49 0 0 0 5.63-4.24 6.46 6.46 0 0 0 1.55-2 18.11 18.11 0 0 0 1.08-4.15 96.18 96.18 0 0 0 1-12.82zM77.09 21a51.71 51.71 0 0 1-2 9.78A26.46 26.46 0 0 1 72 37.54a33.68 33.68 0 0 1-8.62 8.58c-.5.33-1 .67-1.5 1 2.58-1.44 5.12-3 7.56-4.67a30.35 30.35 0 0 0 3.89-3.1 5.87 5.87 0 0 0 1.34-1.9 21.1 21.1 0 0 0 1.11-4.19A107 107 0 0 0 77.13 21zm13.65-5.14a52.65 52.65 0 0 1-2 7.87 26.49 26.49 0 0 1-2.68 5.7 28.33 28.33 0 0 1-4.41 5.22 34 34 0 0 1-5 3.89c1.65-.87 3.24-1.86 4.8-2.85a40.6 40.6 0 0 0 5.22-3.85 6.69 6.69 0 0 0 1.7-2.21 16.39 16.39 0 0 0 .75-2.56 64.71 64.71 0 0 0 1.16-6.48c.28-2.27.59-4.55.72-6.85-.09.7-.17 1.34-.29 2.09zM29.47 28.54A88.63 88.63 0 0 0 40.7 33.89a19.24 19.24 0 0 0 3.93 1 10.53 10.53 0 0 0 4.43-.79A88.3 88.3 0 0 0 60.94 28.6a49 49 0 0 1-6.78 2.53 30.77 30.77 0 0 1-11.63 1.24 41.07 41.07 0 0 1-11.71-3.18c-.45-.19-.88-.43-1.34-.59zm16.8-8.09c.44.25.92.44 1.34.68A82.28 82.28 0 0 0 57.9 25.43a11.05 11.05 0 0 0 5.11.72 30 30 0 0 0 6-2.06c2.43-1.07 4.8-2.27 7.14-3.55-.47.17-.92.39-1.34.58A34.42 34.42 0 0 1 60.19 24 43.31 43.31 0 0 1 46.28 20.44zm15.37-7.36a102.62 102.62 0 0 0 10.86 4.32 18 18 0 0 0 4.66 1 19.59 19.59 0 0 0 5.74-1.69c2.52-1.06 5-2.3 7.37-3.6l-1.34.58a33.71 33.71 0 0 1-12.42 2.68 41.74 41.74 0 0 1-13.23-2.68c-.54-.19-1.06-.41-1.59-.59zM46.54 6.31c.51.2 1 .43 1.51.66C50.48 8 52.94 9 55.44 9.9a20.73 20.73 0 0 0 5.35 1.23A17.27 17.27 0 0 0 65.57 10c2.37-.87 4.67-1.89 6.93-3l1.34-.67c-.43.13-.83.32-1.24.47A33.62 33.62 0 0 1 58.42 9.18 45 45 0 0 1 46.49 6.31zM32.38 0l1.51.66q2.46 1.1 5 2a26.58 26.58 0 0 0 6.69 1.78 15.85 15.85 0 0 0 4.48-1c2.38-.79 4.71-1.74 7-2.68L58.78.08A39.64 39.64 0 0 1 46 2.76 36 36 0 0 1 34.32.68C33.66.47 33 .21 32.38 0zM31.12 13.07l1.34.67a76 76 0 0 0 8.8 3.71 11.65 11.65 0 0 0 5.35.82 32.37 32.37 0 0 0 5.86-1.87c2.46-1 4.87-2.11 7.25-3.29-1.47.6-3 1.15-4.47 1.61a31.62 31.62 0 0 1-12.88 1.43 43.28 43.28 0 0 1-11.25-3.05zm-14-6.84c.5.27 1 .51 1.5.75a70.71 70.71 0 0 0 7.49 3.16 16.7 16.7 0 0 0 4.43 1 12.58 12.58 0 0 0 2.88-.51A88 88 0 0 0 44.55 6.33a53.51 53.51 0 0 1-6.54 2 31.37 31.37 0 0 1-9.36.86A37.65 37.65 0 0 1 18.5 6.8c-.45-.17-.9-.36-1.34-.56zm-2.7 14.21a73 73 0 0 0 10.8 5 10.06 10.06 0 0 0 4.94.72A33.87 33.87 0 0 0 36 24.28q3.59-1.44 7.06-3.16c.45-.24.94-.43 1.34-.68a50.39 50.39 0 0 1-5.35 2 32.23 32.23 0 0 1-13.38 1.42 39.62 39.62 0 0 1-11.36-3.37zM17 16.17a17.47 17.47 0 0 1-5.46 0A35.79 35.79 0 0 1 .44 13c.37.21.78.43 1.16.63a69.1 69.1 0 0 0 6.34 3.05 24.79 24.79 0 0 0 5 1.59 7.54 7.54 0 0 0 2.76-.11 43 43 0 0 0 5.69-1.79c2.14-.82 4.28-1.66 6.37-2.68l1.61-.79A120 120 0 0 1 17 16.12zM0 13.67a2.4 2.4 0 0 0 .09.68 97.58 97.58 0 0 0 2 13 9 9 0 0 0 1.48 3.45 17 17 0 0 0 2.68 2.41c1.44 1.11 3 2.13 4.5 3.09 1.12.68 2.23 1.43 3.42 2-.33-.21-.67-.41-1-.66a31.64 31.64 0 0 1-7.87-8 27.73 27.73 0 0 1-3.17-6.84 55.4 55.4 0 0 1-1.85-7.6zm0 0l.29 1.59zM2 32.05c.15 1.83.37 3.65.62 5.47A61 61 0 0 0 4 45 8 8 0 0 0 5.4 48.12a26.42 26.42 0 0 0 4.09 3.6c2 1.47 4 2.86 6.18 4.16A34 34 0 0 1 6.88 47a30.42 30.42 0 0 1-3.61-8.54 50.72 50.72 0 0 1-1.34-6.39zM3.95 51.29c.19 1.82.44 3.63.74 5.42a30.47 30.47 0 0 0 1.44 5.85 7.81 7.81 0 0 0 2.06 2.68 67.41 67.41 0 0 0 7.37 5.71l1.34.94a37.85 37.85 0 0 1-8-8A33.14 33.14 0 0 1 4 51.08c-.12-.66-.23-1.34-.29-2a21.19 21.19 0 0 0 .2 2.15zM15.1 33.53a19.43 19.43 0 0 0 1.14 4 7.36 7.36 0 0 0 1.87 2.34 41.69 41.69 0 0 0 4.59 3.45q2.92 1.94 6 3.67l-.95-.64-.33-.24c-4.19-3-8.11-6.69-10.21-11.52A56.8 56.8 0 0 1 13.69 22s.09 1.34.17 2.26zM28.88 29a11.06 11.06 0 0 0 0 1.34c0 1.19.19 3.09.24 4.28A63.14 63.14 0 0 0 30.37 44a8 8 0 0 0 1.43 3.32 17.68 17.68 0 0 0 2.38 2.22 65.42 65.42 0 0 0 5.55 3.87c1.58 1 3.17 2 4.8 2.86A42.7 42.7 0 0 1 41 53.75a31.25 31.25 0 0 1-8.33-9.66A41 41 0 0 1 29 30.62c0-.52-.13-1.57-.13-1.57zM15.29 40.23c0 1.62.21 3.24.36 4.86a63.74 63.74 0 0 0 1.19 7.59 8.58 8.58 0 0 0 1.67 3.83 30.37 30.37 0 0 0 4.7 4c2 1.43 4 2.8 6.07 4-.95-.71-1.89-1.42-2.78-2.18A30.37 30.37 0 0 1 18.78 53a34.4 34.4 0 0 1-2.43-6.9 44.61 44.61 0 0 1-1.06-5.87zm14.37 8.23a93.63 93.63 0 0 0 1.26 12.83 13.26 13.26 0 0 0 1 3.22 9.82 9.82 0 0 0 2 2.34 55.71 55.71 0 0 0 5.18 4q2.63 1.83 5.35 3.52a7.23 7.23 0 0 0-.62-.45c-1.07-.79-2.1-1.62-3.1-2.49a30 30 0 0 1-8-10.34 41.19 41.19 0 0 1-2.9-11.61 7.24 7.24 0 0 0-.13-1zm-13 8.83c.12 2.26.35 4.52.63 6.78a33.6 33.6 0 0 0 1.49 7 7.33 7.33 0 0 0 1.93 2.68 80 80 0 0 0 9.69 7.41c-.82-.64-1.65-1.34-2.42-2a31 31 0 0 1-8.41-10.66 39.83 39.83 0 0 1-2.94-11.35zM30.86 72.91a32.83 32.83 0 0 0 1.34 7.24 7.27 7.27 0 0 0 2 2.77c.71.67 1.43 1.34 2.19 1.94 2.68 2.19 5.53 4.2 8.4 6.14l-1.27-1a39.16 39.16 0 0 1-8.74-9.36A33 33 0 0 1 30.62 67.9c-.07-.58-.09-1.16-.17-1.74 0 2.26.2 4.52.4 6.78zm29.67-6.84c0 .41-.23 2.37-.28 2.86A25.42 25.42 0 0 1 56.6 80.28a39.36 39.36 0 0 1-10 10.54 97.07 97.07 0 0 0 8.88-6.5 16.36 16.36 0 0 0 3-3.08 12.52 12.52 0 0 0 1.23-3.92 61.92 61.92 0 0 0 .79-7.67zm13.69-5.35a41 41 0 0 1-3.6 10.09A36.87 36.87 0 0 1 61.06 81l1.24-.83c2.26-1.54 4.48-3.14 6.61-4.88a22.07 22.07 0 0 0 2.93-2.82A8.76 8.76 0 0 0 73.26 69a55.89 55.89 0 0 0 .83-5.7c.15-1.51.21-1.82.29-3.3zm0 0a41 41 0 0 1-3.6 10.09A36.87 36.87 0 0 1 61.07 81l1.24-.83c2.26-1.54 4.48-3.14 6.61-4.88a22.08 22.08 0 0 0 2.93-2.82A8.76 8.76 0 0 0 73.27 69a55.92 55.92 0 0 0 .83-5.7c.15-1.51.21-1.82.29-3.3zM143.7 44.78a3.71 3.71 0 0 0-2.43-1.14 4 4 0 0 0 2.39-.95 3.08 3.08 0 0 0 .76-2.27V38.21a3.67 3.67 0 0 0-.94-2.81 4.44 4.44 0 0 0-3.08-.87h-15.2v19h14.14a6.92 6.92 0 0 0 4-.91 3.2 3.2 0 0 0 1.34-2.8V47.36a3.75 3.75 0 0 0-.83-2.58zm-15.21-7.71h10.93a2.38 2.38 0 0 1 1.53.36 1.69 1.69 0 0 1 .4 1.34v1.9a1.7 1.7 0 0 1-.41 1.34 2.3 2.3 0 0 1-1.51.37H128.49V37.07zm13 11.57a2.68 2.68 0 0 1-.45 1.75 2.21 2.21 0 0 1-1.65.48H128.49v-6.1h10.93a2.18 2.18 0 0 1 1.65.49 2.68 2.68 0 0 1 .45 1.78v1.58zM155.81 37.91c0 .37.08.76.11 1.16s0 .95 0 1.62V53.49h-2.68v-19h2.58L165 46.88l8.59-12.35h2.9v19h-2.88v-14a10.5 10.5 0 0 1 .08-1.51q-.36.74-.64 1.24a8.82 8.82 0 0 1-.5.8L165.35 50.5h-.8L157 40.24l-.09-.12a8.13 8.13 0 0 1-1.18-2.21M186.39 53.49v-19h18.23v2.54H189.56v5.27h9.2v2.52h-9.2v6h15.21v2.6zM226 53.49v-19h18v2.58H229.18v6.21h8.47v2.53h-8.47v7.64zM265.13 38.7a4.36 4.36 0 0 0-3-.78H250.88a4.36 4.36 0 0 0-3 .78 4 4 0 0 0-.8 2.92v8.17a4 4 0 0 0 .79 2.92 4.43 4.43 0 0 0 3 .76h11.24a4.4 4.4 0 0 0 3-.78 4 4 0 0 0 .8-2.9v-8.2a4 4 0 0 0-.8-2.92zM263 51.13H250V40.23h13zM283.21 47.38h2.06a3.64 3.64 0 0 0 2.5-.7 3 3 0 0 0 .76-2.27V40.94a3 3 0 0 0-.76-2.3 3.61 3.61 0 0 0-2.5-.71H272.76V53.5h2.94V47.38h4.24l6.19 6.1h3.92zm-7.51-2.17v-5H284a1.83 1.83 0 0 1 1.34.36 1.69 1.69 0 0 1 .36 1.22v1.87a1.74 1.74 0 0 1-.33 1.26 2 2 0 0 1-1.34.32H275.7zM297.59 40.8V53.5h-2.34V37.91h2.42L305.42 48l7.12-10.1h2.68V53.48h-2.68V41.86a5.3 5.3 0 0 1 .13-1 12.25 12.25 0 0 1-.52 1.34 4.35 4.35 0 0 1-.5.86l-6 8h-.78l-6.19-8a6.09 6.09 0 0 1-.62-1 8.48 8.48 0 0 1-.52-1.34M325.41 37.91V51.13h11.36V37.91h3V49.79a4 4 0 0 1-.8 2.92 4.43 4.43 0 0 1-3 .76h-9.63a4.39 4.39 0 0 1-3-.78 4 4 0 0 1-.8-2.9V37.9h3zM346.94 53.48V37.91h2.94V51.13H362v2.35zM377.07 37.91h-2.68l-9 15.57h2.94l2-3.64H381l2 3.64h3.18zm-5.51 9.69l4.12-7.41 4.13 7.41zM418.45 46.1h2.77a4.45 4.45 0 0 0 3.08-.87 3.64 3.64 0 0 0 .94-2.8V38.21a3.67 3.67 0 0 0-.94-2.81 4.45 4.45 0 0 0-3.08-.87H406v19h3.17V46.1h5.57l7.71 7.38h4.7zm-9.36-2.46V37h10.85a2.26 2.26 0 0 1 1.61.44A2.1 2.1 0 0 1 422 38.9v2.86a2.1 2.1 0 0 1-.43 1.51 2.29 2.29 0 0 1-1.62.43H409.09zM442.44 37.91h-2.68l-9 15.57h2.94l2-3.64h10.7l2 3.64h3.21zm-5.51 9.69L441 40.18l4.13 7.41zM469.73 40.23H458.87v10.9h10.86V47.41l2.94.56v1.82a4 4 0 0 1-.8 2.9 4.4 4.4 0 0 1-3 .78h-9.18a4.44 4.44 0 0 1-3-.75 4.09 4.09 0 0 1-.78-2.93v-8.2a4.09 4.09 0 0 1 .79-2.93 4.36 4.36 0 0 1 3-.76h9.14a4.36 4.36 0 0 1 3 .78 4 4 0 0 1 .8 2.92V43.1l-2.94.48V40.25zM481.76 37.95h-2.92V53.48h2.92zM491.39 41q.11.68.16 1.34v11h-2.68V37.91h2.23l11.41 10.17a9.35 9.35 0 0 1 1 .95 12 12 0 0 1 .91 1.18q-.12-.7-.19-1.42V37.94h2.68V53.51h-2L493.23 43.19a14 14 0 0 1-1-1.08 8.79 8.79 0 0 1-.78-1M528.91 40.23H516.62v10.9h12.29V46.9h-6.37V44.79h9.36v5a4 4 0 0 1-.8 2.9 4.4 4.4 0 0 1-3 .78H517.55a4.44 4.44 0 0 1-3-.76 4 4 0 0 1-.8-2.92v-8.2a4 4 0 0 1 .8-2.92 4.36 4.36 0 0 1 3-.78h10.53a4.42 4.42 0 0 1 3 .78 3.61 3.61 0 0 1 .83 2.68v.44L529 42.3V40.19zM560.73 37.11V53.49h-3.16V37.11h-8.64V34.53h20.5v2.58zM572.78 53.48V37.91h15.67v2.31H575.72v4h7.67v2.31h-7.67v4.67h12.87v2.27zM603.26 37.91h-2.68l-9 15.57h2.94l2-3.64h10.7l2 3.64h3.18zm-5.51 9.69l4.12-7.41L606 47.6h-8.25zM619.46 40.8V53.5H617V37.91h2.42L627.21 48l7.12-10.1H637V53.48h-2.68V41.86a5.3 5.3 0 0 1 .13-1 12.25 12.25 0 0 1-.52 1.34 4.35 4.35 0 0 1-.49.86l-6 8h-.78l-6.19-8a6.09 6.09 0 0 1-.62-1 8.48 8.48 0 0 1-.52-1.34" fill="#fff"/></svg>