<svg xmlns="http://www.w3.org/2000/svg" viewBox="0 0 980 980"><defs><style>.a{fill:#fff;}.b{fill:#ededed;}.c{fill:#c6c6c6;}.d{fill:#b2b2b2;}.e,.f,.g,.j{fill:none;stroke-miterlimit:10;}.e,.f,.g{stroke:#fff;}.f{stroke-dasharray:20.3354 20.3354;}.g{stroke-dasharray:19.8011 19.8011;}.h{fill:#dadada;}.i{fill:#c8102e;}.j{stroke:#706f6f;stroke-width:3px;}.k{fill:#1d1d1b;}.l{fill:#be1622;}</style></defs><title>Artboard 1</title><rect class="a" width="980" height="980"/><polygon class="b" points="776.1 980 903.6 980 980 900.1 980 688.6 895.8 597.1 777.4 467.1 339.3 0 210.1 0 426.3 223.1 417.1 267 0 676.9 0 807.6 483.4 340.5 497.7 327.2 510 338.2 937.7 792.7 937.7 819.3 776.1 980"/><polygon class="c" points="980 733.2 868.5 619.7 767.3 485.7 306.6 0 229.1 0 447.3 219.3 433.9 274.4 0 706.9 0 779.2 476.3 323.5 494.9 310.1 509.8 316 957.9 787.9 957.9 819.2 795.3 980 886.4 980 976.5 886.9 980 884.7 980 733.2"/><polygon class="d" points="980 690.6 980 529.7 472 0 333.9 0 980 690.6"/><polygon class="d" points="980 530.8 980 372.7 892.8 279.2 624.4 0 467.7 0 980 530.8"/><line class="e" x1="980" y1="590" x2="973.09998" y2="582.70001"/><line class="f" x1="959.09998" y1="568" x2="434.39999" y2="14.6"/><line class="e" x1="427.39999" y1="7.3" x2="420.5"/><line class="e" x1="980" y1="461" x2="973.09998" y2="453.70001"/><line class="g" x1="959.5" y1="439.29999" x2="558.70001" y2="14.5"/><line class="e" x1="551.90002" y1="7.3" x2="545"/><line class="e" x1="980" y1="636.29999" x2="371.70001"/><line class="e" x1="980" y1="402" x2="600.29999"/><polygon class="h" points="980 631.3 939.4 672.1 980 719.4 980 676.4 978.9 675.1 980 673.9 980 631.3"/><path class="i" d="M291.9,713.8V691.7h5.2v8.6h16.1v-8.6h5.2v22.1h-5.2v-9.5H297.1v9.5Z"/><path class="i" d="M327.6,700c0-1.6.3-2.8,1-3.4.6-.6,1.9-.9,3.7-.9h14c1.9,0,3.1.3,3.8.9a4.737,4.737,0,0,1,1,3.4v9.6c0,1.7-.3,2.8-1,3.4-.6.6-1.9.9-3.7.9h-14c-1.9,0-3.1-.3-3.7-.9a4.737,4.737,0,0,1-1-3.4V700Zm4.4,10.3h14.6V699H332Z"/><path class="i" d="M375.4,698.9H363v3.8h11.8c1.9,0,3.1.3,3.7.9a4.737,4.737,0,0,1,1,3.4v2.5c0,1.7-.3,2.8-1,3.4a5.71124,5.71124,0,0,1-3.7.9H363c-1.9,0-3.1-.3-3.8-.9s-1-1.7-1-3.4V709l3.9-.7v2.1h13.3v-4.1H363.7c-1.9,0-3.1-.3-3.8-.9s-1-1.7-1-3.4v-2c0-1.6.3-2.8,1-3.4s1.9-.9,3.8-.9h10.8a6.04292,6.04292,0,0,1,3.8.9,3.85464,3.85464,0,0,1,1,3.1v.4l-3.8.8V698.9Z"/><path class="i" d="M402.6,698.9H390.1v3.8H402c1.9,0,3.1.3,3.7.9a4.737,4.737,0,0,1,1,3.4v2.5c0,1.7-.3,2.8-1,3.4a5.71124,5.71124,0,0,1-3.7.9H390.2c-1.9,0-3.1-.3-3.8-.9s-1-1.7-1-3.4V709l3.9-.7v2.1h13.3v-4.1H390.9c-1.9,0-3.1-.3-3.8-.9s-1-1.7-1-3.4v-2c0-1.6.3-2.8,1-3.4s1.9-.9,3.8-.9h10.8a6.04292,6.04292,0,0,1,3.8.9,3.85464,3.85464,0,0,1,1,3.1v.4l-3.8.8V698.9Z"/><path class="i" d="M413.3,713.8v-2l13.3-12.9h-12v-3.2h19.1v1.8l-13.5,13h13.5v3.3H413.3Z"/><path class="i" d="M445.1,695.7v14.7h12.6V695.7h4.5v13.8c0,1.6-.3,2.8-1,3.4s-1.9.9-3.8.9h-12c-1.8,0-3.1-.3-3.7-.9a4.737,4.737,0,0,1-1-3.4V695.7Zm3.3-2.4,4.3-7.2h4.6l-6.2,7.2Z"/><path class="i" d="M491.3,695.7v14.7h12.6V695.7h4.5v13.8c0,1.6-.3,2.8-1,3.4s-1.9.9-3.8.9h-12c-1.8,0-3.1-.3-3.7-.9a4.737,4.737,0,0,1-1-3.4V695.7Z"/><path class="i" d="M527.2,698.9v14.9h-4.4V698.9H514v-3.2h22v3.2Z"/><path class="i" d="M556.1,699H544.2v11.3h11.9v-3.9l4.5.9v2.1c0,1.6-.3,2.8-1,3.4s-1.9.9-3.8.9H544.5c-1.8,0-3.1-.3-3.7-.9-.7-.6-1-1.7-1-3.4V700c0-1.6.3-2.8,1-3.4.6-.6,1.9-.9,3.7-.9h11.3c1.9,0,3.1.3,3.8.9a4.73713,4.73713,0,0,1,1,3.4v1.8l-4.5.6Z"/><path class="i" d="M564.3,713.8l10.8-18.1h4.2l10.9,18.1h-5l-2.3-4h-12l-2.3,4Zm8.5-7.3h8.3l-4.2-7.6Z"/><path class="i" d="M622.5,713.8V695.9h-4.7v-3l9.4-1.4v22.3h-4.7Z"/><path class="i" d="M646,704l1.3-12.3h19.1l-.4,3.8h-15.5l-.5,4.3c1.9-.2,3.6-.3,5-.4s2.8-.1,3.9-.1c3.7,0,6.4.6,8.2,1.9a6.408,6.408,0,0,1,2.7,5.6,6.2818,6.2818,0,0,1-2.9,5.7q-2.85,1.8-9.3,1.8c-2.2,0-4.3-.1-6.1-.2a26.348,26.348,0,0,1-4.6-.7l-1.1-4.3c2.2.4,4.2.7,6.1.9a53.55057,53.55057,0,0,0,5.5.3,16.16784,16.16784,0,0,0,5.9-.8,2.98813,2.98813,0,0,0,1.7-2.8,2.71159,2.71159,0,0,0-1.7-2.6,14.69689,14.69689,0,0,0-5.6-.8c-1.7,0-3.5.1-5.5.2S648.3,703.7,646,704Z"/><path class="i" d="M683.4,700.5c1.7-.3,3.3-.4,5-.6a39.35463,39.35463,0,0,1,4.8-.2c3.6,0,6,.4,7.3,1.2s2,2.3,2,4.5v3a4.83631,4.83631,0,0,1-1.8,4.1c-1.2.9-3.1,1.3-5.7,1.3h-9.4q-4.2,0-5.7-1.5t-1.5-5.4v-2.9c0-4.1,1.4-7.3,4.3-9.6s6.9-3.4,12.1-3.4h.6a3.44578,3.44578,0,0,1,.9.1l3.1,3.6h-1.4c-4.7,0-8.1.4-10.2,1.3A7.79715,7.79715,0,0,0,683.4,700.5Zm-.3,3.3a.74946.74946,0,0,1-.1.5v.7c0,2.1.3,3.5.8,4,.6.5,1.8.8,3.7.8h6.2a6.213,6.213,0,0,0,3.2-.6,2.33549,2.33549,0,0,0,.9-2.1V706a2.18273,2.18273,0,0,0-1-2.1,8.40151,8.40151,0,0,0-3.9-.6c-1.6,0-3.2,0-4.8.1S684.8,703.7,683.1,703.8Z"/><path class="i" d="M715.3,707.2h.8a.98422.98422,0,0,1,.8.3c.2.2.2.6.2,1.2v3.5a1.8763,1.8763,0,0,1-.3,1.3,2.37336,2.37336,0,0,1-1.5.3h-3.8a.98422.98422,0,0,1-.8-.3c-.2-.2-.2-.6-.2-1.3v-3.5a1.8763,1.8763,0,0,1,.3-1.3,2.37336,2.37336,0,0,1,1.5-.3h3Z"/><path d="M651.6,434.3l-1.1-1.1a.48333.48333,0,0,1,0-.7l15.8-15.3a.48333.48333,0,0,1,.7,0l1,1.1c.2.2.3.4.2.6L662.6,438l.1.1L675,426.2a.48333.48333,0,0,1,.7,0l1.1,1.1a.48333.48333,0,0,1,0,.7L661,443.3a.48333.48333,0,0,1-.7,0l-.9-1c-.2-.2-.2-.5-.2-.9l5.5-19-.1-.1-12.3,11.9C652,434.5,651.8,434.5,651.6,434.3Z"/><path d="M669,452.3l-1.3-1.3a5.51266,5.51266,0,0,1-1.7-3.8,5.03877,5.03877,0,0,1,1.8-3.7l5.5-5.3a5.273,5.273,0,0,1,3.8-1.7,5.03893,5.03893,0,0,1,3.7,1.8l5.4,5.6a.48333.48333,0,0,1,0,.7l-12.4,12a.48333.48333,0,0,1-.7,0l-1.1-1.2a.48333.48333,0,0,1,0-.7l1-1-.1-.1C671.6,454.1,670.3,453.6,669,452.3Zm6.7-1.1,7.2-7c.2-.1.1-.3,0-.5l-3.5-3.6c-1.4-1.4-2.8-1.4-4.3,0l-5.3,5.2a2.73207,2.73207,0,0,0-.2,4.3l1.4,1.5a3.09312,3.09312,0,0,0,2.3,1.2A3.74721,3.74721,0,0,0,675.7,451.2Z"/><path d="M682.4,464.8l-1.4-1.4a4.93851,4.93851,0,0,1-1.6-3.7,5.35647,5.35647,0,0,1,1.9-3.7l4.8-4.6a5.273,5.273,0,0,1,3.8-1.7,5.03893,5.03893,0,0,1,3.7,1.8l5.4,5.6a.48333.48333,0,0,1,0,.7L686.1,470a5.51259,5.51259,0,0,1-3.8,1.7,5.03893,5.03893,0,0,1-3.7-1.8l-4.6-4.7c-.2-.3-.3-.5,0-.7l1-.9a.48333.48333,0,0,1,.7,0l4.3,4.5c1.4,1.4,2.8,1.4,4.3,0l2-1.9-.1-.1A3.56475,3.56475,0,0,1,682.4,464.8Zm6.6-1.2,6.5-6.3c.2-.1.1-.3,0-.5l-3.5-3.6c-1.4-1.4-2.8-1.4-4.3,0l-4.7,4.5a2.73207,2.73207,0,0,0-.2,4.3l1.4,1.4a3.16581,3.16581,0,0,0,4.8.2Z"/><path d="M686.5,478.5l-1.1-1.1a.48333.48333,0,0,1,0-.7l1-.9a.48333.48333,0,0,1,.7,0l.6.6c1.1,1.1,2.1,1.6,3.2,1.4a10.58828,10.58828,0,0,0,3.1-1.1l-.7-.7a.75479.75479,0,0,1-.1-.8l8-15.1c.2-.3.4-.3.6-.1l1.2,1.2a.75479.75479,0,0,1,.1.8l-7.4,13.5.1.1,13.8-6.9a.52876.52876,0,0,1,.8.1l1.1,1.2c.3.3.3.5-.1.7l-15.9,8a12.6284,12.6284,0,0,1-4.9,1.6A5.14348,5.14348,0,0,1,686.5,478.5Z"/><path d="M702.5,487l-1.1-1.2a.48333.48333,0,0,1,0-.7l17.3-16.8a.48333.48333,0,0,1,.7,0l1.1,1.2a.48333.48333,0,0,1,0,.7L703.2,487A.48333.48333,0,0,1,702.5,487Zm18.8-6.8,1.2,1.3c.1.1.2.3.1.4,0,.1-.2.2-.4.2l-9.5,1.9-.1.1-2.3,10.3c-.1.2-.1.3-.3.3a.39931.39931,0,0,1-.4-.2l-1.2-1.2a1.12843,1.12843,0,0,1-.3-1.1l2.3-9.9a.82142.82142,0,0,1,.5-.5l9.3-1.9A1.06764,1.06764,0,0,1,721.3,480.2Z"/><path d="M717.6,502.6l-2.1-2.2a5.51266,5.51266,0,0,1-1.7-3.8,5.03877,5.03877,0,0,1,1.8-3.7l5.5-5.3a5.273,5.273,0,0,1,3.8-1.7,5.03893,5.03893,0,0,1,3.7,1.8l2.1,2.2a5.51266,5.51266,0,0,1,1.7,3.8,5.03877,5.03877,0,0,1-1.8,3.7l-5.5,5.3a5.273,5.273,0,0,1-3.8,1.7A4.88064,4.88064,0,0,1,717.6,502.6Zm-.3-3.6,1.7,1.8c1.4,1.4,2.8,1.4,4.3,0l5.4-5.2c1.5-1.4,1.5-2.9.1-4.3l-1.7-1.8c-1.4-1.4-2.8-1.4-4.3,0l-5.4,5.2C715.9,496.2,715.9,497.6,717.3,499Zm17.1-15.1,1,1.1c.3.3.2.5-.2.5l-4.6.6a.84376.84376,0,0,1-.7-.2l-.6-.6c-.2-.2-.1-.4.2-.5l4-1.1C733.9,483.5,734.1,483.6,734.4,483.9Zm3.3,3.4,1,1c.3.3.2.4-.2.5l-4.6.6a1.16559,1.16559,0,0,1-.7-.2l-.6-.6c-.2-.3-.2-.4.2-.5l4-1.1A.85519.85519,0,0,1,737.7,487.3Z"/><path d="M725.9,511.2l-1.1-1.2a.48333.48333,0,0,1,0-.7l12.4-12a.48333.48333,0,0,1,.7,0l1.1,1.2a.48333.48333,0,0,1,0,.7l-1,1,.1.1a3.0654,3.0654,0,0,1,1.9,0,4.07914,4.07914,0,0,1,2,1.3l1,1c.2.2.2.4,0,.7l-1,.9c-.1.1-.2.2-.3.2s-.2-.1-.3-.2l-1.3-1.4a3.01353,3.01353,0,0,0-2.4-1.1,3.48146,3.48146,0,0,0-2.5,1.2l-8.5,8.2C726.4,511.5,726.1,511.5,725.9,511.2Z"/><path d="M738,523.8l-2.1-2.2a5.51272,5.51272,0,0,1-1.7-3.8,5.03882,5.03882,0,0,1,1.8-3.7l5.5-5.3a5.273,5.273,0,0,1,3.8-1.7,5.03893,5.03893,0,0,1,3.7,1.8l2.1,2.2a5.51272,5.51272,0,0,1,1.7,3.8,5.03882,5.03882,0,0,1-1.8,3.7l-5.5,5.3a5.273,5.273,0,0,1-3.8,1.7A5.42862,5.42862,0,0,1,738,523.8Zm-.3-3.6,1.7,1.8c1.4,1.4,2.8,1.4,4.3,0l5.4-5.2c1.5-1.4,1.5-2.9.1-4.3l-1.7-1.8c-1.4-1.4-2.8-1.4-4.3,0l-5.4,5.2C736.4,517.3,736.3,518.7,737.7,520.2ZM749.1,505l2.6-2.5a.48333.48333,0,0,1,.7,0l1.1,1.1c.2.2.2.4,0,.7l-2.6,2.5a.48333.48333,0,0,1-.7,0l-1.1-1.1C748.8,505.4,748.8,505.2,749.1,505Zm4.2,4.4,2.6-2.5a.48333.48333,0,0,1,.7,0l1.1,1.1c.2.2.2.4,0,.7l-2.6,2.5a.48333.48333,0,0,1-.7,0l-1.1-1.1C753.1,509.8,753.1,509.6,753.3,509.4Z"/><path d="M749.1,535.3l-4.4-4.6a.48333.48333,0,0,1,0-.7l.9-.9c.2-.2.4-.2.7,0l4.2,4.3c1.3,1.3,2.4,1.5,3.4.6l.5-.5a2.58984,2.58984,0,0,0,.6-3.1l-1.6-4.3a5.283,5.283,0,0,1-.5-3.1,4.03211,4.03211,0,0,1,1.4-2.4c2.1-2,4.3-1.9,6.5.4l4.1,4.2a.48333.48333,0,0,1,0,.7l-.9.9a.48333.48333,0,0,1-.7,0l-3.7-3.9a2.8099,2.8099,0,0,0-1.7-1,1.68753,1.68753,0,0,0-1.4.4l-.4.4c-.7.7-.8,1.7-.2,3.1l1.6,4.3a5.11958,5.11958,0,0,1,.4,3.1,6.40279,6.40279,0,0,1-1.9,2.7C753.7,538,751.5,537.8,749.1,535.3Z"/><path d="M756.1,541.8l12.4-12a.48333.48333,0,0,1,.7,0l1.1,1.2a.48333.48333,0,0,1,0,.7l-12.4,12a.48333.48333,0,0,1-.7,0l-1.1-1.2C755.8,542.2,755.8,542,756.1,541.8ZM771,527.4l2.4-2.3a.48333.48333,0,0,1,.7,0l1.1,1.2a.48333.48333,0,0,1,0,.7l-2.4,2.3a.48333.48333,0,0,1-.7,0l-1.1-1.2C770.7,527.8,770.7,527.6,771,527.4Z"/><path d="M772.2,559.2l-1.4-1.4a4.93856,4.93856,0,0,1-1.6-3.7,5.35647,5.35647,0,0,1,1.9-3.7l8.9-8.6a.48333.48333,0,0,1,.7,0l1.1,1.2a.48333.48333,0,0,1,0,.7l-8.9,8.6a2.73207,2.73207,0,0,0-.2,4.3l1.4,1.5a3.09312,3.09312,0,0,0,2.3,1.2,2.96183,2.96183,0,0,0,2.3-1.1l8.7-8.4a.48333.48333,0,0,1,.7,0l1.1,1.2a.48333.48333,0,0,1,0,.7l-12.4,12a.48333.48333,0,0,1-.7,0l-1.1-1.2a.48333.48333,0,0,1,0-.7l1-1-.1-.1C774.8,561,773.5,560.5,772.2,559.2Zm19.1-16.4,1.5,1.6a.3674.3674,0,0,1,.1.3c0,.1-.1.2-.3.2l-4.9.4a1.13545,1.13545,0,0,1-.8-.3l-.8-.8c-.2-.2-.2-.4.2-.5l4.1-1A.72169.72169,0,0,1,791.3,542.8Z"/><path d="M792,556.8l-1.4-1.4a.48333.48333,0,0,1,0-.7l1-.9a.48333.48333,0,0,1,.7,0l1.4,1.4c.2.2.3.2.5,0l2.2-2.1a.48333.48333,0,0,1,.7,0l1.1,1.2a.48333.48333,0,0,1,0,.7l-2.2,2.1c-.2.1-.1.3,0,.5l2.6,2.7c.2.3.3.5,0,.7l-1,.9a.42846.42846,0,0,1-.7-.1l-2.6-2.7c-.2-.2-.4-.2-.5-.1l-7.4,7.1c-1.5,1.4-1.5,2.9,0,4.4l1,1c.2.3.3.5,0,.7l-1,.9a.42846.42846,0,0,1-.7-.1l-1.2-1.2a5.51272,5.51272,0,0,1-1.7-3.8,5.29364,5.29364,0,0,1,1.7-3.7l7.5-7.2C792.2,557.1,792.2,556.9,792,556.8Z"/><path d="M600,110.5l-1.2-1.3c-.3-.3-.3-.5,0-.8l18.3-17.2c.3-.3.5-.3.8,0l1.1,1.2a.66287.66287,0,0,1,.2.7l-6.7,21.8.1.1,14.2-13.4c.3-.3.5-.3.8,0l1.2,1.3c.3.3.3.5,0,.8L610.7,121c-.3.3-.5.3-.8,0l-1-1.1a1.02265,1.02265,0,0,1-.2-1l6.6-21.6-.1-.1L601,110.6A.75788.75788,0,0,1,600,110.5Z"/><path d="M619.7,131.5l-1.5-1.5a6.19559,6.19559,0,0,1-1.9-4.3,5.70452,5.70452,0,0,1,2.1-4.2l6.4-6a6.19551,6.19551,0,0,1,4.3-1.9,6.52,6.52,0,0,1,4.2,2.1l6.1,6.5c.3.3.3.5,0,.8l-14.3,13.5c-.3.3-.5.3-.8,0l-1.3-1.3c-.3-.3-.3-.5,0-.8l1.2-1.1-.1-.1C622.6,133.5,621.2,133,619.7,131.5Zm7.6-1.3,8.4-7.9c.2-.2.2-.4,0-.5l-3.9-4.2c-1.5-1.6-3.2-1.7-4.9,0l-6.2,5.8c-1.7,1.6-1.8,3.3-.3,4.9l1.6,1.7a3.59512,3.59512,0,0,0,2.6,1.4A3.10281,3.10281,0,0,0,627.3,130.2Z"/><path d="M634.8,145.9l-1.6-1.7a5.46952,5.46952,0,0,1-1.8-4.2,6.22957,6.22957,0,0,1,2.2-4.2l5.6-5.2a6.1955,6.1955,0,0,1,4.3-1.9,6.52,6.52,0,0,1,4.2,2.1l6.1,6.5c.3.3.3.5,0,.8L639,151.9a6.1955,6.1955,0,0,1-4.3,1.9,6.08208,6.08208,0,0,1-4.2-2.1l-5.1-5.5c-.3-.3-.3-.6,0-.8l1.1-1a.47034.47034,0,0,1,.8.1l4.9,5.2c1.6,1.7,3.2,1.7,4.9.1l2.3-2.2-.1-.1A4.42517,4.42517,0,0,1,634.8,145.9Zm7.6-1.3,7.6-7.1c.2-.2.2-.4,0-.5l-3.9-4.1c-1.6-1.7-3.2-1.7-4.9-.1l-5.4,5.1c-1.7,1.6-1.8,3.3-.2,4.9l1.6,1.7a3.59512,3.59512,0,0,0,2.6,1.4A3.79228,3.79228,0,0,0,642.4,144.6Z"/><path d="M639.3,161.7l-1.2-1.3c-.3-.3-.3-.5,0-.8l1.1-1c.3-.3.5-.3.8,0l.7.7a4.36362,4.36362,0,0,0,3.6,1.7,10.36652,10.36652,0,0,0,3.5-1.2l-.8-.9c-.2-.2-.2-.5-.1-.9l9.4-17.1c.2-.3.4-.4.7-.1l1.3,1.4a.76129.76129,0,0,1,.1.9l-8.6,15.4.1.1,15.9-7.7a.64243.64243,0,0,1,.9.1l1.3,1.4c.3.3.3.6-.1.8l-18.3,8.9a14.84376,14.84376,0,0,1-5.7,1.8A6.43015,6.43015,0,0,1,639.3,161.7Z"/><path d="M657.5,171.6l-1.3-1.3c-.3-.3-.3-.5,0-.8l20.1-18.9c.3-.3.5-.3.8,0l1.3,1.3c.3.3.3.5,0,.8l-20.1,18.9A.6048.6048,0,0,1,657.5,171.6Zm21.6-7.5,1.4,1.5c.2.2.2.3.2.4s-.2.2-.4.2l-10.9,2-.1.1L666.5,180a1.38033,1.38033,0,0,1-.3.4.39932.39932,0,0,1-.4-.2l-1.3-1.4a1.2049,1.2049,0,0,1-.4-1.2l2.8-11.2a.90152.90152,0,0,1,.6-.6l10.6-2C678.4,163.6,678.7,163.8,679.1,164.1Z"/><path d="M674.5,189.6l-2.4-2.6a6.19559,6.19559,0,0,1-1.9-4.3,5.70453,5.70453,0,0,1,2.1-4.2l6.4-6a6.1955,6.1955,0,0,1,4.3-1.9,6.52,6.52,0,0,1,4.2,2.1l2.4,2.6a6.19559,6.19559,0,0,1,1.9,4.3,5.70453,5.70453,0,0,1-2.1,4.2l-6.4,6a6.1955,6.1955,0,0,1-4.3,1.9A5.70453,5.70453,0,0,1,674.5,189.6Zm-.3-4.1,2,2.1c1.6,1.7,3.2,1.7,4.9.1l6.2-5.9c1.7-1.6,1.8-3.2.2-4.9l-2-2.1c-1.6-1.7-3.2-1.7-4.9-.1l-6.2,5.9C672.7,182.2,672.6,183.9,674.2,185.5ZM694,168.4l1.1,1.2c.3.3.2.5-.2.6l-5.3.6a1.13553,1.13553,0,0,1-.8-.3l-.7-.7c-.2-.2-.1-.4.2-.6l4.6-1.2A2.81684,2.81684,0,0,1,694,168.4Zm3.7,4,1.1,1.2c.3.3.2.5-.2.6l-5.3.6c-.4,0-.7-.1-.8-.3l-.6-.7c-.3-.3-.2-.5.2-.6l4.6-1.2A1.28393,1.28393,0,0,1,697.7,172.4Z"/><path d="M683.9,199.6l-1.3-1.3c-.3-.3-.3-.5,0-.8L697,184c.3-.3.5-.3.8,0l1.3,1.3c.3.3.3.5,0,.8l-1.2,1.1.1.1a3.37071,3.37071,0,0,1,2.2.1,6.51467,6.51467,0,0,1,2.3,1.5l1.1,1.2a.52879.52879,0,0,1-.1.8l-1.1,1a.75792.75792,0,0,1-.4.2c-.1,0-.2-.1-.4-.2l-1.5-1.6a3.646,3.646,0,0,0-2.7-1.3,4.384,4.384,0,0,0-2.9,1.4l-9.8,9.3A.521.521,0,0,1,683.9,199.6Z"/><path d="M697.5,214.1l-2.4-2.6a6.19559,6.19559,0,0,1-1.9-4.3,5.70453,5.70453,0,0,1,2.1-4.2l6.4-6a6.1955,6.1955,0,0,1,4.3-1.9,6.52,6.52,0,0,1,4.2,2.1l2.4,2.6a6.19559,6.19559,0,0,1,1.9,4.3,5.70453,5.70453,0,0,1-2.1,4.2l-6.4,6a6.1955,6.1955,0,0,1-4.3,1.9A5.70453,5.70453,0,0,1,697.5,214.1Zm-.3-4.1,2,2.1c1.6,1.7,3.2,1.7,4.9.1l6.2-5.9c1.7-1.6,1.8-3.2.2-4.9l-2-2.1c-1.6-1.7-3.2-1.7-4.9-.1l-6.2,5.9C695.7,206.7,695.7,208.3,697.2,210Zm13.2-17.2,3-2.8c.3-.3.5-.3.8,0l1.2,1.3a.60831.60831,0,0,1,0,.8l-3,2.9c-.3.3-.5.3-.8,0l-1.2-1.3A.74621.74621,0,0,1,710.4,192.8Zm4.8,5.1,3-2.8c.3-.3.5-.3.8,0l1.2,1.3a.60831.60831,0,0,1,0,.8l-3,2.9c-.3.3-.5.3-.8,0l-1.2-1.3A.62327.62327,0,0,1,715.2,197.9Z"/><path d="M710.1,227.5l-5-5.3c-.3-.3-.3-.5,0-.8l1-1a.52878.52878,0,0,1,.8.1l4.7,5c1.5,1.5,2.8,1.8,3.9.7l.6-.5a2.896,2.896,0,0,0,.7-3.6l-1.8-4.9a8.45318,8.45318,0,0,1-.6-3.6,4.7753,4.7753,0,0,1,1.6-2.8c2.4-2.3,4.9-2.1,7.4.6l4.6,4.9c.3.3.3.5,0,.8l-1,1a.52878.52878,0,0,1-.8-.1l-4.2-4.5a3.58805,3.58805,0,0,0-2-1.2,2.15489,2.15489,0,0,0-1.6.4l-.5.5c-.8.8-.9,1.9-.3,3.5l1.7,5a5.25169,5.25169,0,0,1,.4,3.6,7.154,7.154,0,0,1-2.2,3.1C715.3,230.6,712.8,230.3,710.1,227.5Z"/><path d="M717.9,234.9l14.3-13.5c.3-.3.5-.3.8,0l1.3,1.4c.3.3.3.5,0,.8L720,237.1c-.3.3-.5.3-.8,0l-1.3-1.3C717.6,235.5,717.7,235.2,717.9,234.9Zm17.3-16.2,2.8-2.6c.3-.3.5-.3.8,0l1.3,1.4c.3.3.3.5,0,.8l-2.8,2.6c-.3.3-.5.3-.8,0l-1.3-1.4C734.9,219.2,734.9,219,735.2,218.7Z"/><path d="M736.1,255.1l-1.6-1.7a5.46952,5.46952,0,0,1-1.8-4.2,6.22957,6.22957,0,0,1,2.2-4.2l10.3-9.7c.3-.3.5-.3.8,0l1.3,1.3c.3.3.3.5,0,.8L737,247.1c-1.7,1.6-1.8,3.3-.3,4.9l1.6,1.7a3.59512,3.59512,0,0,0,2.6,1.4,4.0924,4.0924,0,0,0,2.7-1.2l10.1-9.5c.3-.3.5-.3.8,0l1.3,1.3c.3.3.3.5,0,.8L741.5,260c-.3.3-.5.3-.8,0l-1.3-1.3c-.3-.3-.3-.5,0-.8l1.2-1.1-.1-.1C739,257.1,737.6,256.6,736.1,255.1Zm22.1-18.4,1.7,1.8c.1.1.1.2.1.4,0,.1-.2.2-.4.2l-5.6.4a1.22241,1.22241,0,0,1-.9-.3l-.9-1c-.3-.3-.2-.5.2-.6l4.7-1.1A.88543.88543,0,0,1,758.2,236.7Z"/><path d="M758.8,252.6l-1.5-1.6c-.3-.3-.3-.5,0-.8l1.1-1c.3-.3.5-.3.8,0l1.5,1.6c.2.2.4.2.5,0l2.6-2.4c.3-.3.5-.3.8,0l1.3,1.3a.52879.52879,0,0,1-.1.8l-2.6,2.4a.375.375,0,0,0,0,.6l3,3.2c.3.3.3.6,0,.8l-1.1,1a.52876.52876,0,0,1-.8-.1l-3-3.2a.47108.47108,0,0,0-.6-.1l-8.6,8.1c-1.7,1.6-1.7,3.3-.1,5l1.1,1.2c.3.3.3.6,0,.8l-1.1,1a.52876.52876,0,0,1-.8-.1l-1.3-1.4a6.19556,6.19556,0,0,1-1.9-4.3,5.9429,5.9429,0,0,1,2-4.2l8.7-8.1C759,253,759,252.8,758.8,252.6Z"/><polygon class="i" points="519.8 499.8 416.5 400.6 497.9 325.1 638.3 474.5 499.8 614.1 450.7 564.9 519.8 499.8"/><polygon class="h" points="416.5 400.6 353.8 466.1 450.7 564.9 519.8 499.8 416.5 400.6"/><line class="j" x1="980" y1="527" x2="476.5"/><path d="M92,655.3l-.9.9a.375.375,0,0,1-.6,0L78.3,643.6a.375.375,0,0,1,0-.6l.9-.9a.375.375,0,0,1,.6,0l5.2,5.4c.1.1.2.1.4,0l5.1-4.9a.3042.3042,0,0,0,0-.4l-5.2-5.4a.375.375,0,0,1,0-.6l.9-.9a.375.375,0,0,1,.6,0L99,648a.375.375,0,0,1,0,.6l-.9.9a.375.375,0,0,1-.6,0l-5.4-5.6c-.1-.1-.2-.1-.4,0l-5.1,4.9a.3042.3042,0,0,0,0,.4l5.4,5.6C92.2,654.9,92.2,655.1,92,655.3Z"/><path d="M107,640.9l-1.8,1.7a4.21972,4.21972,0,0,1-3,1.4,4.14569,4.14569,0,0,1-3-1.5L95,638.1a4.60134,4.60134,0,0,1-1.4-3,4.14573,4.14573,0,0,1,1.5-3l1.8-1.7a4.21972,4.21972,0,0,1,3-1.4,3.98351,3.98351,0,0,1,3,1.5l4.2,4.4a4.60134,4.60134,0,0,1,1.4,3A4.80253,4.80253,0,0,1,107,640.9Zm-2.9.2,1.4-1.4a2.05558,2.05558,0,0,0,0-3.4l-4.2-4.3a2.10835,2.10835,0,0,0-3.4-.1l-1.4,1.4a2.05558,2.05558,0,0,0,0,3.4l4.2,4.3C101.8,642.2,102.9,642.2,104.1,641.1Z"/><path d="M116.2,632l-3.7,3.5a.375.375,0,0,1-.6,0l-.7-.7c-.2-.2-.2-.4,0-.5l3.5-3.3c1.1-1,1.2-1.9.5-2.7l-.4-.4a2.11722,2.11722,0,0,0-2.5-.5l-3.4,1.3a4.81391,4.81391,0,0,1-2.5.4,4.02227,4.02227,0,0,1-2-1.1c-1.6-1.7-1.5-3.4.3-5.2l3.4-3.3a.375.375,0,0,1,.6,0l.7.7c.2.2.2.4,0,.5l-3.1,3a2.05335,2.05335,0,0,0-.8,1.4,1.32448,1.32448,0,0,0,.3,1.1l.3.3a2.05591,2.05591,0,0,0,2.4.2l3.5-1.3a3.8355,3.8355,0,0,1,2.5-.3,5.38794,5.38794,0,0,1,2.2,1.5C118.3,628.3,118.1,630.1,116.2,632Z"/><path d="M125.1,623.4l-3.7,3.5a.375.375,0,0,1-.6,0l-.7-.7c-.2-.2-.2-.4,0-.5l3.5-3.3c1.1-1,1.2-1.9.5-2.7l-.4-.4a2.11722,2.11722,0,0,0-2.5-.5l-3.4,1.3a4.81391,4.81391,0,0,1-2.5.4,4.02227,4.02227,0,0,1-2-1.1c-1.6-1.7-1.5-3.4.3-5.2l3.4-3.3a.375.375,0,0,1,.6,0l.7.7c.2.2.2.4,0,.5l-3.1,3a2.05335,2.05335,0,0,0-.8,1.4,1.32448,1.32448,0,0,0,.3,1.1l.3.3a2.05591,2.05591,0,0,0,2.4.2l3.5-1.3a3.8355,3.8355,0,0,1,2.5-.3,5.38794,5.38794,0,0,1,2.2,1.5C127.2,619.7,127,621.5,125.1,623.4Z"/><path d="M129.4,618.6l-.4-.4a1.23453,1.23453,0,0,1-.4-.8l-2.4-12.7-.1-.1-4.8,4.7a.375.375,0,0,1-.6,0l-.7-.7a.375.375,0,0,1,0-.6l6.3-6.1a.375.375,0,0,1,.6,0l.7.7a1.27024,1.27024,0,0,1,.4.7l2.4,12.3.1.1,5-4.8a.375.375,0,0,1,.6,0l.7.7a.375.375,0,0,1,0,.6l-6.6,6.4C129.8,618.8,129.6,618.8,129.4,618.6Z"/><path d="M143,606l-1.2,1.1a4.09983,4.09983,0,0,1-3,1.3,3.95378,3.95378,0,0,1-2.9-1.5l-6.9-7.2a.375.375,0,0,1,0-.6l.9-.9a.375.375,0,0,1,.6,0l6.9,7.1c1.2,1.2,2.3,1.2,3.4.1l1.2-1.1a2.61981,2.61981,0,0,0,.9-1.9,2.79783,2.79783,0,0,0-.9-1.9l-6.8-7a.375.375,0,0,1,0-.6l.9-.9a.375.375,0,0,1,.6,0l9.6,9.9a.375.375,0,0,1,0,.6l-.9.9a.375.375,0,0,1-.6,0l-.8-.8-.1.1A2.7064,2.7064,0,0,1,143,606Zm-13.1-15.3,1.3-1.2a.30975.30975,0,0,1,.2-.1l.2.2.3,3.9a.8453.8453,0,0,1-.2.6l-.7.7c-.2.2-.3.1-.4-.2l-.8-3.2A.616.616,0,0,1,129.9,590.7Z"/><path d="M158.8,590.8l-1.2,1.1a4.09983,4.09983,0,0,1-3,1.3,3.95378,3.95378,0,0,1-2.9-1.5l-6.9-7.2a.375.375,0,0,1,0-.6l.9-.9a.375.375,0,0,1,.6,0l6.9,7.1c1.2,1.2,2.3,1.2,3.4.1l1.2-1.1a2.61981,2.61981,0,0,0,.9-1.9,2.79782,2.79782,0,0,0-.9-1.9l-6.8-7a.375.375,0,0,1,0-.6l.9-.9a.375.375,0,0,1,.6,0l9.6,9.9a.375.375,0,0,1,0,.6l-.9.9a.375.375,0,0,1-.6,0l-.8-.8-.1.1A2.84073,2.84073,0,0,1,158.8,590.8Z"/><path d="M156.8,575l-1.1,1.1c-.2.2-.4.2-.5,0l-.7-.8a.375.375,0,0,1,0-.6l1.1-1.1a.30419.30419,0,0,0,0-.4l-1.7-1.8a.375.375,0,0,1,0-.6l.9-.9c.2-.2.4-.2.5,0l1.7,1.8a.30421.30421,0,0,0,.4,0l2.2-2.1a.375.375,0,0,1,.6,0l.7.8c.2.2.2.4-.1.6l-2.2,2.1a.20835.20835,0,0,0,0,.4l5.7,5.9c1.1,1.2,2.3,1.2,3.5,0l.8-.8a.375.375,0,0,1,.6,0l.7.8c.2.2.2.4-.1.6l-1,1a4.40242,4.40242,0,0,1-3,1.4,4.21969,4.21969,0,0,1-3-1.4l-5.8-6C157.1,574.8,157,574.8,156.8,575Z"/><path d="M177.6,570.7l.7.8c.2.2.2.4,0,.5l-3,2.9a4.21969,4.21969,0,0,1-3,1.4,4.14567,4.14567,0,0,1-3-1.5l-4.2-4.4a4.60136,4.60136,0,0,1-1.4-3,4.14573,4.14573,0,0,1,1.5-3l3-2.9a.375.375,0,0,1,.6,0l.7.8c.2.2.2.4,0,.5l-2.8,2.7c-1.1,1.1-1.1,2.2,0,3.4l4.1,4.3c1.2,1.2,2.3,1.2,3.4.1l2.8-2.7A.47111.47111,0,0,1,177.6,570.7Z"/><path d="M184.6,565.9l-1.1,1a4.21969,4.21969,0,0,1-3,1.4,4.14568,4.14568,0,0,1-3-1.5l-4.2-4.4a4.60136,4.60136,0,0,1-1.4-3,4.14573,4.14573,0,0,1,1.5-3l4.5-4.3a.375.375,0,0,1,.6,0l9.6,9.9a.375.375,0,0,1,0,.6l-.9.9a.375.375,0,0,1-.6,0l-.8-.8-.1.1A3.14889,3.14889,0,0,1,184.6,565.9Zm-.9-5.3-5.6-5.8c-.1-.1-.2-.1-.4,0l-2.9,2.8c-1.1,1.1-1.1,2.2,0,3.4l4.1,4.3c1.2,1.2,2.3,1.2,3.4.1l1.2-1.1a2.61981,2.61981,0,0,0,.9-1.9A2.01185,2.01185,0,0,0,183.7,560.6Z"/><path class="k" d="M270.5,212.7a67.00963,67.00963,0,0,0,4-16c-.1,2.7-.5,5.5-.8,8.2a78.96833,78.96833,0,0,1-2,10.8,17.42,17.42,0,0,1-1.7,4.5,20.2276,20.2276,0,0,1-3.1,3.4,118.47027,118.47027,0,0,1-13.3,10c-.2.1-.5.3-.7.4a61.1521,61.1521,0,0,0,10.2-9.5,38.44975,38.44975,0,0,0,7.4-11.8Zm-39.6-15.4c-.3,2.1-.5,4.2-1,6.3-1.3,6.9-3.5,13.8-7.7,19.6a65.19854,65.19854,0,0,1-15.9,15.1c3-1.8,6-3.8,8.9-5.8a106.03753,106.03753,0,0,0,9.2-7,11.97,11.97,0,0,0,3.3-4.1,19.53931,19.53931,0,0,0,1.4-4.7c1.4-7,1.6-14.2,1.9-21.4Zm23.6-11.1c-1.3,7.7-3.5,15.4-8.1,21.8a66.49169,66.49169,0,0,1-14.7,14.3,146.26509,146.26509,0,0,0,13.2-9,34.0358,34.0358,0,0,0,5.2-4.8,14.64848,14.64848,0,0,0,2.5-5.9,94.22918,94.22918,0,0,0,1.8-12.8,31.42465,31.42465,0,0,0,.1-3.6Zm22.6-16.7a76.39944,76.39944,0,0,1-3,13.4,41.89376,41.89376,0,0,1-6.5,12.6,62.26335,62.26335,0,0,1-12.9,12.2q5.7-3.45,11.1-7.5a44.59759,44.59759,0,0,0,5.7-4.9,10.06486,10.06486,0,0,0,1.7-2.5,40.39421,40.39421,0,0,0,1.9-6.8,178.207,178.207,0,0,0,2.2-17.7c-.1.2-.1.2-.2,1.2Zm-45-5.9a71.14717,71.14717,0,0,1-4.9,21.8,43.74655,43.74655,0,0,1-11.6,15.7,67.74182,67.74182,0,0,1-9.5,7.2,102.82452,102.82452,0,0,0,10.6-6.4,62.86846,62.86846,0,0,0,9.3-7,11.86377,11.86377,0,0,0,2.6-3.3,26.978,26.978,0,0,0,1.8-6.9,150.04116,150.04116,0,0,0,1.7-21.1Zm25.2-13.5a81.71957,81.71957,0,0,1-3.3,16.2,45.39217,45.39217,0,0,1-5.1,11.2,56.36473,56.36473,0,0,1-14.2,14.2,21.28443,21.28443,0,0,1-2.5,1.6,144.38546,144.38546,0,0,0,12.5-7.7,53.0292,53.0292,0,0,0,6.4-5.1,9.73023,9.73023,0,0,0,2.2-3.1,33.39346,33.39346,0,0,0,1.8-6.9,176.57744,176.57744,0,0,0,2.2-20.4Zm22.5-8.5a82.53736,82.53736,0,0,1-3.3,13A40.65043,40.65043,0,0,1,272,164a42.681,42.681,0,0,1-7.3,8.6,51.03284,51.03284,0,0,1-8.3,6.4c2.7-1.4,5.3-3.1,7.9-4.7a59.98176,59.98176,0,0,0,8.6-6.4,10.94858,10.94858,0,0,0,2.8-3.6,22.53025,22.53025,0,0,0,1.3-4.2,95.786,95.786,0,0,0,1.9-10.7c.5-3.8,1-7.5,1.2-11.3a19.82551,19.82551,0,0,1-.3,3.5Zm-101.1,21a141.66922,141.66922,0,0,0,18.5,8.7,29.65461,29.65461,0,0,0,6.5,1.7c2.5.3,5-.5,7.3-1.3a129.56284,129.56284,0,0,0,19.6-9.2,88.68389,88.68389,0,0,1-11.2,4.2,49.86043,49.86043,0,0,1-19.2,2.1,67.43581,67.43581,0,0,1-19.3-5.3,20.36348,20.36348,0,0,1-2.2-.9Zm27.7-13.4c.7.4,1.5.7,2.3,1.1a126.95236,126.95236,0,0,0,17,7.1c2.7.8,5.6,1.7,8.4,1.2a47.35617,47.35617,0,0,0,9.8-3.4c4-1.8,7.9-3.8,11.8-5.8a22.87874,22.87874,0,0,0-2.3,1c-7.6,3.1-15.8,5.1-24.1,4.7a70.381,70.381,0,0,1-22.9-5.9Zm25.4-12.1a170.76294,170.76294,0,0,0,17.9,7.1,28.5312,28.5312,0,0,0,7.7,1.6,32.37888,32.37888,0,0,0,9.5-2.8c4.2-1.7,8.2-3.8,12.2-5.9a22.87851,22.87851,0,0,0-2.3,1,57.95962,57.95962,0,0,1-20.5,4.4,67.71163,67.71163,0,0,1-21.8-4.4c-1-.4-1.8-.7-2.7-1Zm-25.1-11.2a27.18158,27.18158,0,0,1,2.5,1.1c4,1.8,8.1,3.4,12.2,4.8a33.98681,33.98681,0,0,0,8.8,2,27.81628,27.81628,0,0,0,7.9-2,115.037,115.037,0,0,0,11.4-4.9c.8-.4,1.5-.7,2.3-1.1a18.02847,18.02847,0,0,0-2.1.8c-7.4,2.8-15.4,4.5-23.4,3.9-6.6-.4-13.2-2.3-19.6-4.6Zm-23.3-10.4a27.18158,27.18158,0,0,1,2.5,1.1c2.7,1.2,5.5,2.3,8.2,3.4a42.24553,42.24553,0,0,0,11.1,2.9,23.94165,23.94165,0,0,0,7.4-1.6c3.9-1.3,7.8-2.9,11.6-4.5,1-.4,1.9-.9,2.9-1.3A65.78408,65.78408,0,0,1,206,120a58.69418,58.69418,0,0,1-19.4-3.4c-1.1-.3-2.1-.8-3.2-1.1Zm-2.1,21.6c.8.4,1.5.7,2.3,1.1a130.92465,130.92465,0,0,0,14.5,6.1c2.8.9,5.8,1.8,8.7,1.3a57.53283,57.53283,0,0,0,9.7-3.1c4.1-1.7,8-3.5,12-5.4-2.4,1-4.9,1.9-7.4,2.7a53.07863,53.07863,0,0,1-21.3,2.4,75.97445,75.97445,0,0,1-18.5-5.1Zm-23.1-11.3c.8.4,1.7.8,2.5,1.2a104.53415,104.53415,0,0,0,12.4,5.2,30.96193,30.96193,0,0,0,7.3,1.7,24.30016,24.30016,0,0,0,4.7-.8,151.91914,151.91914,0,0,0,18.4-7.1,79.31606,79.31606,0,0,1-10.8,3.3,51.04613,51.04613,0,0,1-15.6,1.4,63.46993,63.46993,0,0,1-16.7-3.9,21.39845,21.39845,0,0,0-2.2-1Zm-4.6,23.4a130.75506,130.75506,0,0,0,17.8,8.3c2.6.8,5.4,1.7,8.2,1.2a52.26939,52.26939,0,0,0,9.7-3.1c4-1.6,7.8-3.3,11.7-5.2.8-.4,1.5-.7,2.3-1.1a94.37207,94.37207,0,0,1-8.9,3.2c-7.1,2.1-14.6,3.3-22,2.3a65.68721,65.68721,0,0,1-18.8-5.6Zm4.5-7a30.16638,30.16638,0,0,1-9,0,58.92608,58.92608,0,0,1-18.4-5.3h0a17.38,17.38,0,0,0,1.9,1,100.9119,100.9119,0,0,0,10.5,5,39.99562,39.99562,0,0,0,8.3,2.6,11.31214,11.31214,0,0,0,4.5-.2,64.1377,64.1377,0,0,0,9.4-3c3.5-1.4,7.1-2.7,10.5-4.3.7-.3,2.7-1.3,2.7-1.3C174.1,138.5,163.6,141,158.1,142.2ZM129.9,138a8.917,8.917,0,0,0,.2,1.1c.8,7.2,1.6,14.5,3.4,21.5.6,2,1.1,4.1,2.5,5.7a32.37017,32.37017,0,0,0,4.3,4c2.4,1.8,4.9,3.5,7.4,5.1,1.9,1.1,3.7,2.4,5.6,3.3a15.25739,15.25739,0,0,1-1.6-1.1,50.98976,50.98976,0,0,1-13-13.2,42.912,42.912,0,0,1-5.2-11.3,90.89394,90.89394,0,0,1-3-12.5m-.6-2.6.5,2.6m2.8,27.8c.2,3,.6,6,1,9a102.463,102.463,0,0,0,2.3,12.3,12.99031,12.99031,0,0,0,2.4,5.2,42.34518,42.34518,0,0,0,6.8,5.9q4.95,3.6,10.2,6.9A56.30586,56.30586,0,0,1,141.4,193a51.6722,51.6722,0,0,1-6-14.1,93.19077,93.19077,0,0,1-2.2-10.5Zm3.4,31.7q.45,4.5,1.2,9a52.909,52.909,0,0,0,2.4,9.7,13.73769,13.73769,0,0,0,3.4,4.5,110.03736,110.03736,0,0,0,12.2,9.4c.7.5,1.5,1,2.2,1.5a64.00819,64.00819,0,0,1-13.2-13.3c-4.4-6.2-6.6-13.7-8.1-21.1-.2-1.1-.4-2.2-.5-3.2.1,1.1.2,2.3.4,3.5Zm18.5-29.3a30.28351,30.28351,0,0,0,1.9,6.7,14.41781,14.41781,0,0,0,3.1,3.9,71.70189,71.70189,0,0,0,7.6,5.7q4.8,3.15,9.9,6c-.5-.4-1.1-.7-1.6-1.1a2.18194,2.18194,0,0,1-.5-.4c-6.9-5-13.4-11.1-16.9-19-4-9.2-5.1-17.8-5.8-20.7,0,0,.2,2.2.3,3.7Zm22.5-7.4a12.48735,12.48735,0,0,0,0,2.2c.1,2,.3,5.1.4,7.1a101.30887,101.30887,0,0,0,2.1,15.5,14.22815,14.22815,0,0,0,2.4,5.5,27.17847,27.17847,0,0,0,3.9,3.7,100.33229,100.33229,0,0,0,9.2,6.4c2.6,1.6,5.2,3.3,7.9,4.7-2-1.3-3.9-2.7-5.8-4.2-5.5-4.4-10.5-9.6-13.8-15.9-3.5-6.9-5.1-14.6-6.1-22.3C177.7,165.2,177.6,163.4,177.6,163.4Zm-22.4,18.5c0,2.7.4,5.3.6,8a104.93305,104.93305,0,0,0,2,12.5c.6,2.2,1.2,4.6,2.8,6.3a44.70431,44.70431,0,0,0,7.8,6.6c3.3,2.4,6.6,4.6,10,6.7-1.6-1.2-3.1-2.3-4.6-3.6-5.1-4.4-9.7-9.5-12.7-15.5a57.11747,57.11747,0,0,1-4-11.4,60.40647,60.40647,0,0,1-1.9-9.6Zm23.7,13.5c.4,7.1.7,14.2,2.1,21.2a19.32366,19.32366,0,0,0,1.7,5.3,17.52343,17.52343,0,0,0,3.3,3.9,107.41683,107.41683,0,0,0,8.5,6.6c2.9,2,5.8,4,8.8,5.8-.3-.3-.7-.5-1-.8-1.8-1.3-3.5-2.7-5.1-4.1-5.5-4.8-10.4-10.4-13.3-17.1a70.26068,70.26068,0,0,1-4.8-19.2,13.24049,13.24049,0,0,0-.2-1.6ZM157.3,210c.2,3.7.6,7.5,1,11.2a58.594,58.594,0,0,0,2.5,11.6,12.46044,12.46044,0,0,0,3.2,4.4c4.9,4.6,10.5,8.4,16,12.2-1.3-1.1-2.7-2.1-4-3.3-5.6-4.9-10.8-10.5-13.8-17.4a67.03674,67.03674,0,0,1-4.9-18.7Zm23.6,25.9c.5,4,.9,8.1,2.2,11.9a13.183,13.183,0,0,0,3.2,4.6c1.2,1.1,2.4,2.2,3.6,3.2,4.4,3.6,9.1,6.9,13.9,10.2-.7-.6-1.4-1.1-2.1-1.6a66.25681,66.25681,0,0,1-14.4-15.5c-3.9-6.4-5.8-13.7-6.8-21.1a28.5055,28.5055,0,0,0-.3-2.9c.1,3.8.4,7.5.7,11.2ZM230,224.6h0c0,.7-.4,3.9-.5,4.7-.9,7.5-2.2,12.2-6,18.7-4.2,6.9-10.2,12.5-16.5,17.4a172.3865,172.3865,0,0,0,14.7-10.7,26.26505,26.26505,0,0,0,4.9-5.1,18.87617,18.87617,0,0,0,2-6.5,107.124,107.124,0,0,0,1.3-12.7Zm22.6-8.9c-.6,3.1-2.9,11.5-5.9,16.7-4,6.7-9.7,12.1-15.8,16.8.7-.4,1.4-.9,2.1-1.4,3.7-2.5,7.4-5.2,10.9-8.1a30.43961,30.43961,0,0,0,4.8-4.7,14.29118,14.29118,0,0,0,2.3-5.7c.6-2.5,1.1-6.8,1.4-9.4.2-2.5.3-3,.5-5.5m-.3,1.3c-.6,3.1-2.9,11.5-5.9,16.7-4,6.7-9.7,12.1-15.8,16.8.7-.4,1.4-.9,2.1-1.4,3.7-2.5,7.4-5.2,10.9-8.1a30.43961,30.43961,0,0,0,4.8-4.7,14.29118,14.29118,0,0,0,2.3-5.7c.6-2.5,1.1-6.8,1.4-9.4.2-2.5.3-3,.5-5.5Z"/><path class="k" d="M54.8,295.9V284.6h9a2.96937,2.96937,0,0,1,1.8.5,2.0592,2.0592,0,0,1,.6,1.7v1.3a1.955,1.955,0,0,1-.4,1.4,2.59442,2.59442,0,0,1-1.4.6,2.09666,2.09666,0,0,1,1.4.7,2.45625,2.45625,0,0,1,.5,1.5v1.4a2.136,2.136,0,0,1-.8,1.7,3.74985,3.74985,0,0,1-2.3.5H54.8Zm9.4-7.7v-1.1a1.549,1.549,0,0,0-.2-.8,1.99674,1.99674,0,0,0-.9-.2H56.7v3.1H63a1.99674,1.99674,0,0,0,.9-.2C64.1,288.9,64.2,288.6,64.2,288.2Zm.1,4.8v-.9A1.60857,1.60857,0,0,0,64,291a1.3272,1.3272,0,0,0-1-.3H56.6v3.6H63a1.32733,1.32733,0,0,0,1-.3C64.2,293.9,64.3,293.5,64.3,293Z"/><path class="k" d="M72.8,286.6a1.70186,1.70186,0,0,0,.1.7v8.6H71.3V284.6h1.5l5.4,7.3,5-7.3h1.7v11.3H83.2v-9.3a4.34923,4.34923,0,0,1-.4.7,2.18548,2.18548,0,0,1-.3.5l-4.3,6.3h-.5L73.3,288l-.1-.1C73.1,287.5,72.9,287,72.8,286.6Z"/><path class="k" d="M90.7,295.9V284.6h10.7v1.5H92.6v3.1H98v1.5H92.6v3.6h8.9v1.5H90.7Z"/><path class="k" d="M114,295.9V284.6h10.6v1.5h-8.7v3.7h5v1.5h-5v4.5H114Z"/><path class="k" d="M126.4,288.8a2.45713,2.45713,0,0,1,.5-1.7,2.57505,2.57505,0,0,1,1.8-.5h6.6a2.57507,2.57507,0,0,1,1.8.5,2.457,2.457,0,0,1,.5,1.7v4.9a2.45713,2.45713,0,0,1-.5,1.7,2.575,2.575,0,0,1-1.8.5h-6.6a2.57506,2.57506,0,0,1-1.8-.5,2.457,2.457,0,0,1-.5-1.7Zm1.7,5.7h7.6V288h-7.6Z"/><path class="k" d="M141.5,295.9v-9.3h7.3a2.07581,2.07581,0,0,1,1.5.4,1.80924,1.80924,0,0,1,.4,1.4v2.1a1.955,1.955,0,0,1-.4,1.4,2.07581,2.07581,0,0,1-1.5.4h-1.2l4,3.6h-2.3l-3.6-3.6h-2.5v3.6ZM148,288h-4.9v3H148a1.549,1.549,0,0,0,.8-.2,1.16546,1.16546,0,0,0,.2-.7V289a1.16564,1.16564,0,0,0-.2-.7C148.7,288,148.4,288,148,288Z"/><path class="k" d="M156,288.3v7.6h-1.4v-9.3H156l4.5,6,4.2-6h1.6v9.3h-1.6v-7a1.2683,1.2683,0,0,1,.1-.6c-.1.3-.2.5-.3.8a2.18575,2.18575,0,0,1-.3.5l-3.5,4.8h-.5l-3.6-4.7a2.09216,2.09216,0,0,0-.4-.6A3.09144,3.09144,0,0,0,156,288.3Z"/><path class="k" d="M172.4,286.6v7.9h6.7v-7.9h1.7v7.1a2.28408,2.28408,0,0,1-.5,1.7,2.575,2.575,0,0,1-1.8.5h-5.7a2.57507,2.57507,0,0,1-1.8-.5,2.457,2.457,0,0,1-.5-1.7v-7.1Z"/><path class="k" d="M185,295.9v-9.3h1.7v7.9h7.1v1.4Z"/><path class="k" d="M195.8,295.9l5.3-9.3h1.6l5.4,9.3h-1.9l-1.2-2.2h-6.3l-1.2,2.2Zm3.7-3.5h4.9L202,288Z"/><path class="k" d="M219.7,295.9V284.6h9a2.96939,2.96939,0,0,1,1.8.5,2.05922,2.05922,0,0,1,.6,1.7v2.5a2.19859,2.19859,0,0,1-.6,1.7,2.96936,2.96936,0,0,1-1.8.5H227l5.1,4.4h-2.8l-4.5-4.4h-3.3v4.4h-1.8Zm8.2-9.8h-6.4v4h6.4q.75,0,.9-.3a1.89832,1.89832,0,0,0,.3-.9v-1.6a1.22233,1.22233,0,0,0-.3-.9Q228.65,286.1,227.9,286.1Z"/><path class="k" d="M234.2,295.9l5.3-9.3h1.6l5.4,9.3h-1.9l-1.2-2.2h-6.3l-1.2,2.2Zm3.7-3.5h4.9l-2.4-4.4Z"/><path class="k" d="M257.1,288h-6.4v6.5h6.4v-2.2l1.7.3v1.1a2.45721,2.45721,0,0,1-.5,1.7,2.575,2.575,0,0,1-1.8.5h-5.4a2.64567,2.64567,0,0,1-1.8-.4,2.457,2.457,0,0,1-.5-1.7v-4.9a2.28408,2.28408,0,0,1,.5-1.7,2.575,2.575,0,0,1,1.8-.5h5.4a2.575,2.575,0,0,1,1.8.5,2.4571,2.4571,0,0,1,.5,1.7v.9l-1.7.3Z"/><path class="k" d="M264.2,295.9h-1.7v-9.2h1.7Z"/><path class="k" d="M269.8,288.5c0,.3.1.5.1.8v6.5h-1.6v-9.3h1.3l6.7,6,.6.6a1.79364,1.79364,0,0,1,.5.7c0-.3-.1-.6-.1-.8v-6.5h1.6v9.3h-1.2l-6.8-6.1-.6-.6C270.1,288.9,270,288.7,269.8,288.5Z"/><path class="k" d="M291.9,288h-7.2v6.5h7.2V292h-3.7v-1.3h5.4v3a2.45721,2.45721,0,0,1-.5,1.7,2.575,2.575,0,0,1-1.8.5h-6.2a2.575,2.575,0,0,1-1.8-.5,2.4571,2.4571,0,0,1-.5-1.7v-4.9a2.45721,2.45721,0,0,1,.5-1.7,2.575,2.575,0,0,1,1.8-.5h6.2a2.96934,2.96934,0,0,1,1.8.5,2.17268,2.17268,0,0,1,.5,1.6v.3l-1.7.3V288Z"/><path class="k" d="M310.6,286.1v9.7h-1.9v-9.7h-5.1v-1.5h12v1.5Z"/><path class="k" d="M317.6,295.9v-9.3h9.2V288h-7.5v2.4h4.5v1.4h-4.5v2.8h7.6V296h-9.3Z"/><path class="k" d="M328.7,295.9l5.3-9.3h1.6l5.4,9.3h-1.9l-1.2-2.2h-6.3l-1.2,2.2Zm3.6-3.5h4.9l-2.4-4.4Z"/><path class="k" d="M345,288.3v7.6h-1.4v-9.3H345l4.5,6,4.2-6h1.6v9.3h-1.6v-7a1.2683,1.2683,0,0,1,.1-.6c-.1.3-.2.5-.3.8a2.18686,2.18686,0,0,1-.3.5l-3.5,4.8h-.5l-3.6-4.7a2.09248,2.09248,0,0,0-.4-.6A3.093,3.093,0,0,0,345,288.3Z"/><polygon class="l" points="278.6 9.7 279.3 10.4 279.3 10.4 279.3 10.4 279.3 10.4 278.6 9.7"/><path class="l" d="M286.2,17.6l.7.7v.1h-.1l-.6-.8c-.1.1-.1,0,0,0Z"/><path class="l" d="M293.9,25.5l.7.7v.2c0,.1-.1,0-.2,0h0l-.7-.7v-.1A.30974.30974,0,0,1,293.9,25.5Z"/><path class="l" d="M301.6,33.4l.7.7c.1.1.1.2,0,.2-.1.1-.2.1-.2,0h0l-.7-.7c-.1-.1-.1-.2,0-.2C301.4,33.3,301.5,33.3,301.6,33.4Z"/><path class="l" d="M309.2,41.3l.7.7a.21213.21213,0,0,1-.3.3h0l-.7-.7a.18749.18749,0,0,1,0-.3C309,41.2,309.2,41.2,309.2,41.3Z"/><path class="l" d="M316.9,49.2l.7.7a.28284.28284,0,0,1-.4.4h0l-.7-.7a.30415.30415,0,0,1,0-.4C316.7,49.1,316.8,49.1,316.9,49.2Z"/><path class="l" d="M324.6,57l.7.7a.28284.28284,0,1,1-.4.4h0l-.7-.7a.28284.28284,0,1,1,.4-.4Z"/><path class="l" d="M332.3,64.9l.7.7a.35355.35355,0,0,1-.5.5h0l-.7-.7a.45414.45414,0,0,1,0-.5A.44638.44638,0,0,1,332.3,64.9Z"/><path class="l" d="M339.9,72.8l.7.7a.42427.42427,0,0,1-.6.6h0l-.7-.7a.375.375,0,0,1,0-.6A.45156.45156,0,0,1,339.9,72.8Z"/><path class="l" d="M347.6,80.7l.7.7a.495.495,0,0,1-.7.7h0l-.7-.7a.495.495,0,1,1,.7-.7Z"/><path class="l" d="M355.3,88.6l.7.7a.495.495,0,1,1-.7.7h0l-.7-.7a.48331.48331,0,0,1,0-.7C354.7,88.4,355.1,88.4,355.3,88.6Z"/><path class="l" d="M362.9,96.5l.7.7a.56568.56568,0,0,1-.8.8h0l-.7-.7a.60831.60831,0,0,1,0-.8A.5204.5204,0,0,1,362.9,96.5Z"/><path class="l" d="M370.6,104.4l.7.7a.63639.63639,0,1,1-.9.9h0l-.7-.7a.74622.74622,0,0,1,0-.9A.56062.56062,0,0,1,370.6,104.4Z"/><path class="l" d="M378.3,112.2l.7.7a.70711.70711,0,0,1-1,1h0l-.7-.7a.76042.76042,0,0,1,0-1A.90835.90835,0,0,1,378.3,112.2Z"/><path class="l" d="M385.9,120.1l.7.7a.70711.70711,0,0,1-1,1h0l-.7-.7a.70711.70711,0,0,1,1-1Z"/><path class="l" d="M393.6,128l.7.7a.77782.77782,0,0,1-1.1,1.1h0l-.7-.7a.77782.77782,0,1,1,1.1-1.1Z"/><path class="l" d="M401.3,135.9l.7.7a.84853.84853,0,1,1-1.2,1.2h0l-.7-.7a.84853.84853,0,1,1,1.2-1.2Z"/><path class="l" d="M408.9,143.8l.7.7a.91924.91924,0,0,1-1.3,1.3h0l-.7-.7a.91017.91017,0,0,1,0-1.2A.80023.80023,0,0,1,408.9,143.8Z"/><path class="l" d="M416.6,151.7l.7.7a.91924.91924,0,1,1-1.3,1.3h0l-.7-.7a.93411.93411,0,0,1,0-1.3A.85416.85416,0,0,1,416.6,151.7Z"/><path class="l" d="M424.3,159.6l.7.7a.98995.98995,0,0,1-1.4,1.4h0l-.7-.7a.98995.98995,0,0,1,1.4-1.4Z"/><path class="l" d="M431.9,167.5l.7.7a1.06066,1.06066,0,0,1-1.5,1.5h0l-.7-.7a1.08751,1.08751,0,0,1,0-1.5A.93638.93638,0,0,1,431.9,167.5Z"/><path class="l" d="M439.6,175.3l.7.7a1.06066,1.06066,0,0,1-1.5,1.5h0l-.7-.7a1.06066,1.06066,0,0,1,1.5-1.5Z"/><path class="l" d="M447.3,183.2l.7.7a1.13138,1.13138,0,1,1-1.6,1.6h0l-.7-.7a1.13138,1.13138,0,0,1,1.6-1.6Z"/><path class="l" d="M454.9,191.1l.7.7a1.20208,1.20208,0,1,1-1.7,1.7h0l-.7-.7a1.23912,1.23912,0,0,1,0-1.7A1.14958,1.14958,0,0,1,454.9,191.1Z"/><path class="l" d="M462.6,199l.7.7a1.27279,1.27279,0,1,1-1.8,1.8h0l-.7-.7a1.27279,1.27279,0,1,1,1.8-1.8Z"/><path class="l" d="M470.3,206.9l.7.7a1.27279,1.27279,0,0,1-1.8,1.8h0l-.7-.7a1.27279,1.27279,0,0,1,1.8-1.8Z"/><path class="l" d="M477.8,215.2l.6.8a1.37295,1.37295,0,1,1-2.3,1.5h0l-.5-.8h0a1.4235,1.4235,0,0,1,.4-1.9A1.32091,1.32091,0,0,1,477.8,215.2Z"/><path class="l" d="M483.3,225l.4.9a1.43178,1.43178,0,0,1-2.6,1.2h0l-.4-.9h0a1.50634,1.50634,0,0,1,.7-1.9A1.43641,1.43641,0,0,1,483.3,225Z"/><path class="l" d="M487.5,235.3l.3,1a1.51822,1.51822,0,0,1-2.9.9h0l-.3-.9h0a1.431,1.431,0,0,1,1-1.8A1.39925,1.39925,0,0,1,487.5,235.3Z"/><path class="l" d="M490.2,246.2l.2,1a1.52971,1.52971,0,0,1-3,.6h0l-.2-1h0a1.631,1.631,0,0,1,1.3-1.8A1.41132,1.41132,0,0,1,490.2,246.2Z"/><path class="l" d="M491.5,257.3v1A1.64866,1.64866,0,0,1,490,260a1.57891,1.57891,0,0,1-1.7-1.5h0v-1h0a1.56056,1.56056,0,0,1,1.5-1.6A1.45452,1.45452,0,0,1,491.5,257.3Z"/><path class="l" d="M489.2,268.7l-.4.9a1.6553,1.6553,0,1,1-3-1.4h0l.4-.9h0a1.68158,1.68158,0,0,1,2.2-.8A1.78012,1.78012,0,0,1,489.2,268.7Z"/><path class="l" d="M483.6,278.5l-.6.8a1.73349,1.73349,0,0,1-2.9-1.9h0l.6-.8h0a1.73349,1.73349,0,0,1,2.9,1.9Z"/><path class="l" d="M477.2,287.5l-.6.8a1.78045,1.78045,0,1,1-2.8-2.2h0l.6-.8h0a1.65357,1.65357,0,0,1,2.4-.3A1.80011,1.80011,0,0,1,477.2,287.5Z"/><path class="l" d="M470.4,296.3l-.6.8a1.76987,1.76987,0,0,1-2.5.3,1.86623,1.86623,0,0,1-.3-2.5h0l.6-.8a1.78045,1.78045,0,0,1,2.8,2.2Z"/><path class="l" d="M463.4,304.8l-.6.8a1.84391,1.84391,0,0,1-2.8-2.4h0l.6-.8a1.84391,1.84391,0,0,1,2.8,2.4Z"/><path class="l" d="M456.3,313.2l-.7.8a1.91443,1.91443,0,1,1-2.9-2.5h0l.7-.7a1.90722,1.90722,0,0,1,2.7-.2A1.87,1.87,0,0,1,456.3,313.2Z"/><path class="l" d="M449,321.5l-.7.8a1.98494,1.98494,0,1,1-3-2.6h0l.7-.7a2.02914,2.02914,0,0,1,2.8-.2A1.81864,1.81864,0,0,1,449,321.5Z"/><path class="l" d="M441.8,329.7l-.7.7a2.05548,2.05548,0,1,1-3.1-2.7h0l.7-.7a2.06067,2.06067,0,0,1,3.1,2.7Z"/><path class="l" d="M434.5,338l-.7.7a2.05548,2.05548,0,1,1-3.1-2.7h0l.7-.7a2.05548,2.05548,0,0,1,3.1,2.7Z"/><path class="l" d="M427.2,346.2l-.7.8a2.126,2.126,0,0,1-3.2-2.8h0l.7-.7a2.08884,2.08884,0,0,1,3-.2A1.96754,1.96754,0,0,1,427.2,346.2Z"/><path class="l" d="M420,354.5l-.6.8a2.19659,2.19659,0,1,1-3.3-2.9h0l.7-.8a2.20824,2.20824,0,0,1,3.1-.2A2.30482,2.30482,0,0,1,420,354.5Z"/><path class="l" d="M413,362.9l-.6.8h0a2.20228,2.20228,0,0,1-3.4-2.8h0l.6-.8a2.20228,2.20228,0,1,1,3.4,2.8Z"/><path class="l" d="M406.2,371.5l-.6.8h0a2.28036,2.28036,0,0,1-3.6-2.8h0l.6-.8a2.28036,2.28036,0,1,1,3.6,2.8Z"/><path class="l" d="M399.9,380.3l-.5.8h0a2.31626,2.31626,0,1,1-3.9-2.5h0l.6-.9a2.30362,2.30362,0,0,1,3.2-.7,2.496,2.496,0,0,1,.6,3.3Z"/><path class="l" d="M395,389.5l-.3.8v.1a2.36394,2.36394,0,0,1-3,1.6,2.46987,2.46987,0,0,1-1.6-2.9c.1-.2.1-.4.2-.6l.2-.5a2.34854,2.34854,0,0,1,3-1.5,2.38839,2.38839,0,0,1,1.5,3Z"/><path class="l" d="M394.8,399.3l.1,1h0a2.41869,2.41869,0,0,1-4.8.6h0l-.1-1a2.52421,2.52421,0,0,1,2.2-2.7,2.29848,2.29848,0,0,1,2.6,2.1Z"/><path class="l" d="M396.4,410l.2,1h0a2.491,2.491,0,0,1-4.9.9h0l-.2-1a2.6328,2.6328,0,0,1,2-2.9,2.51686,2.51686,0,0,1,2.9,2Z"/><polygon class="l" points="30.8 731.8 31.6 731.1 31.6 731.1 31.6 731.1 31.6 731.1 30.8 731.8"/><circle class="l" cx="38.7" cy="724.20001" r="0.09999"/><path class="l" d="M38.7,724.1l.7-.7h.1v.1h0l-.8.6Z"/><circle class="l" cx="46.6" cy="716.5" r="0.09999"/><path class="l" d="M46.5,716.4l.7-.7h.2v.2h0l-.7.7h-.1A.30979.30979,0,0,1,46.5,716.4Z"/><circle class="l" cx="54.5" cy="708.79999" r="0.20001"/><path class="l" d="M54.3,708.7l.7-.7c.1-.1.2-.1.2,0s.1.2,0,.2h0l-.7.7c-.1.1-.2.1-.2,0Z"/><circle class="l" cx="62.3" cy="701.09998" r="0.20001"/><path class="l" d="M62.2,700.9l.7-.7a.21213.21213,0,0,1,.3.3h0l-.7.7a.18753.18753,0,0,1-.3,0C62.1,701.2,62.1,701,62.2,700.9Z"/><circle class="l" cx="70.2" cy="693.40002" r="0.3"/><path class="l" d="M70,693.2l.7-.7a.28285.28285,0,1,1,.4.4h0l-.7.7a.28285.28285,0,0,1-.4-.4Z"/><circle class="l" cx="78.1" cy="685.70001" r="0.3"/><path class="l" d="M77.8,685.5l.7-.7a.35355.35355,0,0,1,.5.5h0l-.7.7a.30422.30422,0,0,1-.4,0C77.7,685.8,77.7,685.6,77.8,685.5Z"/><circle class="l" cx="85.9" cy="678" r="0.40001"/><path class="l" d="M85.7,677.8l.7-.7a.35355.35355,0,0,1,.5.5h0l-.7.7a.45426.45426,0,0,1-.5,0C85.5,678.1,85.5,677.9,85.7,677.8Z"/><circle class="l" cx="93.8" cy="670.40002" r="0.40001"/><path class="l" d="M93.5,670l.7-.7a.42425.42425,0,0,1,.6.6h0l-.7.7a.375.375,0,0,1-.6,0C93.3,670.5,93.3,670.2,93.5,670Z"/><circle class="l" cx="101.7" cy="662.70001" r="0.5"/><path class="l" d="M101.3,662.3l.7-.7a.495.495,0,0,1,.7.7h0l-.7.7a.48331.48331,0,0,1-.7,0A.85415.85415,0,0,1,101.3,662.3Z"/><circle class="l" cx="109.5" cy="655" r="0.5"/><path class="l" d="M109.2,654.6l.7-.7a.56568.56568,0,1,1,.8.8h0l-.7.7a.48331.48331,0,0,1-.7,0C109,655.1,109,654.8,109.2,654.6Z"/><circle class="l" cx="117.4" cy="647.29999" r="0.59999"/><path class="l" d="M117,646.9l.7-.7a.56568.56568,0,0,1,.8.8h0l-.7.7a.56568.56568,0,0,1-.8-.8Z"/><circle class="l" cx="125.3" cy="639.59998" r="0.59999"/><path class="l" d="M124.8,639.2l.7-.7a.63641.63641,0,1,1,.9.9h0l-.7.7a.63641.63641,0,0,1-.9-.9Z"/><circle class="l" cx="133.2" cy="631.90002" r="0.7"/><path class="l" d="M132.7,631.4l.7-.7a.70711.70711,0,0,1,1,1h0l-.7.7a.70711.70711,0,0,1-1-1Z"/><circle class="l" cx="141" cy="624.20001" r="0.7"/><path class="l" d="M140.5,623.7l.7-.7a.77781.77781,0,0,1,1.1,1.1h0l-.7.7a.666.666,0,0,1-1,0A.71334.71334,0,0,1,140.5,623.7Z"/><circle class="l" cx="148.89999" cy="616.59998" r="0.8"/><path class="l" d="M148.3,616l.7-.7a.77781.77781,0,0,1,1.1,1.1h0l-.7.7a.77781.77781,0,1,1-1.1-1.1Z"/><circle class="l" cx="156.8" cy="608.90002" r="0.8"/><path class="l" d="M156.2,608.3l.7-.7a.84853.84853,0,0,1,1.2,1.2h0l-.7.7a.91252.91252,0,0,1-1.2,0A.74861.74861,0,0,1,156.2,608.3Z"/><circle class="l" cx="164.60001" cy="601.20001" r="0.90001"/><path class="l" d="M164,600.5l.7-.7a.91924.91924,0,0,1,1.3,1.3h0l-.7.7a1.05143,1.05143,0,0,1-1.3,0A.936.936,0,0,1,164,600.5Z"/><circle class="l" cx="172.5" cy="593.5" r="1"/><path class="l" d="M171.8,592.8l.7-.7a.99.99,0,0,1,1.4,1.4h0l-.7.7a.85262.85262,0,0,1-1.3,0A1.07093,1.07093,0,0,1,171.8,592.8Z"/><circle class="l" cx="180.39999" cy="585.79999" r="1"/><path class="l" d="M179.7,585.1l.7-.7a.99.99,0,0,1,1.4,1.4h0l-.7.7a.99.99,0,1,1-1.4-1.4Z"/><circle class="l" cx="188.2" cy="578.09998" r="1.09999"/><path class="l" d="M187.5,577.4l.7-.7a1.06066,1.06066,0,0,1,1.5,1.5h0l-.7.7a1.06066,1.06066,0,0,1-1.5-1.5Z"/><circle class="l" cx="196.10001" cy="570.40002" r="1.09999"/><path class="l" d="M195.3,569.6l.7-.7a1.13136,1.13136,0,1,1,1.6,1.6h0l-.7.7a1.13136,1.13136,0,0,1-1.6-1.6Z"/><circle class="l" cx="204" cy="562.79999" r="1.2"/><path class="l" d="M203.2,561.9l.7-.7a1.20208,1.20208,0,1,1,1.7,1.7h0l-.7.7a1.21485,1.21485,0,0,1-1.6,0A1.08578,1.08578,0,0,1,203.2,561.9Z"/><circle class="l" cx="211.8" cy="555.09998" r="1.2"/><path class="l" d="M211,554.2l.7-.7a1.20208,1.20208,0,0,1,1.7,1.7h0l-.7.7a1.20208,1.20208,0,0,1-1.7-1.7Z"/><circle class="l" cx="219.7" cy="547.40002" r="1.3"/><path class="l" d="M218.8,546.5l.7-.7a1.27279,1.27279,0,0,1,1.8,1.8h0l-.7.7a1.27279,1.27279,0,0,1-1.8-1.8Z"/><circle class="l" cx="227.60001" cy="539.70001" r="1.3"/><path class="l" d="M226.7,538.7l.7-.7a1.34351,1.34351,0,1,1,1.9,1.9h0l-.7.7a1.39083,1.39083,0,0,1-1.9,0A1.22683,1.22683,0,0,1,226.7,538.7Z"/><circle class="l" cx="235.5" cy="532" r="1.40001"/><path class="l" d="M234.5,531l.7-.7a1.41421,1.41421,0,0,1,2,2h0l-.7.7a1.39083,1.39083,0,0,1-1.9,0A1.33962,1.33962,0,0,1,234.5,531Z"/><circle class="l" cx="243.3" cy="524.29999" r="1.40001"/><path class="l" d="M242.3,523.3l.7-.7a1.41421,1.41421,0,0,1,2,2h0l-.7.7a1.41421,1.41421,0,0,1-2-2Z"/><circle class="l" cx="251.2" cy="516.59998" r="1.5"/><path class="l" d="M250.2,515.6l.7-.7a1.48492,1.48492,0,1,1,2.1,2.1h0l-.7.7a1.48492,1.48492,0,0,1-2.1-2.1Z"/><circle class="l" cx="259.10001" cy="508.89999" r="1.5"/><path class="l" d="M258,507.9l.7-.7a1.55564,1.55564,0,0,1,2.2,2.2h0l-.7.7a1.55564,1.55564,0,1,1-2.2-2.2Z"/><circle class="l" cx="266.89999" cy="501.29999" r="1.60001"/><path class="l" d="M265.8,500.1l.7-.7a1.62634,1.62634,0,0,1,2.3,2.3h0l-.7.7a1.56945,1.56945,0,0,1-2.2,0A1.6051,1.6051,0,0,1,265.8,500.1Z"/><circle class="l" cx="274.79999" cy="493.60001" r="1.60001"/><path class="l" d="M273.7,492.4l.7-.7a1.62634,1.62634,0,1,1,2.3,2.3h0l-.7.7a1.69327,1.69327,0,0,1-2.3,0A1.522,1.522,0,0,1,273.7,492.4Z"/><circle class="l" cx="282.70001" cy="485.89999" r="1.70001"/><path class="l" d="M281.5,484.7l.7-.7a1.69705,1.69705,0,0,1,2.4,2.4h0l-.7.7a1.72065,1.72065,0,0,1-2.4,0A1.633,1.633,0,0,1,281.5,484.7Z"/><circle class="l" cx="290.5" cy="478.20001" r="1.70001"/><path class="l" d="M289.3,477l.7-.7a1.76777,1.76777,0,0,1,2.5,2.5h0l-.7.7a1.76777,1.76777,0,0,1-2.5-2.5Z"/><circle class="l" cx="298.39999" cy="470.5" r="1.79999"/><path class="l" d="M297.2,469.2l.7-.7a1.83848,1.83848,0,0,1,2.6,2.6h0l-.7.7a1.74964,1.74964,0,0,1-2.5,0A1.71093,1.71093,0,0,1,297.2,469.2Z"/><circle class="l" cx="306.29999" cy="462.79999" r="1.89999"/><path class="l" d="M305,461.5l.7-.7a1.83848,1.83848,0,0,1,2.6,2.6h0l-.7.7a1.872,1.872,0,0,1-2.6,0A1.78348,1.78348,0,0,1,305,461.5Z"/><circle class="l" cx="314.20001" cy="455.10001" r="1.89999"/><path class="l" d="M312.8,453.8l.7-.7a1.9092,1.9092,0,0,1,2.7,2.7h0l-.7.7a1.9092,1.9092,0,0,1-2.7-2.7Z"/><circle class="l" cx="322" cy="447.5" r="2"/><path class="l" d="M320.7,446.1l.7-.7a1.97989,1.97989,0,0,1,2.8,2.8h0l-.7.7a2.02346,2.02346,0,0,1-2.8,0A1.93006,1.93006,0,0,1,320.7,446.1Z"/><circle class="l" cx="329.89999" cy="439.79999" r="2"/><path class="l" d="M328.5,438.3l.7-.7a2.05061,2.05061,0,0,1,2.9,2.9h0l-.7.7a1.93253,1.93253,0,0,1-2.8,0A1.97027,1.97027,0,0,1,328.5,438.3Z"/><circle class="l" cx="337.79999" cy="432.10001" r="2.10001"/><path class="l" d="M336.3,430.6l.7-.7a2.05061,2.05061,0,0,1,2.9,2.9h0l-.7.7a2.05061,2.05061,0,0,1-2.9-2.9Z"/><circle class="l" cx="345.60001" cy="424.39999" r="2.10001"/><path class="l" d="M344.2,422.9l.7-.7a2.12132,2.12132,0,0,1,3,3h0l-.7.7a2.175,2.175,0,0,1-3,0A2.00344,2.00344,0,0,1,344.2,422.9Z"/><circle class="l" cx="353.89999" cy="417.29999" r="2.20001"/><path class="l" d="M352.9,415.4l.9-.5a2.19545,2.19545,0,0,1,2.2,3.8h0l-.9.5h0a2.17762,2.17762,0,0,1-3-.9A2.05547,2.05547,0,0,1,352.9,415.4Z"/><circle class="l" cx="363.89999" cy="412.70001" r="2.20001"/><path class="l" d="M363.2,410.5l1.1-.3a2.2461,2.2461,0,1,1,1.3,4.3h-.1l-.9.2h-.1a2.35848,2.35848,0,0,1-2.8-1.6A2.17345,2.17345,0,0,1,363.2,410.5Z"/><circle class="l" cx="374.60001" cy="413.60001" r="2.29999"/><path class="l" d="M375.3,411.4l1,.3a2.30868,2.30868,0,0,1-1.4,4.4h0l-.9-.3h0a2.32189,2.32189,0,0,1-1.5-2.9A2.10919,2.10919,0,0,1,375.3,411.4Z"/><circle class="l" cx="384.89999" cy="417.39999" r="2.39999"/><path class="l" d="M385.9,415.2l.9.4A2.377,2.377,0,0,1,385,420h0l-.9-.4h0a2.47068,2.47068,0,0,1-1.3-3.2A2.36281,2.36281,0,0,1,385.9,415.2Z"/><circle class="l" cx="395" cy="421.79999" r="2.5"/><path class="l" d="M395.5,419.3l1,.5a2.43745,2.43745,0,0,1,1.2,3.3,2.52242,2.52242,0,0,1-3.3,1.2h0l-1-.4h0a2.43745,2.43745,0,0,1-1.2-3.3A2.48107,2.48107,0,0,1,395.5,419.3Z"/><path d="M384.7,472.9l18.4-19.6L384.4,435h9.1l13.3,14.4L419.3,435h7.9l-16.7,17.8,20.3,20.1h-9.1l-15.1-16.2-14,16.2Z"/></svg>